%TF.GenerationSoftware,KiCad,Pcbnew,(5.1.9)-1*%
%TF.CreationDate,2021-03-15T19:39:59+08:00*%
%TF.ProjectId,Kernel,4b65726e-656c-42e6-9b69-6361645f7063,rev?*%
%TF.SameCoordinates,Original*%
%TF.FileFunction,Paste,Top*%
%TF.FilePolarity,Positive*%
%FSLAX46Y46*%
G04 Gerber Fmt 4.6, Leading zero omitted, Abs format (unit mm)*
G04 Created by KiCad (PCBNEW (5.1.9)-1) date 2021-03-15 19:39:59*
%MOMM*%
%LPD*%
G01*
G04 APERTURE LIST*
%ADD10R,2.500000X1.000000*%
G04 APERTURE END LIST*
%TO.C,R5*%
G36*
G01*
X79967500Y-45269999D02*
X79967500Y-46170001D01*
G75*
G02*
X79717501Y-46420000I-249999J0D01*
G01*
X79192499Y-46420000D01*
G75*
G02*
X78942500Y-46170001I0J249999D01*
G01*
X78942500Y-45269999D01*
G75*
G02*
X79192499Y-45020000I249999J0D01*
G01*
X79717501Y-45020000D01*
G75*
G02*
X79967500Y-45269999I0J-249999D01*
G01*
G37*
G36*
G01*
X81792500Y-45269999D02*
X81792500Y-46170001D01*
G75*
G02*
X81542501Y-46420000I-249999J0D01*
G01*
X81017499Y-46420000D01*
G75*
G02*
X80767500Y-46170001I0J249999D01*
G01*
X80767500Y-45269999D01*
G75*
G02*
X81017499Y-45020000I249999J0D01*
G01*
X81542501Y-45020000D01*
G75*
G02*
X81792500Y-45269999I0J-249999D01*
G01*
G37*
%TD*%
%TO.C,R4*%
G36*
G01*
X85909999Y-42945000D02*
X86810001Y-42945000D01*
G75*
G02*
X87060000Y-43194999I0J-249999D01*
G01*
X87060000Y-43720001D01*
G75*
G02*
X86810001Y-43970000I-249999J0D01*
G01*
X85909999Y-43970000D01*
G75*
G02*
X85660000Y-43720001I0J249999D01*
G01*
X85660000Y-43194999D01*
G75*
G02*
X85909999Y-42945000I249999J0D01*
G01*
G37*
G36*
G01*
X85909999Y-41120000D02*
X86810001Y-41120000D01*
G75*
G02*
X87060000Y-41369999I0J-249999D01*
G01*
X87060000Y-41895001D01*
G75*
G02*
X86810001Y-42145000I-249999J0D01*
G01*
X85909999Y-42145000D01*
G75*
G02*
X85660000Y-41895001I0J249999D01*
G01*
X85660000Y-41369999D01*
G75*
G02*
X85909999Y-41120000I249999J0D01*
G01*
G37*
%TD*%
%TO.C,R3*%
G36*
G01*
X85490000Y-46170001D02*
X85490000Y-45269999D01*
G75*
G02*
X85739999Y-45020000I249999J0D01*
G01*
X86265001Y-45020000D01*
G75*
G02*
X86515000Y-45269999I0J-249999D01*
G01*
X86515000Y-46170001D01*
G75*
G02*
X86265001Y-46420000I-249999J0D01*
G01*
X85739999Y-46420000D01*
G75*
G02*
X85490000Y-46170001I0J249999D01*
G01*
G37*
G36*
G01*
X83665000Y-46170001D02*
X83665000Y-45269999D01*
G75*
G02*
X83914999Y-45020000I249999J0D01*
G01*
X84440001Y-45020000D01*
G75*
G02*
X84690000Y-45269999I0J-249999D01*
G01*
X84690000Y-46170001D01*
G75*
G02*
X84440001Y-46420000I-249999J0D01*
G01*
X83914999Y-46420000D01*
G75*
G02*
X83665000Y-46170001I0J249999D01*
G01*
G37*
%TD*%
%TO.C,R2*%
G36*
G01*
X108400001Y-52027500D02*
X107499999Y-52027500D01*
G75*
G02*
X107250000Y-51777501I0J249999D01*
G01*
X107250000Y-51252499D01*
G75*
G02*
X107499999Y-51002500I249999J0D01*
G01*
X108400001Y-51002500D01*
G75*
G02*
X108650000Y-51252499I0J-249999D01*
G01*
X108650000Y-51777501D01*
G75*
G02*
X108400001Y-52027500I-249999J0D01*
G01*
G37*
G36*
G01*
X108400001Y-53852500D02*
X107499999Y-53852500D01*
G75*
G02*
X107250000Y-53602501I0J249999D01*
G01*
X107250000Y-53077499D01*
G75*
G02*
X107499999Y-52827500I249999J0D01*
G01*
X108400001Y-52827500D01*
G75*
G02*
X108650000Y-53077499I0J-249999D01*
G01*
X108650000Y-53602501D01*
G75*
G02*
X108400001Y-53852500I-249999J0D01*
G01*
G37*
%TD*%
%TO.C,R1*%
G36*
G01*
X108769999Y-45762500D02*
X109670001Y-45762500D01*
G75*
G02*
X109920000Y-46012499I0J-249999D01*
G01*
X109920000Y-46537501D01*
G75*
G02*
X109670001Y-46787500I-249999J0D01*
G01*
X108769999Y-46787500D01*
G75*
G02*
X108520000Y-46537501I0J249999D01*
G01*
X108520000Y-46012499D01*
G75*
G02*
X108769999Y-45762500I249999J0D01*
G01*
G37*
G36*
G01*
X108769999Y-43937500D02*
X109670001Y-43937500D01*
G75*
G02*
X109920000Y-44187499I0J-249999D01*
G01*
X109920000Y-44712501D01*
G75*
G02*
X109670001Y-44962500I-249999J0D01*
G01*
X108769999Y-44962500D01*
G75*
G02*
X108520000Y-44712501I0J249999D01*
G01*
X108520000Y-44187499D01*
G75*
G02*
X108769999Y-43937500I249999J0D01*
G01*
G37*
%TD*%
%TO.C,C1*%
G36*
G01*
X87010001Y-37200000D02*
X85709999Y-37200000D01*
G75*
G02*
X85460000Y-36950001I0J249999D01*
G01*
X85460000Y-36299999D01*
G75*
G02*
X85709999Y-36050000I249999J0D01*
G01*
X87010001Y-36050000D01*
G75*
G02*
X87260000Y-36299999I0J-249999D01*
G01*
X87260000Y-36950001D01*
G75*
G02*
X87010001Y-37200000I-249999J0D01*
G01*
G37*
G36*
G01*
X87010001Y-40150000D02*
X85709999Y-40150000D01*
G75*
G02*
X85460000Y-39900001I0J249999D01*
G01*
X85460000Y-39249999D01*
G75*
G02*
X85709999Y-39000000I249999J0D01*
G01*
X87010001Y-39000000D01*
G75*
G02*
X87260000Y-39249999I0J-249999D01*
G01*
X87260000Y-39900001D01*
G75*
G02*
X87010001Y-40150000I-249999J0D01*
G01*
G37*
%TD*%
D10*
%TO.C,U1*%
X89555000Y-39680000D03*
X89555000Y-41680000D03*
X89555000Y-43680000D03*
X89555000Y-45680000D03*
X89555000Y-47680000D03*
X89555000Y-49680000D03*
X89555000Y-51680000D03*
X89555000Y-53680000D03*
X104755000Y-53680000D03*
X104755000Y-51680000D03*
X104755000Y-49680000D03*
X104755000Y-47680000D03*
X104755000Y-45680000D03*
X104755000Y-43680000D03*
X104755000Y-41680000D03*
X104755000Y-39680000D03*
%TD*%
M02*
