%TF.GenerationSoftware,KiCad,Pcbnew,(5.1.9-0-10_14)*%
%TF.CreationDate,2021-03-17T15:04:59+08:00*%
%TF.ProjectId,Kernel,4b65726e-656c-42e6-9b69-6361645f7063,rev?*%
%TF.SameCoordinates,Original*%
%TF.FileFunction,Copper,L1,Top*%
%TF.FilePolarity,Positive*%
%FSLAX46Y46*%
G04 Gerber Fmt 4.6, Leading zero omitted, Abs format (unit mm)*
G04 Created by KiCad (PCBNEW (5.1.9-0-10_14)) date 2021-03-17 15:04:59*
%MOMM*%
%LPD*%
G01*
G04 APERTURE LIST*
%TA.AperFunction,SMDPad,CuDef*%
%ADD10R,2.500000X1.000000*%
%TD*%
%TA.AperFunction,ComponentPad*%
%ADD11O,1.700000X1.700000*%
%TD*%
%TA.AperFunction,ComponentPad*%
%ADD12R,1.700000X1.700000*%
%TD*%
%TA.AperFunction,ComponentPad*%
%ADD13C,2.000000*%
%TD*%
%TA.AperFunction,ComponentPad*%
%ADD14C,1.600000*%
%TD*%
%TA.AperFunction,ComponentPad*%
%ADD15R,1.600000X1.600000*%
%TD*%
%TA.AperFunction,Conductor*%
%ADD16C,0.250000*%
%TD*%
G04 APERTURE END LIST*
D10*
%TO.P,U1,1*%
%TO.N,RST*%
X89555000Y-39680000D03*
%TO.P,U1,2*%
%TO.N,Net-(U1-Pad2)*%
X89555000Y-41680000D03*
%TO.P,U1,3*%
%TO.N,EN*%
X89555000Y-43680000D03*
%TO.P,U1,4*%
%TO.N,IO16*%
X89555000Y-45680000D03*
%TO.P,U1,5*%
%TO.N,IO14*%
X89555000Y-47680000D03*
%TO.P,U1,6*%
%TO.N,IO12*%
X89555000Y-49680000D03*
%TO.P,U1,7*%
%TO.N,IO13*%
X89555000Y-51680000D03*
%TO.P,U1,8*%
%TO.N,+3V3*%
X89555000Y-53680000D03*
%TO.P,U1,9*%
%TO.N,GND*%
X104755000Y-53680000D03*
%TO.P,U1,10*%
%TO.N,IO15*%
X104755000Y-51680000D03*
%TO.P,U1,11*%
%TO.N,IO2*%
X104755000Y-49680000D03*
%TO.P,U1,12*%
%TO.N,IO0*%
X104755000Y-47680000D03*
%TO.P,U1,13*%
%TO.N,IO4*%
X104755000Y-45680000D03*
%TO.P,U1,14*%
%TO.N,IO5*%
X104755000Y-43680000D03*
%TO.P,U1,15*%
%TO.N,RXD*%
X104755000Y-41680000D03*
%TO.P,U1,16*%
%TO.N,TXD*%
X104755000Y-39680000D03*
%TD*%
D11*
%TO.P,J4,2*%
%TO.N,TXD*%
X109220000Y-41910000D03*
D12*
%TO.P,J4,1*%
%TO.N,RXD*%
X111760000Y-41910000D03*
%TD*%
D13*
%TO.P,SW3,1*%
%TO.N,+3V3*%
X79860000Y-54610000D03*
%TO.P,SW3,2*%
%TO.N,IO13*%
X79860000Y-50110000D03*
%TO.P,SW3,1*%
%TO.N,+3V3*%
X86360000Y-54610000D03*
%TO.P,SW3,2*%
%TO.N,IO13*%
X86360000Y-50110000D03*
%TD*%
%TO.P,SW2,1*%
%TO.N,RST*%
X82700000Y-36830000D03*
%TO.P,SW2,2*%
%TO.N,+3V3*%
X82700000Y-41330000D03*
%TO.P,SW2,1*%
%TO.N,RST*%
X76200000Y-36830000D03*
%TO.P,SW2,2*%
%TO.N,+3V3*%
X76200000Y-41330000D03*
%TD*%
D11*
%TO.P,J1,4*%
%TO.N,GND*%
X116840000Y-38100000D03*
%TO.P,J1,3*%
%TO.N,+3V3*%
X114300000Y-38100000D03*
%TO.P,J1,2*%
%TO.N,RXD*%
X111760000Y-38100000D03*
D12*
%TO.P,J1,1*%
%TO.N,TXD*%
X109220000Y-38100000D03*
%TD*%
%TO.P,R5,2*%
%TO.N,IO13*%
%TA.AperFunction,SMDPad,CuDef*%
G36*
G01*
X79967500Y-45269998D02*
X79967500Y-46170002D01*
G75*
G02*
X79717502Y-46420000I-249998J0D01*
G01*
X79192498Y-46420000D01*
G75*
G02*
X78942500Y-46170002I0J249998D01*
G01*
X78942500Y-45269998D01*
G75*
G02*
X79192498Y-45020000I249998J0D01*
G01*
X79717502Y-45020000D01*
G75*
G02*
X79967500Y-45269998I0J-249998D01*
G01*
G37*
%TD.AperFunction*%
%TO.P,R5,1*%
%TO.N,GND*%
%TA.AperFunction,SMDPad,CuDef*%
G36*
G01*
X81792500Y-45269998D02*
X81792500Y-46170002D01*
G75*
G02*
X81542502Y-46420000I-249998J0D01*
G01*
X81017498Y-46420000D01*
G75*
G02*
X80767500Y-46170002I0J249998D01*
G01*
X80767500Y-45269998D01*
G75*
G02*
X81017498Y-45020000I249998J0D01*
G01*
X81542502Y-45020000D01*
G75*
G02*
X81792500Y-45269998I0J-249998D01*
G01*
G37*
%TD.AperFunction*%
%TD*%
D11*
%TO.P,J3,4*%
%TO.N,GND*%
X118110000Y-53340000D03*
%TO.P,J3,3*%
%TO.N,IO2*%
X118110000Y-50800000D03*
%TO.P,J3,2*%
%TO.N,IO4*%
X118110000Y-48260000D03*
D12*
%TO.P,J3,1*%
%TO.N,IO5*%
X118110000Y-45720000D03*
%TD*%
D11*
%TO.P,J2,4*%
%TO.N,+3V3*%
X76200000Y-53340000D03*
%TO.P,J2,3*%
%TO.N,IO12*%
X76200000Y-50800000D03*
%TO.P,J2,2*%
%TO.N,IO14*%
X76200000Y-48260000D03*
D12*
%TO.P,J2,1*%
%TO.N,IO16*%
X76200000Y-45720000D03*
%TD*%
D14*
%TO.P,SW1,6*%
%TO.N,N/C*%
X114935000Y-47070000D03*
%TO.P,SW1,5*%
X114935000Y-49570000D03*
%TO.P,SW1,4*%
X114935000Y-52070000D03*
%TO.P,SW1,3*%
%TO.N,Net-(R1-Pad2)*%
X111735000Y-47070000D03*
%TO.P,SW1,2*%
%TO.N,IO0*%
X111735000Y-49570000D03*
D15*
%TO.P,SW1,1*%
%TO.N,GND*%
X111735000Y-52070000D03*
%TD*%
%TO.P,R4,2*%
%TO.N,GND*%
%TA.AperFunction,SMDPad,CuDef*%
G36*
G01*
X85909998Y-42945000D02*
X86810002Y-42945000D01*
G75*
G02*
X87060000Y-43194998I0J-249998D01*
G01*
X87060000Y-43720002D01*
G75*
G02*
X86810002Y-43970000I-249998J0D01*
G01*
X85909998Y-43970000D01*
G75*
G02*
X85660000Y-43720002I0J249998D01*
G01*
X85660000Y-43194998D01*
G75*
G02*
X85909998Y-42945000I249998J0D01*
G01*
G37*
%TD.AperFunction*%
%TO.P,R4,1*%
%TO.N,RST*%
%TA.AperFunction,SMDPad,CuDef*%
G36*
G01*
X85909998Y-41120000D02*
X86810002Y-41120000D01*
G75*
G02*
X87060000Y-41369998I0J-249998D01*
G01*
X87060000Y-41895002D01*
G75*
G02*
X86810002Y-42145000I-249998J0D01*
G01*
X85909998Y-42145000D01*
G75*
G02*
X85660000Y-41895002I0J249998D01*
G01*
X85660000Y-41369998D01*
G75*
G02*
X85909998Y-41120000I249998J0D01*
G01*
G37*
%TD.AperFunction*%
%TD*%
%TO.P,R3,2*%
%TO.N,EN*%
%TA.AperFunction,SMDPad,CuDef*%
G36*
G01*
X85490000Y-46170002D02*
X85490000Y-45269998D01*
G75*
G02*
X85739998Y-45020000I249998J0D01*
G01*
X86265002Y-45020000D01*
G75*
G02*
X86515000Y-45269998I0J-249998D01*
G01*
X86515000Y-46170002D01*
G75*
G02*
X86265002Y-46420000I-249998J0D01*
G01*
X85739998Y-46420000D01*
G75*
G02*
X85490000Y-46170002I0J249998D01*
G01*
G37*
%TD.AperFunction*%
%TO.P,R3,1*%
%TO.N,+3V3*%
%TA.AperFunction,SMDPad,CuDef*%
G36*
G01*
X83665000Y-46170002D02*
X83665000Y-45269998D01*
G75*
G02*
X83914998Y-45020000I249998J0D01*
G01*
X84440002Y-45020000D01*
G75*
G02*
X84690000Y-45269998I0J-249998D01*
G01*
X84690000Y-46170002D01*
G75*
G02*
X84440002Y-46420000I-249998J0D01*
G01*
X83914998Y-46420000D01*
G75*
G02*
X83665000Y-46170002I0J249998D01*
G01*
G37*
%TD.AperFunction*%
%TD*%
%TO.P,R2,2*%
%TO.N,IO15*%
%TA.AperFunction,SMDPad,CuDef*%
G36*
G01*
X108400002Y-52027500D02*
X107499998Y-52027500D01*
G75*
G02*
X107250000Y-51777502I0J249998D01*
G01*
X107250000Y-51252498D01*
G75*
G02*
X107499998Y-51002500I249998J0D01*
G01*
X108400002Y-51002500D01*
G75*
G02*
X108650000Y-51252498I0J-249998D01*
G01*
X108650000Y-51777502D01*
G75*
G02*
X108400002Y-52027500I-249998J0D01*
G01*
G37*
%TD.AperFunction*%
%TO.P,R2,1*%
%TO.N,GND*%
%TA.AperFunction,SMDPad,CuDef*%
G36*
G01*
X108400002Y-53852500D02*
X107499998Y-53852500D01*
G75*
G02*
X107250000Y-53602502I0J249998D01*
G01*
X107250000Y-53077498D01*
G75*
G02*
X107499998Y-52827500I249998J0D01*
G01*
X108400002Y-52827500D01*
G75*
G02*
X108650000Y-53077498I0J-249998D01*
G01*
X108650000Y-53602502D01*
G75*
G02*
X108400002Y-53852500I-249998J0D01*
G01*
G37*
%TD.AperFunction*%
%TD*%
%TO.P,R1,2*%
%TO.N,Net-(R1-Pad2)*%
%TA.AperFunction,SMDPad,CuDef*%
G36*
G01*
X108769998Y-45762500D02*
X109670002Y-45762500D01*
G75*
G02*
X109920000Y-46012498I0J-249998D01*
G01*
X109920000Y-46537502D01*
G75*
G02*
X109670002Y-46787500I-249998J0D01*
G01*
X108769998Y-46787500D01*
G75*
G02*
X108520000Y-46537502I0J249998D01*
G01*
X108520000Y-46012498D01*
G75*
G02*
X108769998Y-45762500I249998J0D01*
G01*
G37*
%TD.AperFunction*%
%TO.P,R1,1*%
%TO.N,+3V3*%
%TA.AperFunction,SMDPad,CuDef*%
G36*
G01*
X108769998Y-43937500D02*
X109670002Y-43937500D01*
G75*
G02*
X109920000Y-44187498I0J-249998D01*
G01*
X109920000Y-44712502D01*
G75*
G02*
X109670002Y-44962500I-249998J0D01*
G01*
X108769998Y-44962500D01*
G75*
G02*
X108520000Y-44712502I0J249998D01*
G01*
X108520000Y-44187498D01*
G75*
G02*
X108769998Y-43937500I249998J0D01*
G01*
G37*
%TD.AperFunction*%
%TD*%
%TO.P,C1,2*%
%TO.N,RST*%
%TA.AperFunction,SMDPad,CuDef*%
G36*
G01*
X87010001Y-37200000D02*
X85709999Y-37200000D01*
G75*
G02*
X85460000Y-36950001I0J249999D01*
G01*
X85460000Y-36299999D01*
G75*
G02*
X85709999Y-36050000I249999J0D01*
G01*
X87010001Y-36050000D01*
G75*
G02*
X87260000Y-36299999I0J-249999D01*
G01*
X87260000Y-36950001D01*
G75*
G02*
X87010001Y-37200000I-249999J0D01*
G01*
G37*
%TD.AperFunction*%
%TO.P,C1,1*%
%TO.N,+3V3*%
%TA.AperFunction,SMDPad,CuDef*%
G36*
G01*
X87010001Y-40150000D02*
X85709999Y-40150000D01*
G75*
G02*
X85460000Y-39900001I0J249999D01*
G01*
X85460000Y-39249999D01*
G75*
G02*
X85709999Y-39000000I249999J0D01*
G01*
X87010001Y-39000000D01*
G75*
G02*
X87260000Y-39249999I0J-249999D01*
G01*
X87260000Y-39900001D01*
G75*
G02*
X87010001Y-40150000I-249999J0D01*
G01*
G37*
%TD.AperFunction*%
%TD*%
D16*
%TO.N,EN*%
X89312500Y-43680000D02*
X89555000Y-43680000D01*
X89219998Y-43680000D02*
X89555000Y-43680000D01*
X87179998Y-45720000D02*
X89219998Y-43680000D01*
X86002500Y-45720000D02*
X87179998Y-45720000D01*
%TO.N,+3V3*%
X74295000Y-43235000D02*
X76200000Y-41330000D01*
X74295000Y-51435000D02*
X74295000Y-43235000D01*
X76200000Y-53340000D02*
X74295000Y-51435000D01*
X74874999Y-40004999D02*
X76200000Y-41330000D01*
X74874999Y-36193999D02*
X74874999Y-40004999D01*
X84605000Y-41330000D02*
X86360000Y-39575000D01*
X82700000Y-41330000D02*
X84605000Y-41330000D01*
X84177500Y-42807500D02*
X82700000Y-41330000D01*
X84177500Y-45720000D02*
X84177500Y-42807500D01*
X78590000Y-53340000D02*
X79860000Y-54610000D01*
X76200000Y-53340000D02*
X78590000Y-53340000D01*
X79860000Y-54610000D02*
X86360000Y-54610000D01*
X88625000Y-54610000D02*
X89555000Y-53680000D01*
X86360000Y-54610000D02*
X88625000Y-54610000D01*
X114300000Y-41655002D02*
X114300000Y-38100000D01*
X111505002Y-44450000D02*
X114300000Y-41655002D01*
X109220000Y-44450000D02*
X111505002Y-44450000D01*
X111704999Y-35504999D02*
X114300000Y-38100000D01*
X75563999Y-35504999D02*
X111704999Y-35504999D01*
X74874999Y-36193999D02*
X75563999Y-35504999D01*
%TO.N,GND*%
X103255000Y-53680000D02*
X104755000Y-53680000D01*
X92429999Y-42854999D02*
X103255000Y-53680000D01*
X109220000Y-52070000D02*
X107950000Y-53340000D01*
X111760000Y-52070000D02*
X109220000Y-52070000D01*
X105095000Y-53340000D02*
X104755000Y-53680000D01*
X107950000Y-53340000D02*
X105095000Y-53340000D01*
X113030000Y-53340000D02*
X111760000Y-52070000D01*
X118110000Y-53340000D02*
X113030000Y-53340000D01*
X84678180Y-46745010D02*
X85164990Y-46258200D01*
X82305010Y-46745010D02*
X84678180Y-46745010D01*
X81280000Y-45720000D02*
X82305010Y-46745010D01*
X119285001Y-52164999D02*
X119285001Y-43720001D01*
X118110000Y-53340000D02*
X119285001Y-52164999D01*
X116840000Y-41275000D02*
X119285001Y-43720001D01*
X116840000Y-38100000D02*
X116840000Y-41275000D01*
X85164990Y-44652510D02*
X86360000Y-43457500D01*
X85164990Y-46258200D02*
X85164990Y-44652510D01*
X86962501Y-42854999D02*
X92429999Y-42854999D01*
X86360000Y-43457500D02*
X86962501Y-42854999D01*
%TO.N,IO15*%
X104920000Y-51515000D02*
X104755000Y-51680000D01*
X107950000Y-51515000D02*
X104920000Y-51515000D01*
%TO.N,IO0*%
X111760000Y-49570000D02*
X109260000Y-49570000D01*
X107370000Y-47680000D02*
X104755000Y-47680000D01*
X109260000Y-49570000D02*
X107370000Y-47680000D01*
%TO.N,RXD*%
X110584999Y-43085001D02*
X111760000Y-41910000D01*
X108655999Y-43085001D02*
X110584999Y-43085001D01*
X107250998Y-41680000D02*
X108655999Y-43085001D01*
X104755000Y-41680000D02*
X107250998Y-41680000D01*
X111760000Y-41910000D02*
X111760000Y-38100000D01*
%TO.N,TXD*%
X106335000Y-38100000D02*
X104755000Y-39680000D01*
X109220000Y-38100000D02*
X106335000Y-38100000D01*
X109220000Y-41910000D02*
X109220000Y-38100000D01*
%TO.N,Net-(R1-Pad2)*%
X110940000Y-46275000D02*
X111735000Y-47070000D01*
X109220000Y-46275000D02*
X110940000Y-46275000D01*
%TO.N,RST*%
X88947500Y-39680000D02*
X89555000Y-39680000D01*
X89415000Y-39680000D02*
X89555000Y-39680000D01*
X86360000Y-36625000D02*
X89415000Y-39680000D01*
X76200000Y-36830000D02*
X82700000Y-36830000D01*
X86155000Y-36830000D02*
X86360000Y-36625000D01*
X82700000Y-36830000D02*
X86155000Y-36830000D01*
X88312500Y-39680000D02*
X89555000Y-39680000D01*
X86360000Y-41632500D02*
X88312500Y-39680000D01*
%TO.N,IO12*%
X88659999Y-48784999D02*
X89555000Y-49680000D01*
X78215001Y-48784999D02*
X88659999Y-48784999D01*
X76200000Y-50800000D02*
X78215001Y-48784999D01*
%TO.N,IO14*%
X76200000Y-48260000D02*
X76200000Y-48411002D01*
X76780000Y-47680000D02*
X76200000Y-48260000D01*
X89555000Y-47680000D02*
X76780000Y-47680000D01*
%TO.N,IO16*%
X88489990Y-46745010D02*
X89555000Y-45680000D01*
X76200000Y-45720000D02*
X77225010Y-46745010D01*
X88154988Y-46745010D02*
X88489990Y-46745010D01*
X87704978Y-47195020D02*
X88154988Y-46745010D01*
X82118610Y-47195020D02*
X87704978Y-47195020D01*
X81668600Y-46745010D02*
X82118610Y-47195020D01*
X77225010Y-46745010D02*
X81668600Y-46745010D01*
%TO.N,IO2*%
X107640690Y-49680000D02*
X104755000Y-49680000D01*
X108760690Y-50800000D02*
X107640690Y-49680000D01*
X118110000Y-50800000D02*
X108760690Y-50800000D01*
%TO.N,IO4*%
X108835000Y-48260000D02*
X118110000Y-48260000D01*
X106255000Y-45680000D02*
X108835000Y-48260000D01*
X104755000Y-45680000D02*
X106255000Y-45680000D01*
%TO.N,IO5*%
X105090002Y-43680000D02*
X104755000Y-43680000D01*
X104755000Y-43680000D02*
X106924310Y-43680000D01*
X117827490Y-45437490D02*
X118110000Y-45720000D01*
X108681800Y-45437490D02*
X117827490Y-45437490D01*
X106924310Y-43680000D02*
X108681800Y-45437490D01*
%TO.N,IO13*%
X79455000Y-45720000D02*
X78185000Y-44450000D01*
X75184998Y-44450000D02*
X74930000Y-44704998D01*
X78185000Y-44450000D02*
X75184998Y-44450000D01*
X74930000Y-51269002D02*
X75635999Y-51975001D01*
X74930000Y-44704998D02*
X74930000Y-51269002D01*
X77994999Y-51975001D02*
X75635999Y-51975001D01*
X79860000Y-50110000D02*
X77994999Y-51975001D01*
X79860000Y-50110000D02*
X86360000Y-50110000D01*
X87930000Y-51680000D02*
X89555000Y-51680000D01*
X86360000Y-50110000D02*
X87930000Y-51680000D01*
%TD*%
M02*
