%TF.GenerationSoftware,KiCad,Pcbnew,(5.1.9-0-10_14)*%
%TF.CreationDate,2021-03-23T08:31:54+08:00*%
%TF.ProjectId,Kernel,4b65726e-656c-42e6-9b69-6361645f7063,rev?*%
%TF.SameCoordinates,Original*%
%TF.FileFunction,Legend,Bot*%
%TF.FilePolarity,Positive*%
%FSLAX46Y46*%
G04 Gerber Fmt 4.6, Leading zero omitted, Abs format (unit mm)*
G04 Created by KiCad (PCBNEW (5.1.9-0-10_14)) date 2021-03-23 08:31:54*
%MOMM*%
%LPD*%
G01*
G04 APERTURE LIST*
%ADD10C,0.120000*%
%ADD11C,0.100000*%
G04 APERTURE END LIST*
D10*
%TO.C,J4*%
X113090000Y-43240000D02*
X113090000Y-41910000D01*
X111760000Y-43240000D02*
X113090000Y-43240000D01*
X110490000Y-43240000D02*
X110490000Y-40580000D01*
X110490000Y-40580000D02*
X107890000Y-40580000D01*
X110490000Y-43240000D02*
X107890000Y-43240000D01*
X107890000Y-43240000D02*
X107890000Y-40580000D01*
%TO.C,J3*%
X119440000Y-44390000D02*
X118110000Y-44390000D01*
X119440000Y-45720000D02*
X119440000Y-44390000D01*
X119440000Y-46990000D02*
X116780000Y-46990000D01*
X116780000Y-46990000D02*
X116780000Y-54670000D01*
X119440000Y-46990000D02*
X119440000Y-54670000D01*
X119440000Y-54670000D02*
X116780000Y-54670000D01*
%TO.C,J2*%
X77530000Y-44390000D02*
X76200000Y-44390000D01*
X77530000Y-45720000D02*
X77530000Y-44390000D01*
X77530000Y-46990000D02*
X74870000Y-46990000D01*
X74870000Y-46990000D02*
X74870000Y-54670000D01*
X77530000Y-46990000D02*
X77530000Y-54670000D01*
X77530000Y-54670000D02*
X74870000Y-54670000D01*
%TO.C,J4*%
D11*
X111926666Y-43541190D02*
X111926666Y-43898333D01*
X111950476Y-43969761D01*
X111998095Y-44017380D01*
X112069523Y-44041190D01*
X112117142Y-44041190D01*
X111474285Y-43707857D02*
X111474285Y-44041190D01*
X111593333Y-43517380D02*
X111712380Y-43874523D01*
X111402857Y-43874523D01*
%TO.C,J3*%
X118276666Y-43541190D02*
X118276666Y-43898333D01*
X118300476Y-43969761D01*
X118348095Y-44017380D01*
X118419523Y-44041190D01*
X118467142Y-44041190D01*
X118086190Y-43541190D02*
X117776666Y-43541190D01*
X117943333Y-43731666D01*
X117871904Y-43731666D01*
X117824285Y-43755476D01*
X117800476Y-43779285D01*
X117776666Y-43826904D01*
X117776666Y-43945952D01*
X117800476Y-43993571D01*
X117824285Y-44017380D01*
X117871904Y-44041190D01*
X118014761Y-44041190D01*
X118062380Y-44017380D01*
X118086190Y-43993571D01*
%TO.C,J2*%
X76366666Y-43541190D02*
X76366666Y-43898333D01*
X76390476Y-43969761D01*
X76438095Y-44017380D01*
X76509523Y-44041190D01*
X76557142Y-44041190D01*
X76152380Y-43588809D02*
X76128571Y-43565000D01*
X76080952Y-43541190D01*
X75961904Y-43541190D01*
X75914285Y-43565000D01*
X75890476Y-43588809D01*
X75866666Y-43636428D01*
X75866666Y-43684047D01*
X75890476Y-43755476D01*
X76176190Y-44041190D01*
X75866666Y-44041190D01*
%TD*%
M02*
