M48
; DRILL file {KiCad (5.1.9-0-10_14)} date Tuesday, March 23, 2021 at 08:31:57 AM
; FORMAT={-:-/ absolute / inch / decimal}
; #@! TF.CreationDate,2021-03-23T08:31:57+08:00
; #@! TF.GenerationSoftware,Kicad,Pcbnew,(5.1.9-0-10_14)
; #@! TF.FileFunction,Plated,1,2,PTH
FMAT,2
INCH
T1C0.0157
T2C0.0315
T3C0.0394
T4C0.0433
%
G90
G05
T1
X3.3Y-1.715
T2
X4.399Y-1.8531
X4.399Y-1.9516
X4.399Y-2.05
X4.525Y-1.8531
X4.525Y-1.9516
X4.525Y-2.05
T3
X3.0Y-1.8
X3.0Y-1.9
X3.0Y-2.0
X3.0Y-2.1
X4.3Y-1.5
X4.3Y-1.65
X4.4Y-1.5
X4.4Y-1.65
X4.5Y-1.5
X4.6Y-1.5
X4.65Y-1.8
X4.65Y-1.9
X4.65Y-2.0
X4.65Y-2.1
T4
X3.0Y-1.45
X3.0Y-1.6272
X3.1441Y-1.9728
X3.1441Y-2.15
X3.2559Y-1.45
X3.2559Y-1.6272
X3.4Y-1.9728
X3.4Y-2.15
T0
M30
