%TF.GenerationSoftware,KiCad,Pcbnew,(5.1.9-0-10_14)*%
%TF.CreationDate,2021-03-22T12:23:30+08:00*%
%TF.ProjectId,Kernel,4b65726e-656c-42e6-9b69-6361645f7063,rev?*%
%TF.SameCoordinates,Original*%
%TF.FileFunction,Copper,L2,Bot*%
%TF.FilePolarity,Positive*%
%FSLAX46Y46*%
G04 Gerber Fmt 4.6, Leading zero omitted, Abs format (unit mm)*
G04 Created by KiCad (PCBNEW (5.1.9-0-10_14)) date 2021-03-22 12:23:30*
%MOMM*%
%LPD*%
G01*
G04 APERTURE LIST*
%TA.AperFunction,SMDPad,CuDef*%
%ADD10R,1.500000X2.000000*%
%TD*%
%TA.AperFunction,SMDPad,CuDef*%
%ADD11R,3.800000X2.000000*%
%TD*%
%TA.AperFunction,ComponentPad*%
%ADD12O,1.000000X2.100000*%
%TD*%
%TA.AperFunction,ComponentPad*%
%ADD13O,1.000000X1.600000*%
%TD*%
%TA.AperFunction,ComponentPad*%
%ADD14O,1.700000X1.700000*%
%TD*%
%TA.AperFunction,ComponentPad*%
%ADD15R,1.700000X1.700000*%
%TD*%
%TA.AperFunction,ComponentPad*%
%ADD16C,2.000000*%
%TD*%
%TA.AperFunction,ComponentPad*%
%ADD17C,1.600000*%
%TD*%
%TA.AperFunction,ComponentPad*%
%ADD18R,1.600000X1.600000*%
%TD*%
%TA.AperFunction,ViaPad*%
%ADD19C,0.800000*%
%TD*%
%TA.AperFunction,Conductor*%
%ADD20C,0.250000*%
%TD*%
G04 APERTURE END LIST*
D10*
%TO.P,U3,1*%
%TO.N,GND*%
X95490000Y-40030000D03*
%TO.P,U3,3*%
%TO.N,+5V*%
X100090000Y-40030000D03*
%TO.P,U3,2*%
%TO.N,+3V3*%
X97790000Y-40030000D03*
D11*
X97790000Y-46330000D03*
%TD*%
%TO.P,U2,16*%
%TO.N,+3V3*%
%TA.AperFunction,SMDPad,CuDef*%
G36*
G01*
X93195000Y-53570000D02*
X93495000Y-53570000D01*
G75*
G02*
X93645000Y-53720000I0J-150000D01*
G01*
X93645000Y-55370000D01*
G75*
G02*
X93495000Y-55520000I-150000J0D01*
G01*
X93195000Y-55520000D01*
G75*
G02*
X93045000Y-55370000I0J150000D01*
G01*
X93045000Y-53720000D01*
G75*
G02*
X93195000Y-53570000I150000J0D01*
G01*
G37*
%TD.AperFunction*%
%TO.P,U2,15*%
%TO.N,Net-(U2-Pad15)*%
%TA.AperFunction,SMDPad,CuDef*%
G36*
G01*
X94465000Y-53570000D02*
X94765000Y-53570000D01*
G75*
G02*
X94915000Y-53720000I0J-150000D01*
G01*
X94915000Y-55370000D01*
G75*
G02*
X94765000Y-55520000I-150000J0D01*
G01*
X94465000Y-55520000D01*
G75*
G02*
X94315000Y-55370000I0J150000D01*
G01*
X94315000Y-53720000D01*
G75*
G02*
X94465000Y-53570000I150000J0D01*
G01*
G37*
%TD.AperFunction*%
%TO.P,U2,14*%
%TO.N,Net-(U2-Pad14)*%
%TA.AperFunction,SMDPad,CuDef*%
G36*
G01*
X95735000Y-53570000D02*
X96035000Y-53570000D01*
G75*
G02*
X96185000Y-53720000I0J-150000D01*
G01*
X96185000Y-55370000D01*
G75*
G02*
X96035000Y-55520000I-150000J0D01*
G01*
X95735000Y-55520000D01*
G75*
G02*
X95585000Y-55370000I0J150000D01*
G01*
X95585000Y-53720000D01*
G75*
G02*
X95735000Y-53570000I150000J0D01*
G01*
G37*
%TD.AperFunction*%
%TO.P,U2,13*%
%TO.N,Net-(U2-Pad13)*%
%TA.AperFunction,SMDPad,CuDef*%
G36*
G01*
X97005000Y-53570000D02*
X97305000Y-53570000D01*
G75*
G02*
X97455000Y-53720000I0J-150000D01*
G01*
X97455000Y-55370000D01*
G75*
G02*
X97305000Y-55520000I-150000J0D01*
G01*
X97005000Y-55520000D01*
G75*
G02*
X96855000Y-55370000I0J150000D01*
G01*
X96855000Y-53720000D01*
G75*
G02*
X97005000Y-53570000I150000J0D01*
G01*
G37*
%TD.AperFunction*%
%TO.P,U2,12*%
%TO.N,Net-(U2-Pad12)*%
%TA.AperFunction,SMDPad,CuDef*%
G36*
G01*
X98275000Y-53570000D02*
X98575000Y-53570000D01*
G75*
G02*
X98725000Y-53720000I0J-150000D01*
G01*
X98725000Y-55370000D01*
G75*
G02*
X98575000Y-55520000I-150000J0D01*
G01*
X98275000Y-55520000D01*
G75*
G02*
X98125000Y-55370000I0J150000D01*
G01*
X98125000Y-53720000D01*
G75*
G02*
X98275000Y-53570000I150000J0D01*
G01*
G37*
%TD.AperFunction*%
%TO.P,U2,11*%
%TO.N,Net-(U2-Pad11)*%
%TA.AperFunction,SMDPad,CuDef*%
G36*
G01*
X99545000Y-53570000D02*
X99845000Y-53570000D01*
G75*
G02*
X99995000Y-53720000I0J-150000D01*
G01*
X99995000Y-55370000D01*
G75*
G02*
X99845000Y-55520000I-150000J0D01*
G01*
X99545000Y-55520000D01*
G75*
G02*
X99395000Y-55370000I0J150000D01*
G01*
X99395000Y-53720000D01*
G75*
G02*
X99545000Y-53570000I150000J0D01*
G01*
G37*
%TD.AperFunction*%
%TO.P,U2,10*%
%TO.N,Net-(U2-Pad10)*%
%TA.AperFunction,SMDPad,CuDef*%
G36*
G01*
X100815000Y-53570000D02*
X101115000Y-53570000D01*
G75*
G02*
X101265000Y-53720000I0J-150000D01*
G01*
X101265000Y-55370000D01*
G75*
G02*
X101115000Y-55520000I-150000J0D01*
G01*
X100815000Y-55520000D01*
G75*
G02*
X100665000Y-55370000I0J150000D01*
G01*
X100665000Y-53720000D01*
G75*
G02*
X100815000Y-53570000I150000J0D01*
G01*
G37*
%TD.AperFunction*%
%TO.P,U2,9*%
%TO.N,Net-(U2-Pad9)*%
%TA.AperFunction,SMDPad,CuDef*%
G36*
G01*
X102085000Y-53570000D02*
X102385000Y-53570000D01*
G75*
G02*
X102535000Y-53720000I0J-150000D01*
G01*
X102535000Y-55370000D01*
G75*
G02*
X102385000Y-55520000I-150000J0D01*
G01*
X102085000Y-55520000D01*
G75*
G02*
X101935000Y-55370000I0J150000D01*
G01*
X101935000Y-53720000D01*
G75*
G02*
X102085000Y-53570000I150000J0D01*
G01*
G37*
%TD.AperFunction*%
%TO.P,U2,8*%
%TO.N,Net-(U2-Pad8)*%
%TA.AperFunction,SMDPad,CuDef*%
G36*
G01*
X102085000Y-48620000D02*
X102385000Y-48620000D01*
G75*
G02*
X102535000Y-48770000I0J-150000D01*
G01*
X102535000Y-50420000D01*
G75*
G02*
X102385000Y-50570000I-150000J0D01*
G01*
X102085000Y-50570000D01*
G75*
G02*
X101935000Y-50420000I0J150000D01*
G01*
X101935000Y-48770000D01*
G75*
G02*
X102085000Y-48620000I150000J0D01*
G01*
G37*
%TD.AperFunction*%
%TO.P,U2,7*%
%TO.N,Net-(U2-Pad7)*%
%TA.AperFunction,SMDPad,CuDef*%
G36*
G01*
X100815000Y-48620000D02*
X101115000Y-48620000D01*
G75*
G02*
X101265000Y-48770000I0J-150000D01*
G01*
X101265000Y-50420000D01*
G75*
G02*
X101115000Y-50570000I-150000J0D01*
G01*
X100815000Y-50570000D01*
G75*
G02*
X100665000Y-50420000I0J150000D01*
G01*
X100665000Y-48770000D01*
G75*
G02*
X100815000Y-48620000I150000J0D01*
G01*
G37*
%TD.AperFunction*%
%TO.P,U2,6*%
%TO.N,Net-(J1-PadA7)*%
%TA.AperFunction,SMDPad,CuDef*%
G36*
G01*
X99545000Y-48620000D02*
X99845000Y-48620000D01*
G75*
G02*
X99995000Y-48770000I0J-150000D01*
G01*
X99995000Y-50420000D01*
G75*
G02*
X99845000Y-50570000I-150000J0D01*
G01*
X99545000Y-50570000D01*
G75*
G02*
X99395000Y-50420000I0J150000D01*
G01*
X99395000Y-48770000D01*
G75*
G02*
X99545000Y-48620000I150000J0D01*
G01*
G37*
%TD.AperFunction*%
%TO.P,U2,5*%
%TO.N,Net-(J1-PadA6)*%
%TA.AperFunction,SMDPad,CuDef*%
G36*
G01*
X98275000Y-48620000D02*
X98575000Y-48620000D01*
G75*
G02*
X98725000Y-48770000I0J-150000D01*
G01*
X98725000Y-50420000D01*
G75*
G02*
X98575000Y-50570000I-150000J0D01*
G01*
X98275000Y-50570000D01*
G75*
G02*
X98125000Y-50420000I0J150000D01*
G01*
X98125000Y-48770000D01*
G75*
G02*
X98275000Y-48620000I150000J0D01*
G01*
G37*
%TD.AperFunction*%
%TO.P,U2,4*%
%TO.N,+3V3*%
%TA.AperFunction,SMDPad,CuDef*%
G36*
G01*
X97005000Y-48620000D02*
X97305000Y-48620000D01*
G75*
G02*
X97455000Y-48770000I0J-150000D01*
G01*
X97455000Y-50420000D01*
G75*
G02*
X97305000Y-50570000I-150000J0D01*
G01*
X97005000Y-50570000D01*
G75*
G02*
X96855000Y-50420000I0J150000D01*
G01*
X96855000Y-48770000D01*
G75*
G02*
X97005000Y-48620000I150000J0D01*
G01*
G37*
%TD.AperFunction*%
%TO.P,U2,3*%
%TO.N,RXD*%
%TA.AperFunction,SMDPad,CuDef*%
G36*
G01*
X95735000Y-48620000D02*
X96035000Y-48620000D01*
G75*
G02*
X96185000Y-48770000I0J-150000D01*
G01*
X96185000Y-50420000D01*
G75*
G02*
X96035000Y-50570000I-150000J0D01*
G01*
X95735000Y-50570000D01*
G75*
G02*
X95585000Y-50420000I0J150000D01*
G01*
X95585000Y-48770000D01*
G75*
G02*
X95735000Y-48620000I150000J0D01*
G01*
G37*
%TD.AperFunction*%
%TO.P,U2,2*%
%TO.N,TXD*%
%TA.AperFunction,SMDPad,CuDef*%
G36*
G01*
X94465000Y-48620000D02*
X94765000Y-48620000D01*
G75*
G02*
X94915000Y-48770000I0J-150000D01*
G01*
X94915000Y-50420000D01*
G75*
G02*
X94765000Y-50570000I-150000J0D01*
G01*
X94465000Y-50570000D01*
G75*
G02*
X94315000Y-50420000I0J150000D01*
G01*
X94315000Y-48770000D01*
G75*
G02*
X94465000Y-48620000I150000J0D01*
G01*
G37*
%TD.AperFunction*%
%TO.P,U2,1*%
%TO.N,GND*%
%TA.AperFunction,SMDPad,CuDef*%
G36*
G01*
X93195000Y-48620000D02*
X93495000Y-48620000D01*
G75*
G02*
X93645000Y-48770000I0J-150000D01*
G01*
X93645000Y-50420000D01*
G75*
G02*
X93495000Y-50570000I-150000J0D01*
G01*
X93195000Y-50570000D01*
G75*
G02*
X93045000Y-50420000I0J150000D01*
G01*
X93045000Y-48770000D01*
G75*
G02*
X93195000Y-48620000I150000J0D01*
G01*
G37*
%TD.AperFunction*%
%TD*%
D12*
%TO.P,J1,S1*%
%TO.N,GND*%
X109345000Y-36785000D03*
X117985000Y-36785000D03*
D13*
X117985000Y-32605000D03*
X109345000Y-32605000D03*
%TD*%
%TO.P,C3,2*%
%TO.N,GND*%
%TA.AperFunction,SMDPad,CuDef*%
G36*
G01*
X93360001Y-40375000D02*
X92059999Y-40375000D01*
G75*
G02*
X91810000Y-40125001I0J249999D01*
G01*
X91810000Y-39474999D01*
G75*
G02*
X92059999Y-39225000I249999J0D01*
G01*
X93360001Y-39225000D01*
G75*
G02*
X93610000Y-39474999I0J-249999D01*
G01*
X93610000Y-40125001D01*
G75*
G02*
X93360001Y-40375000I-249999J0D01*
G01*
G37*
%TD.AperFunction*%
%TO.P,C3,1*%
%TO.N,+3V3*%
%TA.AperFunction,SMDPad,CuDef*%
G36*
G01*
X93360001Y-43325000D02*
X92059999Y-43325000D01*
G75*
G02*
X91810000Y-43075001I0J249999D01*
G01*
X91810000Y-42424999D01*
G75*
G02*
X92059999Y-42175000I249999J0D01*
G01*
X93360001Y-42175000D01*
G75*
G02*
X93610000Y-42424999I0J-249999D01*
G01*
X93610000Y-43075001D01*
G75*
G02*
X93360001Y-43325000I-249999J0D01*
G01*
G37*
%TD.AperFunction*%
%TD*%
%TO.P,C2,2*%
%TO.N,GND*%
%TA.AperFunction,SMDPad,CuDef*%
G36*
G01*
X102219999Y-42175000D02*
X103520001Y-42175000D01*
G75*
G02*
X103770000Y-42424999I0J-249999D01*
G01*
X103770000Y-43075001D01*
G75*
G02*
X103520001Y-43325000I-249999J0D01*
G01*
X102219999Y-43325000D01*
G75*
G02*
X101970000Y-43075001I0J249999D01*
G01*
X101970000Y-42424999D01*
G75*
G02*
X102219999Y-42175000I249999J0D01*
G01*
G37*
%TD.AperFunction*%
%TO.P,C2,1*%
%TO.N,+5V*%
%TA.AperFunction,SMDPad,CuDef*%
G36*
G01*
X102219999Y-39225000D02*
X103520001Y-39225000D01*
G75*
G02*
X103770000Y-39474999I0J-249999D01*
G01*
X103770000Y-40125001D01*
G75*
G02*
X103520001Y-40375000I-249999J0D01*
G01*
X102219999Y-40375000D01*
G75*
G02*
X101970000Y-40125001I0J249999D01*
G01*
X101970000Y-39474999D01*
G75*
G02*
X102219999Y-39225000I249999J0D01*
G01*
G37*
%TD.AperFunction*%
%TD*%
D14*
%TO.P,J4,2*%
%TO.N,TXD*%
X109220000Y-41910000D03*
D15*
%TO.P,J4,1*%
%TO.N,RXD*%
X111760000Y-41910000D03*
%TD*%
D16*
%TO.P,SW3,1*%
%TO.N,+3V3*%
X79860000Y-54610000D03*
%TO.P,SW3,2*%
%TO.N,IO13*%
X79860000Y-50110000D03*
%TO.P,SW3,1*%
%TO.N,+3V3*%
X86360000Y-54610000D03*
%TO.P,SW3,2*%
%TO.N,IO13*%
X86360000Y-50110000D03*
%TD*%
%TO.P,SW2,1*%
%TO.N,RST*%
X82700000Y-36830000D03*
%TO.P,SW2,2*%
%TO.N,+3V3*%
X82700000Y-41330000D03*
%TO.P,SW2,1*%
%TO.N,RST*%
X76200000Y-36830000D03*
%TO.P,SW2,2*%
%TO.N,+3V3*%
X76200000Y-41330000D03*
%TD*%
D14*
%TO.P,J3,4*%
%TO.N,GND*%
X118110000Y-53340000D03*
%TO.P,J3,3*%
%TO.N,IO2*%
X118110000Y-50800000D03*
%TO.P,J3,2*%
%TO.N,IO4*%
X118110000Y-48260000D03*
D15*
%TO.P,J3,1*%
%TO.N,IO5*%
X118110000Y-45720000D03*
%TD*%
D14*
%TO.P,J2,4*%
%TO.N,+3V3*%
X76200000Y-53340000D03*
%TO.P,J2,3*%
%TO.N,IO12*%
X76200000Y-50800000D03*
%TO.P,J2,2*%
%TO.N,IO14*%
X76200000Y-48260000D03*
D15*
%TO.P,J2,1*%
%TO.N,IO16*%
X76200000Y-45720000D03*
%TD*%
D17*
%TO.P,SW1,6*%
%TO.N,N/C*%
X114935000Y-47070000D03*
%TO.P,SW1,5*%
X114935000Y-49570000D03*
%TO.P,SW1,4*%
X114935000Y-52070000D03*
%TO.P,SW1,3*%
%TO.N,Net-(R1-Pad2)*%
X111735000Y-47070000D03*
%TO.P,SW1,2*%
%TO.N,IO0*%
X111735000Y-49570000D03*
D18*
%TO.P,SW1,1*%
%TO.N,GND*%
X111735000Y-52070000D03*
%TD*%
D19*
%TO.N,+3V3*%
X107950000Y-45085000D03*
%TO.N,GND*%
X93345000Y-51435000D03*
X102235000Y-44450000D03*
X88265000Y-42545000D03*
%TO.N,RXD*%
X95885000Y-51435000D03*
%TO.N,TXD*%
X94615000Y-51435000D03*
%TO.N,IO13*%
X79375000Y-46990000D03*
%TO.N,+5V*%
X107315000Y-38100000D03*
%TO.N,Net-(J1-PadA7)*%
X115570000Y-39370000D03*
%TO.N,Net-(J1-PadA6)*%
X110490000Y-39370000D03*
%TD*%
D20*
%TO.N,+3V3*%
X86425000Y-54545000D02*
X86360000Y-54610000D01*
X93345000Y-54545000D02*
X86425000Y-54545000D01*
X94210000Y-42750000D02*
X97790000Y-46330000D01*
X92710000Y-42750000D02*
X94210000Y-42750000D01*
X97790000Y-46330000D02*
X97790000Y-47625000D01*
X97155000Y-48260000D02*
X97155000Y-49595000D01*
X97790000Y-47625000D02*
X97155000Y-48260000D01*
X93345000Y-53340000D02*
X93345000Y-54545000D01*
X93440010Y-53244990D02*
X93345000Y-53340000D01*
X95148012Y-53244990D02*
X93440010Y-53244990D01*
X97155000Y-49595000D02*
X97155000Y-51238002D01*
X95070000Y-42750000D02*
X97790000Y-40030000D01*
X94210000Y-42750000D02*
X95070000Y-42750000D01*
X107950000Y-45526768D02*
X107950000Y-45085000D01*
X100870267Y-52606501D02*
X107950000Y-45526768D01*
X95786501Y-52606501D02*
X100870267Y-52606501D01*
X97155000Y-51238002D02*
X95786501Y-52606501D01*
X95786501Y-52606501D02*
X95148012Y-53244990D01*
X82700000Y-50950000D02*
X86360000Y-54610000D01*
X82700000Y-41330000D02*
X82700000Y-50950000D01*
%TO.N,GND*%
X95260000Y-39800000D02*
X95490000Y-40030000D01*
X92710000Y-39800000D02*
X95260000Y-39800000D01*
X89965000Y-42545000D02*
X92710000Y-39800000D01*
X88265000Y-42545000D02*
X89965000Y-42545000D01*
X93345000Y-45925000D02*
X89965000Y-42545000D01*
X93345000Y-49595000D02*
X93345000Y-45925000D01*
X95490000Y-38780000D02*
X96170000Y-38100000D01*
X95490000Y-40030000D02*
X95490000Y-38780000D01*
X96170000Y-38100000D02*
X105410000Y-38100000D01*
X105410000Y-38100000D02*
X106725000Y-36785000D01*
X106725000Y-36785000D02*
X109345000Y-36785000D01*
X109345000Y-34165000D02*
X109345000Y-32605000D01*
X106725000Y-36785000D02*
X109345000Y-34165000D01*
X102235000Y-43385000D02*
X102870000Y-42750000D01*
X102235000Y-44450000D02*
X102235000Y-43385000D01*
X93345000Y-51435000D02*
X93345000Y-49595000D01*
%TO.N,RXD*%
X95885000Y-49595000D02*
X95885000Y-51435000D01*
%TO.N,TXD*%
X94615000Y-49595000D02*
X94615000Y-51435000D01*
%TO.N,IO13*%
X79860000Y-47475000D02*
X79375000Y-46990000D01*
X79860000Y-50110000D02*
X79860000Y-47475000D01*
%TO.N,+5V*%
X100320000Y-39800000D02*
X100090000Y-40030000D01*
X102870000Y-39800000D02*
X100320000Y-39800000D01*
X105615000Y-39800000D02*
X102870000Y-39800000D01*
X107315000Y-38100000D02*
X105615000Y-39800000D01*
%TO.N,Net-(J1-PadA7)*%
X114844999Y-40095001D02*
X115570000Y-39370000D01*
X108219999Y-40095001D02*
X114844999Y-40095001D01*
X99695000Y-48620000D02*
X108219999Y-40095001D01*
X99695000Y-49595000D02*
X99695000Y-48620000D01*
%TO.N,Net-(J1-PadA6)*%
X108273232Y-39370000D02*
X98425000Y-49218232D01*
X98425000Y-49218232D02*
X98425000Y-49595000D01*
X110490000Y-39370000D02*
X108273232Y-39370000D01*
%TD*%
M02*
