%TF.GenerationSoftware,KiCad,Pcbnew,(5.1.9-0-10_14)*%
%TF.CreationDate,2021-03-22T12:23:30+08:00*%
%TF.ProjectId,Kernel,4b65726e-656c-42e6-9b69-6361645f7063,rev?*%
%TF.SameCoordinates,Original*%
%TF.FileFunction,Paste,Top*%
%TF.FilePolarity,Positive*%
%FSLAX46Y46*%
G04 Gerber Fmt 4.6, Leading zero omitted, Abs format (unit mm)*
G04 Created by KiCad (PCBNEW (5.1.9-0-10_14)) date 2021-03-22 12:23:30*
%MOMM*%
%LPD*%
G01*
G04 APERTURE LIST*
%ADD10R,2.500000X1.000000*%
%ADD11R,0.600000X1.450000*%
%ADD12R,0.300000X1.450000*%
G04 APERTURE END LIST*
D10*
%TO.C,U1*%
X105390000Y-39680000D03*
X105390000Y-41680000D03*
X105390000Y-43680000D03*
X105390000Y-45680000D03*
X105390000Y-47680000D03*
X105390000Y-49680000D03*
X105390000Y-51680000D03*
X105390000Y-53680000D03*
X90190000Y-53680000D03*
X90190000Y-51680000D03*
X90190000Y-49680000D03*
X90190000Y-47680000D03*
X90190000Y-45680000D03*
X90190000Y-43680000D03*
X90190000Y-41680000D03*
X90190000Y-39680000D03*
%TD*%
D11*
%TO.C,J1*%
X110415000Y-37700000D03*
X111215000Y-37700000D03*
X116115000Y-37700000D03*
X116915000Y-37700000D03*
X116915000Y-37700000D03*
X116115000Y-37700000D03*
X111215000Y-37700000D03*
X110415000Y-37700000D03*
D12*
X115415000Y-37700000D03*
X114915000Y-37700000D03*
X114415000Y-37700000D03*
X113415000Y-37700000D03*
X112915000Y-37700000D03*
X112415000Y-37700000D03*
X111915000Y-37700000D03*
X113915000Y-37700000D03*
%TD*%
%TO.C,R5*%
G36*
G01*
X79967500Y-45269998D02*
X79967500Y-46170002D01*
G75*
G02*
X79717502Y-46420000I-249998J0D01*
G01*
X79192498Y-46420000D01*
G75*
G02*
X78942500Y-46170002I0J249998D01*
G01*
X78942500Y-45269998D01*
G75*
G02*
X79192498Y-45020000I249998J0D01*
G01*
X79717502Y-45020000D01*
G75*
G02*
X79967500Y-45269998I0J-249998D01*
G01*
G37*
G36*
G01*
X81792500Y-45269998D02*
X81792500Y-46170002D01*
G75*
G02*
X81542502Y-46420000I-249998J0D01*
G01*
X81017498Y-46420000D01*
G75*
G02*
X80767500Y-46170002I0J249998D01*
G01*
X80767500Y-45269998D01*
G75*
G02*
X81017498Y-45020000I249998J0D01*
G01*
X81542502Y-45020000D01*
G75*
G02*
X81792500Y-45269998I0J-249998D01*
G01*
G37*
%TD*%
%TO.C,R4*%
G36*
G01*
X85909998Y-42945000D02*
X86810002Y-42945000D01*
G75*
G02*
X87060000Y-43194998I0J-249998D01*
G01*
X87060000Y-43720002D01*
G75*
G02*
X86810002Y-43970000I-249998J0D01*
G01*
X85909998Y-43970000D01*
G75*
G02*
X85660000Y-43720002I0J249998D01*
G01*
X85660000Y-43194998D01*
G75*
G02*
X85909998Y-42945000I249998J0D01*
G01*
G37*
G36*
G01*
X85909998Y-41120000D02*
X86810002Y-41120000D01*
G75*
G02*
X87060000Y-41369998I0J-249998D01*
G01*
X87060000Y-41895002D01*
G75*
G02*
X86810002Y-42145000I-249998J0D01*
G01*
X85909998Y-42145000D01*
G75*
G02*
X85660000Y-41895002I0J249998D01*
G01*
X85660000Y-41369998D01*
G75*
G02*
X85909998Y-41120000I249998J0D01*
G01*
G37*
%TD*%
%TO.C,R3*%
G36*
G01*
X85490000Y-46170002D02*
X85490000Y-45269998D01*
G75*
G02*
X85739998Y-45020000I249998J0D01*
G01*
X86265002Y-45020000D01*
G75*
G02*
X86515000Y-45269998I0J-249998D01*
G01*
X86515000Y-46170002D01*
G75*
G02*
X86265002Y-46420000I-249998J0D01*
G01*
X85739998Y-46420000D01*
G75*
G02*
X85490000Y-46170002I0J249998D01*
G01*
G37*
G36*
G01*
X83665000Y-46170002D02*
X83665000Y-45269998D01*
G75*
G02*
X83914998Y-45020000I249998J0D01*
G01*
X84440002Y-45020000D01*
G75*
G02*
X84690000Y-45269998I0J-249998D01*
G01*
X84690000Y-46170002D01*
G75*
G02*
X84440002Y-46420000I-249998J0D01*
G01*
X83914998Y-46420000D01*
G75*
G02*
X83665000Y-46170002I0J249998D01*
G01*
G37*
%TD*%
%TO.C,R2*%
G36*
G01*
X108400002Y-52027500D02*
X107499998Y-52027500D01*
G75*
G02*
X107250000Y-51777502I0J249998D01*
G01*
X107250000Y-51252498D01*
G75*
G02*
X107499998Y-51002500I249998J0D01*
G01*
X108400002Y-51002500D01*
G75*
G02*
X108650000Y-51252498I0J-249998D01*
G01*
X108650000Y-51777502D01*
G75*
G02*
X108400002Y-52027500I-249998J0D01*
G01*
G37*
G36*
G01*
X108400002Y-53852500D02*
X107499998Y-53852500D01*
G75*
G02*
X107250000Y-53602502I0J249998D01*
G01*
X107250000Y-53077498D01*
G75*
G02*
X107499998Y-52827500I249998J0D01*
G01*
X108400002Y-52827500D01*
G75*
G02*
X108650000Y-53077498I0J-249998D01*
G01*
X108650000Y-53602502D01*
G75*
G02*
X108400002Y-53852500I-249998J0D01*
G01*
G37*
%TD*%
%TO.C,R1*%
G36*
G01*
X108769998Y-46477500D02*
X109670002Y-46477500D01*
G75*
G02*
X109920000Y-46727498I0J-249998D01*
G01*
X109920000Y-47252502D01*
G75*
G02*
X109670002Y-47502500I-249998J0D01*
G01*
X108769998Y-47502500D01*
G75*
G02*
X108520000Y-47252502I0J249998D01*
G01*
X108520000Y-46727498D01*
G75*
G02*
X108769998Y-46477500I249998J0D01*
G01*
G37*
G36*
G01*
X108769998Y-44652500D02*
X109670002Y-44652500D01*
G75*
G02*
X109920000Y-44902498I0J-249998D01*
G01*
X109920000Y-45427502D01*
G75*
G02*
X109670002Y-45677500I-249998J0D01*
G01*
X108769998Y-45677500D01*
G75*
G02*
X108520000Y-45427502I0J249998D01*
G01*
X108520000Y-44902498D01*
G75*
G02*
X108769998Y-44652500I249998J0D01*
G01*
G37*
%TD*%
%TO.C,C1*%
G36*
G01*
X87010001Y-37200000D02*
X85709999Y-37200000D01*
G75*
G02*
X85460000Y-36950001I0J249999D01*
G01*
X85460000Y-36299999D01*
G75*
G02*
X85709999Y-36050000I249999J0D01*
G01*
X87010001Y-36050000D01*
G75*
G02*
X87260000Y-36299999I0J-249999D01*
G01*
X87260000Y-36950001D01*
G75*
G02*
X87010001Y-37200000I-249999J0D01*
G01*
G37*
G36*
G01*
X87010001Y-40150000D02*
X85709999Y-40150000D01*
G75*
G02*
X85460000Y-39900001I0J249999D01*
G01*
X85460000Y-39249999D01*
G75*
G02*
X85709999Y-39000000I249999J0D01*
G01*
X87010001Y-39000000D01*
G75*
G02*
X87260000Y-39249999I0J-249999D01*
G01*
X87260000Y-39900001D01*
G75*
G02*
X87010001Y-40150000I-249999J0D01*
G01*
G37*
%TD*%
M02*
