%TF.GenerationSoftware,KiCad,Pcbnew,(5.1.9-0-10_14)*%
%TF.CreationDate,2021-03-22T12:23:30+08:00*%
%TF.ProjectId,Kernel,4b65726e-656c-42e6-9b69-6361645f7063,rev?*%
%TF.SameCoordinates,Original*%
%TF.FileFunction,Copper,L1,Top*%
%TF.FilePolarity,Positive*%
%FSLAX46Y46*%
G04 Gerber Fmt 4.6, Leading zero omitted, Abs format (unit mm)*
G04 Created by KiCad (PCBNEW (5.1.9-0-10_14)) date 2021-03-22 12:23:30*
%MOMM*%
%LPD*%
G01*
G04 APERTURE LIST*
%TA.AperFunction,SMDPad,CuDef*%
%ADD10R,2.500000X1.000000*%
%TD*%
%TA.AperFunction,SMDPad,CuDef*%
%ADD11R,0.600000X1.450000*%
%TD*%
%TA.AperFunction,SMDPad,CuDef*%
%ADD12R,0.300000X1.450000*%
%TD*%
%TA.AperFunction,ComponentPad*%
%ADD13O,1.000000X2.100000*%
%TD*%
%TA.AperFunction,ComponentPad*%
%ADD14O,1.000000X1.600000*%
%TD*%
%TA.AperFunction,ComponentPad*%
%ADD15O,1.700000X1.700000*%
%TD*%
%TA.AperFunction,ComponentPad*%
%ADD16R,1.700000X1.700000*%
%TD*%
%TA.AperFunction,ComponentPad*%
%ADD17C,2.000000*%
%TD*%
%TA.AperFunction,ComponentPad*%
%ADD18C,1.600000*%
%TD*%
%TA.AperFunction,ComponentPad*%
%ADD19R,1.600000X1.600000*%
%TD*%
%TA.AperFunction,ViaPad*%
%ADD20C,0.800000*%
%TD*%
%TA.AperFunction,Conductor*%
%ADD21C,0.250000*%
%TD*%
G04 APERTURE END LIST*
D10*
%TO.P,U1,16*%
%TO.N,TXD*%
X105390000Y-39680000D03*
%TO.P,U1,15*%
%TO.N,RXD*%
X105390000Y-41680000D03*
%TO.P,U1,14*%
%TO.N,IO5*%
X105390000Y-43680000D03*
%TO.P,U1,13*%
%TO.N,IO4*%
X105390000Y-45680000D03*
%TO.P,U1,12*%
%TO.N,IO0*%
X105390000Y-47680000D03*
%TO.P,U1,11*%
%TO.N,IO2*%
X105390000Y-49680000D03*
%TO.P,U1,10*%
%TO.N,IO15*%
X105390000Y-51680000D03*
%TO.P,U1,9*%
%TO.N,GND*%
X105390000Y-53680000D03*
%TO.P,U1,8*%
%TO.N,+3V3*%
X90190000Y-53680000D03*
%TO.P,U1,7*%
%TO.N,IO13*%
X90190000Y-51680000D03*
%TO.P,U1,6*%
%TO.N,IO12*%
X90190000Y-49680000D03*
%TO.P,U1,5*%
%TO.N,IO14*%
X90190000Y-47680000D03*
%TO.P,U1,4*%
%TO.N,IO16*%
X90190000Y-45680000D03*
%TO.P,U1,3*%
%TO.N,EN*%
X90190000Y-43680000D03*
%TO.P,U1,2*%
%TO.N,Net-(U1-Pad2)*%
X90190000Y-41680000D03*
%TO.P,U1,1*%
%TO.N,RST*%
X90190000Y-39680000D03*
%TD*%
D11*
%TO.P,J1,B1*%
%TO.N,GND*%
X110415000Y-37700000D03*
%TO.P,J1,A9*%
%TO.N,+5V*%
X111215000Y-37700000D03*
%TO.P,J1,B9*%
X116115000Y-37700000D03*
%TO.P,J1,B12*%
%TO.N,GND*%
X116915000Y-37700000D03*
%TO.P,J1,A1*%
X116915000Y-37700000D03*
%TO.P,J1,A4*%
%TO.N,+5V*%
X116115000Y-37700000D03*
%TO.P,J1,B4*%
X111215000Y-37700000D03*
%TO.P,J1,A12*%
%TO.N,GND*%
X110415000Y-37700000D03*
D12*
%TO.P,J1,B8*%
%TO.N,Net-(J1-PadB8)*%
X115415000Y-37700000D03*
%TO.P,J1,A5*%
%TO.N,Net-(J1-PadA5)*%
X114915000Y-37700000D03*
%TO.P,J1,B7*%
%TO.N,Net-(J1-PadA7)*%
X114415000Y-37700000D03*
%TO.P,J1,A7*%
X113415000Y-37700000D03*
%TO.P,J1,B6*%
%TO.N,Net-(J1-PadA6)*%
X112915000Y-37700000D03*
%TO.P,J1,A8*%
%TO.N,Net-(J1-PadA8)*%
X112415000Y-37700000D03*
%TO.P,J1,B5*%
%TO.N,Net-(J1-PadB5)*%
X111915000Y-37700000D03*
%TO.P,J1,A6*%
%TO.N,Net-(J1-PadA6)*%
X113915000Y-37700000D03*
D13*
%TO.P,J1,S1*%
%TO.N,GND*%
X109345000Y-36785000D03*
X117985000Y-36785000D03*
D14*
X117985000Y-32605000D03*
X109345000Y-32605000D03*
%TD*%
D15*
%TO.P,J4,2*%
%TO.N,TXD*%
X109220000Y-41910000D03*
D16*
%TO.P,J4,1*%
%TO.N,RXD*%
X111760000Y-41910000D03*
%TD*%
D17*
%TO.P,SW3,1*%
%TO.N,+3V3*%
X79860000Y-54610000D03*
%TO.P,SW3,2*%
%TO.N,IO13*%
X79860000Y-50110000D03*
%TO.P,SW3,1*%
%TO.N,+3V3*%
X86360000Y-54610000D03*
%TO.P,SW3,2*%
%TO.N,IO13*%
X86360000Y-50110000D03*
%TD*%
%TO.P,SW2,1*%
%TO.N,RST*%
X82700000Y-36830000D03*
%TO.P,SW2,2*%
%TO.N,+3V3*%
X82700000Y-41330000D03*
%TO.P,SW2,1*%
%TO.N,RST*%
X76200000Y-36830000D03*
%TO.P,SW2,2*%
%TO.N,+3V3*%
X76200000Y-41330000D03*
%TD*%
%TO.P,R5,2*%
%TO.N,IO13*%
%TA.AperFunction,SMDPad,CuDef*%
G36*
G01*
X79967500Y-45269998D02*
X79967500Y-46170002D01*
G75*
G02*
X79717502Y-46420000I-249998J0D01*
G01*
X79192498Y-46420000D01*
G75*
G02*
X78942500Y-46170002I0J249998D01*
G01*
X78942500Y-45269998D01*
G75*
G02*
X79192498Y-45020000I249998J0D01*
G01*
X79717502Y-45020000D01*
G75*
G02*
X79967500Y-45269998I0J-249998D01*
G01*
G37*
%TD.AperFunction*%
%TO.P,R5,1*%
%TO.N,GND*%
%TA.AperFunction,SMDPad,CuDef*%
G36*
G01*
X81792500Y-45269998D02*
X81792500Y-46170002D01*
G75*
G02*
X81542502Y-46420000I-249998J0D01*
G01*
X81017498Y-46420000D01*
G75*
G02*
X80767500Y-46170002I0J249998D01*
G01*
X80767500Y-45269998D01*
G75*
G02*
X81017498Y-45020000I249998J0D01*
G01*
X81542502Y-45020000D01*
G75*
G02*
X81792500Y-45269998I0J-249998D01*
G01*
G37*
%TD.AperFunction*%
%TD*%
D15*
%TO.P,J3,4*%
%TO.N,GND*%
X118110000Y-53340000D03*
%TO.P,J3,3*%
%TO.N,IO2*%
X118110000Y-50800000D03*
%TO.P,J3,2*%
%TO.N,IO4*%
X118110000Y-48260000D03*
D16*
%TO.P,J3,1*%
%TO.N,IO5*%
X118110000Y-45720000D03*
%TD*%
D15*
%TO.P,J2,4*%
%TO.N,+3V3*%
X76200000Y-53340000D03*
%TO.P,J2,3*%
%TO.N,IO12*%
X76200000Y-50800000D03*
%TO.P,J2,2*%
%TO.N,IO14*%
X76200000Y-48260000D03*
D16*
%TO.P,J2,1*%
%TO.N,IO16*%
X76200000Y-45720000D03*
%TD*%
D18*
%TO.P,SW1,6*%
%TO.N,N/C*%
X114935000Y-47070000D03*
%TO.P,SW1,5*%
X114935000Y-49570000D03*
%TO.P,SW1,4*%
X114935000Y-52070000D03*
%TO.P,SW1,3*%
%TO.N,Net-(R1-Pad2)*%
X111735000Y-47070000D03*
%TO.P,SW1,2*%
%TO.N,IO0*%
X111735000Y-49570000D03*
D19*
%TO.P,SW1,1*%
%TO.N,GND*%
X111735000Y-52070000D03*
%TD*%
%TO.P,R4,2*%
%TO.N,GND*%
%TA.AperFunction,SMDPad,CuDef*%
G36*
G01*
X85909998Y-42945000D02*
X86810002Y-42945000D01*
G75*
G02*
X87060000Y-43194998I0J-249998D01*
G01*
X87060000Y-43720002D01*
G75*
G02*
X86810002Y-43970000I-249998J0D01*
G01*
X85909998Y-43970000D01*
G75*
G02*
X85660000Y-43720002I0J249998D01*
G01*
X85660000Y-43194998D01*
G75*
G02*
X85909998Y-42945000I249998J0D01*
G01*
G37*
%TD.AperFunction*%
%TO.P,R4,1*%
%TO.N,RST*%
%TA.AperFunction,SMDPad,CuDef*%
G36*
G01*
X85909998Y-41120000D02*
X86810002Y-41120000D01*
G75*
G02*
X87060000Y-41369998I0J-249998D01*
G01*
X87060000Y-41895002D01*
G75*
G02*
X86810002Y-42145000I-249998J0D01*
G01*
X85909998Y-42145000D01*
G75*
G02*
X85660000Y-41895002I0J249998D01*
G01*
X85660000Y-41369998D01*
G75*
G02*
X85909998Y-41120000I249998J0D01*
G01*
G37*
%TD.AperFunction*%
%TD*%
%TO.P,R3,2*%
%TO.N,EN*%
%TA.AperFunction,SMDPad,CuDef*%
G36*
G01*
X85490000Y-46170002D02*
X85490000Y-45269998D01*
G75*
G02*
X85739998Y-45020000I249998J0D01*
G01*
X86265002Y-45020000D01*
G75*
G02*
X86515000Y-45269998I0J-249998D01*
G01*
X86515000Y-46170002D01*
G75*
G02*
X86265002Y-46420000I-249998J0D01*
G01*
X85739998Y-46420000D01*
G75*
G02*
X85490000Y-46170002I0J249998D01*
G01*
G37*
%TD.AperFunction*%
%TO.P,R3,1*%
%TO.N,+3V3*%
%TA.AperFunction,SMDPad,CuDef*%
G36*
G01*
X83665000Y-46170002D02*
X83665000Y-45269998D01*
G75*
G02*
X83914998Y-45020000I249998J0D01*
G01*
X84440002Y-45020000D01*
G75*
G02*
X84690000Y-45269998I0J-249998D01*
G01*
X84690000Y-46170002D01*
G75*
G02*
X84440002Y-46420000I-249998J0D01*
G01*
X83914998Y-46420000D01*
G75*
G02*
X83665000Y-46170002I0J249998D01*
G01*
G37*
%TD.AperFunction*%
%TD*%
%TO.P,R2,2*%
%TO.N,IO15*%
%TA.AperFunction,SMDPad,CuDef*%
G36*
G01*
X108400002Y-52027500D02*
X107499998Y-52027500D01*
G75*
G02*
X107250000Y-51777502I0J249998D01*
G01*
X107250000Y-51252498D01*
G75*
G02*
X107499998Y-51002500I249998J0D01*
G01*
X108400002Y-51002500D01*
G75*
G02*
X108650000Y-51252498I0J-249998D01*
G01*
X108650000Y-51777502D01*
G75*
G02*
X108400002Y-52027500I-249998J0D01*
G01*
G37*
%TD.AperFunction*%
%TO.P,R2,1*%
%TO.N,GND*%
%TA.AperFunction,SMDPad,CuDef*%
G36*
G01*
X108400002Y-53852500D02*
X107499998Y-53852500D01*
G75*
G02*
X107250000Y-53602502I0J249998D01*
G01*
X107250000Y-53077498D01*
G75*
G02*
X107499998Y-52827500I249998J0D01*
G01*
X108400002Y-52827500D01*
G75*
G02*
X108650000Y-53077498I0J-249998D01*
G01*
X108650000Y-53602502D01*
G75*
G02*
X108400002Y-53852500I-249998J0D01*
G01*
G37*
%TD.AperFunction*%
%TD*%
%TO.P,R1,2*%
%TO.N,Net-(R1-Pad2)*%
%TA.AperFunction,SMDPad,CuDef*%
G36*
G01*
X108769998Y-46477500D02*
X109670002Y-46477500D01*
G75*
G02*
X109920000Y-46727498I0J-249998D01*
G01*
X109920000Y-47252502D01*
G75*
G02*
X109670002Y-47502500I-249998J0D01*
G01*
X108769998Y-47502500D01*
G75*
G02*
X108520000Y-47252502I0J249998D01*
G01*
X108520000Y-46727498D01*
G75*
G02*
X108769998Y-46477500I249998J0D01*
G01*
G37*
%TD.AperFunction*%
%TO.P,R1,1*%
%TO.N,+3V3*%
%TA.AperFunction,SMDPad,CuDef*%
G36*
G01*
X108769998Y-44652500D02*
X109670002Y-44652500D01*
G75*
G02*
X109920000Y-44902498I0J-249998D01*
G01*
X109920000Y-45427502D01*
G75*
G02*
X109670002Y-45677500I-249998J0D01*
G01*
X108769998Y-45677500D01*
G75*
G02*
X108520000Y-45427502I0J249998D01*
G01*
X108520000Y-44902498D01*
G75*
G02*
X108769998Y-44652500I249998J0D01*
G01*
G37*
%TD.AperFunction*%
%TD*%
%TO.P,C1,2*%
%TO.N,RST*%
%TA.AperFunction,SMDPad,CuDef*%
G36*
G01*
X87010001Y-37200000D02*
X85709999Y-37200000D01*
G75*
G02*
X85460000Y-36950001I0J249999D01*
G01*
X85460000Y-36299999D01*
G75*
G02*
X85709999Y-36050000I249999J0D01*
G01*
X87010001Y-36050000D01*
G75*
G02*
X87260000Y-36299999I0J-249999D01*
G01*
X87260000Y-36950001D01*
G75*
G02*
X87010001Y-37200000I-249999J0D01*
G01*
G37*
%TD.AperFunction*%
%TO.P,C1,1*%
%TO.N,+3V3*%
%TA.AperFunction,SMDPad,CuDef*%
G36*
G01*
X87010001Y-40150000D02*
X85709999Y-40150000D01*
G75*
G02*
X85460000Y-39900001I0J249999D01*
G01*
X85460000Y-39249999D01*
G75*
G02*
X85709999Y-39000000I249999J0D01*
G01*
X87010001Y-39000000D01*
G75*
G02*
X87260000Y-39249999I0J-249999D01*
G01*
X87260000Y-39900001D01*
G75*
G02*
X87010001Y-40150000I-249999J0D01*
G01*
G37*
%TD.AperFunction*%
%TD*%
D20*
%TO.N,+3V3*%
X107950000Y-45085000D03*
%TO.N,GND*%
X93345000Y-51435000D03*
X102235000Y-44450000D03*
X88265000Y-42545000D03*
%TO.N,RXD*%
X95885000Y-51435000D03*
%TO.N,TXD*%
X94615000Y-51435000D03*
%TO.N,IO13*%
X79375000Y-46990000D03*
%TO.N,+5V*%
X107315000Y-38100000D03*
%TO.N,Net-(J1-PadA7)*%
X115570000Y-39370000D03*
%TO.N,Net-(J1-PadA6)*%
X110490000Y-39370000D03*
%TD*%
D21*
%TO.N,EN*%
X89312500Y-43680000D02*
X89555000Y-43680000D01*
X89219998Y-43680000D02*
X89555000Y-43680000D01*
X87179998Y-45720000D02*
X89219998Y-43680000D01*
X86002500Y-45720000D02*
X87179998Y-45720000D01*
%TO.N,+3V3*%
X84605000Y-41330000D02*
X86360000Y-39575000D01*
X82700000Y-41330000D02*
X84605000Y-41330000D01*
X84177500Y-42807500D02*
X82700000Y-41330000D01*
X84177500Y-45720000D02*
X84177500Y-42807500D01*
X78590000Y-53340000D02*
X79860000Y-54610000D01*
X76200000Y-53340000D02*
X78590000Y-53340000D01*
X79860000Y-54610000D02*
X86360000Y-54610000D01*
X88625000Y-54610000D02*
X89555000Y-53680000D01*
X86360000Y-54610000D02*
X88625000Y-54610000D01*
X76200000Y-41330000D02*
X82700000Y-41330000D01*
X109140000Y-45085000D02*
X109220000Y-45165000D01*
X107950000Y-45085000D02*
X109140000Y-45085000D01*
%TO.N,GND*%
X109220000Y-52070000D02*
X107950000Y-53340000D01*
X111760000Y-52070000D02*
X109220000Y-52070000D01*
X105095000Y-53340000D02*
X104755000Y-53680000D01*
X107950000Y-53340000D02*
X105095000Y-53340000D01*
X113030000Y-53340000D02*
X111760000Y-52070000D01*
X118110000Y-53340000D02*
X113030000Y-53340000D01*
X84678180Y-46745010D02*
X85164990Y-46258200D01*
X82305010Y-46745010D02*
X84678180Y-46745010D01*
X81280000Y-45720000D02*
X82305010Y-46745010D01*
X85164990Y-44652510D02*
X86360000Y-43457500D01*
X85164990Y-46258200D02*
X85164990Y-44652510D01*
X87352500Y-43457500D02*
X88265000Y-42545000D01*
X86360000Y-43457500D02*
X87352500Y-43457500D01*
X117985000Y-36785000D02*
X117985000Y-32605000D01*
X117985000Y-32605000D02*
X109345000Y-32605000D01*
X117830000Y-36785000D02*
X116915000Y-37700000D01*
X117985000Y-36785000D02*
X117830000Y-36785000D01*
X109500000Y-36785000D02*
X110415000Y-37700000D01*
X109345000Y-36785000D02*
X109500000Y-36785000D01*
X103890000Y-53680000D02*
X102235000Y-52025000D01*
X102235000Y-52025000D02*
X102235000Y-44450000D01*
X105390000Y-53680000D02*
X103890000Y-53680000D01*
X95590000Y-53680000D02*
X103890000Y-53680000D01*
X93345000Y-51435000D02*
X95590000Y-53680000D01*
%TO.N,IO15*%
X104920000Y-51515000D02*
X104755000Y-51680000D01*
X107950000Y-51515000D02*
X104920000Y-51515000D01*
%TO.N,IO0*%
X111760000Y-49570000D02*
X109260000Y-49570000D01*
X107370000Y-47680000D02*
X104755000Y-47680000D01*
X109260000Y-49570000D02*
X107370000Y-47680000D01*
%TO.N,RXD*%
X110584999Y-43085001D02*
X111760000Y-41910000D01*
X108655999Y-43085001D02*
X110584999Y-43085001D01*
X107250998Y-41680000D02*
X108655999Y-43085001D01*
X104755000Y-41680000D02*
X107250998Y-41680000D01*
X95885000Y-51435000D02*
X95885000Y-46990000D01*
X101195000Y-41680000D02*
X105390000Y-41680000D01*
X95885000Y-46990000D02*
X101195000Y-41680000D01*
%TO.N,TXD*%
X101290000Y-39680000D02*
X105390000Y-39680000D01*
X94615000Y-46355000D02*
X101290000Y-39680000D01*
X94615000Y-51435000D02*
X94615000Y-46355000D01*
X106990000Y-39680000D02*
X109220000Y-41910000D01*
X105390000Y-39680000D02*
X106990000Y-39680000D01*
%TO.N,Net-(R1-Pad2)*%
X111655000Y-46990000D02*
X111735000Y-47070000D01*
X109220000Y-46990000D02*
X111655000Y-46990000D01*
%TO.N,RST*%
X88947500Y-39680000D02*
X89555000Y-39680000D01*
X89415000Y-39680000D02*
X89555000Y-39680000D01*
X86360000Y-36625000D02*
X89415000Y-39680000D01*
X76200000Y-36830000D02*
X82700000Y-36830000D01*
X86155000Y-36830000D02*
X86360000Y-36625000D01*
X82700000Y-36830000D02*
X86155000Y-36830000D01*
X88312500Y-39680000D02*
X89555000Y-39680000D01*
X86360000Y-41632500D02*
X88312500Y-39680000D01*
%TO.N,IO12*%
X88659999Y-48784999D02*
X89555000Y-49680000D01*
X78215001Y-48784999D02*
X88659999Y-48784999D01*
X76200000Y-50800000D02*
X78215001Y-48784999D01*
%TO.N,IO14*%
X76200000Y-48260000D02*
X76200000Y-48411002D01*
X76780000Y-47680000D02*
X76200000Y-48260000D01*
X89610000Y-48260000D02*
X90190000Y-47680000D01*
X76200000Y-48260000D02*
X89610000Y-48260000D01*
%TO.N,IO16*%
X86654999Y-47715001D02*
X88690000Y-45680000D01*
X88690000Y-45680000D02*
X90190000Y-45680000D01*
X78195001Y-47715001D02*
X86654999Y-47715001D01*
X76200000Y-45720000D02*
X78195001Y-47715001D01*
%TO.N,IO2*%
X107640690Y-49680000D02*
X104755000Y-49680000D01*
X108760690Y-50800000D02*
X107640690Y-49680000D01*
X118110000Y-50800000D02*
X108760690Y-50800000D01*
%TO.N,IO4*%
X108835000Y-48260000D02*
X118110000Y-48260000D01*
X106255000Y-45680000D02*
X108835000Y-48260000D01*
X104755000Y-45680000D02*
X106255000Y-45680000D01*
%TO.N,IO5*%
X105090002Y-43680000D02*
X104755000Y-43680000D01*
X117827490Y-45437490D02*
X118110000Y-45720000D01*
X116070000Y-43680000D02*
X118110000Y-45720000D01*
X105390000Y-43680000D02*
X116070000Y-43680000D01*
%TO.N,IO13*%
X79860000Y-50110000D02*
X86360000Y-50110000D01*
X87930000Y-51680000D02*
X89555000Y-51680000D01*
X86360000Y-50110000D02*
X87930000Y-51680000D01*
X79375000Y-45800000D02*
X79455000Y-45720000D01*
X79375000Y-46990000D02*
X79375000Y-45800000D01*
%TO.N,+5V*%
X111215000Y-37700000D02*
X111215000Y-36777002D01*
X111215000Y-36777002D02*
X113067002Y-34925000D01*
X116115000Y-36939998D02*
X116115000Y-37700000D01*
X114100002Y-34925000D02*
X116115000Y-36939998D01*
X113067002Y-34925000D02*
X114100002Y-34925000D01*
X107315000Y-37098260D02*
X107315000Y-38100000D01*
X109488260Y-34925000D02*
X107315000Y-37098260D01*
X113067002Y-34925000D02*
X109488260Y-34925000D01*
%TO.N,Net-(J1-PadA7)*%
X114415000Y-38660002D02*
X114415000Y-37700000D01*
X114325001Y-38750001D02*
X114415000Y-38660002D01*
X113415000Y-38675000D02*
X113490001Y-38750001D01*
X113490001Y-38750001D02*
X114325001Y-38750001D01*
X113415000Y-37700000D02*
X113415000Y-38675000D01*
X114415000Y-38780685D02*
X114415000Y-37700000D01*
X115004315Y-39370000D02*
X114415000Y-38780685D01*
X115570000Y-39370000D02*
X115004315Y-39370000D01*
%TO.N,Net-(J1-PadA6)*%
X113915000Y-36725000D02*
X113915000Y-37700000D01*
X113004999Y-36649999D02*
X113839999Y-36649999D01*
X113839999Y-36649999D02*
X113915000Y-36725000D01*
X112915000Y-36739998D02*
X113004999Y-36649999D01*
X112915000Y-37700000D02*
X112915000Y-36739998D01*
X112915000Y-38675000D02*
X112915000Y-37700000D01*
X112220000Y-39370000D02*
X112915000Y-38675000D01*
X110490000Y-39370000D02*
X112220000Y-39370000D01*
%TD*%
M02*
