%TF.GenerationSoftware,KiCad,Pcbnew,(5.1.9-0-10_14)*%
%TF.CreationDate,2021-03-22T12:23:30+08:00*%
%TF.ProjectId,Kernel,4b65726e-656c-42e6-9b69-6361645f7063,rev?*%
%TF.SameCoordinates,Original*%
%TF.FileFunction,Legend,Bot*%
%TF.FilePolarity,Positive*%
%FSLAX46Y46*%
G04 Gerber Fmt 4.6, Leading zero omitted, Abs format (unit mm)*
G04 Created by KiCad (PCBNEW (5.1.9-0-10_14)) date 2021-03-22 12:23:30*
%MOMM*%
%LPD*%
G01*
G04 APERTURE LIST*
%ADD10C,0.120000*%
%ADD11C,0.100000*%
G04 APERTURE END LIST*
D10*
%TO.C,U3*%
X94380000Y-39080000D02*
X94380000Y-45090000D01*
X101200000Y-41330000D02*
X101200000Y-45090000D01*
X94380000Y-45090000D02*
X95640000Y-45090000D01*
X101200000Y-45090000D02*
X99940000Y-45090000D01*
%TO.C,U2*%
X92730000Y-52070000D02*
X92730000Y-48620000D01*
X92730000Y-52070000D02*
X92730000Y-54020000D01*
X102850000Y-52070000D02*
X102850000Y-50120000D01*
X102850000Y-52070000D02*
X102850000Y-54020000D01*
%TO.C,C3*%
X91800000Y-41986252D02*
X91800000Y-40563748D01*
X93620000Y-41986252D02*
X93620000Y-40563748D01*
%TO.C,C2*%
X103780000Y-40563748D02*
X103780000Y-41986252D01*
X101960000Y-40563748D02*
X101960000Y-41986252D01*
%TO.C,J4*%
X113090000Y-43240000D02*
X113090000Y-41910000D01*
X111760000Y-43240000D02*
X113090000Y-43240000D01*
X110490000Y-43240000D02*
X110490000Y-40580000D01*
X110490000Y-40580000D02*
X107890000Y-40580000D01*
X110490000Y-43240000D02*
X107890000Y-43240000D01*
X107890000Y-43240000D02*
X107890000Y-40580000D01*
%TO.C,J3*%
X119440000Y-44390000D02*
X118110000Y-44390000D01*
X119440000Y-45720000D02*
X119440000Y-44390000D01*
X119440000Y-46990000D02*
X116780000Y-46990000D01*
X116780000Y-46990000D02*
X116780000Y-54670000D01*
X119440000Y-46990000D02*
X119440000Y-54670000D01*
X119440000Y-54670000D02*
X116780000Y-54670000D01*
%TO.C,J2*%
X77530000Y-44390000D02*
X76200000Y-44390000D01*
X77530000Y-45720000D02*
X77530000Y-44390000D01*
X77530000Y-46990000D02*
X74870000Y-46990000D01*
X74870000Y-46990000D02*
X74870000Y-54670000D01*
X77530000Y-46990000D02*
X77530000Y-54670000D01*
X77530000Y-54670000D02*
X74870000Y-54670000D01*
%TO.C,U3*%
D11*
X93706190Y-44704047D02*
X94110952Y-44704047D01*
X94158571Y-44727857D01*
X94182380Y-44751666D01*
X94206190Y-44799285D01*
X94206190Y-44894523D01*
X94182380Y-44942142D01*
X94158571Y-44965952D01*
X94110952Y-44989761D01*
X93706190Y-44989761D01*
X93706190Y-45180238D02*
X93706190Y-45489761D01*
X93896666Y-45323095D01*
X93896666Y-45394523D01*
X93920476Y-45442142D01*
X93944285Y-45465952D01*
X93991904Y-45489761D01*
X94110952Y-45489761D01*
X94158571Y-45465952D01*
X94182380Y-45442142D01*
X94206190Y-45394523D01*
X94206190Y-45251666D01*
X94182380Y-45204047D01*
X94158571Y-45180238D01*
%TO.C,U2*%
X91801190Y-51054047D02*
X92205952Y-51054047D01*
X92253571Y-51077857D01*
X92277380Y-51101666D01*
X92301190Y-51149285D01*
X92301190Y-51244523D01*
X92277380Y-51292142D01*
X92253571Y-51315952D01*
X92205952Y-51339761D01*
X91801190Y-51339761D01*
X91848809Y-51554047D02*
X91825000Y-51577857D01*
X91801190Y-51625476D01*
X91801190Y-51744523D01*
X91825000Y-51792142D01*
X91848809Y-51815952D01*
X91896428Y-51839761D01*
X91944047Y-51839761D01*
X92015476Y-51815952D01*
X92301190Y-51530238D01*
X92301190Y-51839761D01*
%TO.C,C3*%
X91618571Y-41191666D02*
X91642380Y-41167857D01*
X91666190Y-41096428D01*
X91666190Y-41048809D01*
X91642380Y-40977380D01*
X91594761Y-40929761D01*
X91547142Y-40905952D01*
X91451904Y-40882142D01*
X91380476Y-40882142D01*
X91285238Y-40905952D01*
X91237619Y-40929761D01*
X91190000Y-40977380D01*
X91166190Y-41048809D01*
X91166190Y-41096428D01*
X91190000Y-41167857D01*
X91213809Y-41191666D01*
X91166190Y-41358333D02*
X91166190Y-41667857D01*
X91356666Y-41501190D01*
X91356666Y-41572619D01*
X91380476Y-41620238D01*
X91404285Y-41644047D01*
X91451904Y-41667857D01*
X91570952Y-41667857D01*
X91618571Y-41644047D01*
X91642380Y-41620238D01*
X91666190Y-41572619D01*
X91666190Y-41429761D01*
X91642380Y-41382142D01*
X91618571Y-41358333D01*
%TO.C,C2*%
X104318571Y-41191666D02*
X104342380Y-41167857D01*
X104366190Y-41096428D01*
X104366190Y-41048809D01*
X104342380Y-40977380D01*
X104294761Y-40929761D01*
X104247142Y-40905952D01*
X104151904Y-40882142D01*
X104080476Y-40882142D01*
X103985238Y-40905952D01*
X103937619Y-40929761D01*
X103890000Y-40977380D01*
X103866190Y-41048809D01*
X103866190Y-41096428D01*
X103890000Y-41167857D01*
X103913809Y-41191666D01*
X103913809Y-41382142D02*
X103890000Y-41405952D01*
X103866190Y-41453571D01*
X103866190Y-41572619D01*
X103890000Y-41620238D01*
X103913809Y-41644047D01*
X103961428Y-41667857D01*
X104009047Y-41667857D01*
X104080476Y-41644047D01*
X104366190Y-41358333D01*
X104366190Y-41667857D01*
%TO.C,J4*%
X111926666Y-43541190D02*
X111926666Y-43898333D01*
X111950476Y-43969761D01*
X111998095Y-44017380D01*
X112069523Y-44041190D01*
X112117142Y-44041190D01*
X111474285Y-43707857D02*
X111474285Y-44041190D01*
X111593333Y-43517380D02*
X111712380Y-43874523D01*
X111402857Y-43874523D01*
%TO.C,J3*%
X118276666Y-43541190D02*
X118276666Y-43898333D01*
X118300476Y-43969761D01*
X118348095Y-44017380D01*
X118419523Y-44041190D01*
X118467142Y-44041190D01*
X118086190Y-43541190D02*
X117776666Y-43541190D01*
X117943333Y-43731666D01*
X117871904Y-43731666D01*
X117824285Y-43755476D01*
X117800476Y-43779285D01*
X117776666Y-43826904D01*
X117776666Y-43945952D01*
X117800476Y-43993571D01*
X117824285Y-44017380D01*
X117871904Y-44041190D01*
X118014761Y-44041190D01*
X118062380Y-44017380D01*
X118086190Y-43993571D01*
%TO.C,J2*%
X76366666Y-43541190D02*
X76366666Y-43898333D01*
X76390476Y-43969761D01*
X76438095Y-44017380D01*
X76509523Y-44041190D01*
X76557142Y-44041190D01*
X76152380Y-43588809D02*
X76128571Y-43565000D01*
X76080952Y-43541190D01*
X75961904Y-43541190D01*
X75914285Y-43565000D01*
X75890476Y-43588809D01*
X75866666Y-43636428D01*
X75866666Y-43684047D01*
X75890476Y-43755476D01*
X76176190Y-44041190D01*
X75866666Y-44041190D01*
%TD*%
M02*
