%TF.GenerationSoftware,KiCad,Pcbnew,(5.1.9-0-10_14)*%
%TF.CreationDate,2021-03-22T12:23:30+08:00*%
%TF.ProjectId,Kernel,4b65726e-656c-42e6-9b69-6361645f7063,rev?*%
%TF.SameCoordinates,Original*%
%TF.FileFunction,Soldermask,Bot*%
%TF.FilePolarity,Negative*%
%FSLAX46Y46*%
G04 Gerber Fmt 4.6, Leading zero omitted, Abs format (unit mm)*
G04 Created by KiCad (PCBNEW (5.1.9-0-10_14)) date 2021-03-22 12:23:30*
%MOMM*%
%LPD*%
G01*
G04 APERTURE LIST*
%ADD10R,1.500000X2.000000*%
%ADD11R,3.800000X2.000000*%
%ADD12O,1.000000X2.100000*%
%ADD13C,0.650000*%
%ADD14O,1.000000X1.600000*%
%ADD15O,1.700000X1.700000*%
%ADD16R,1.700000X1.700000*%
%ADD17C,2.000000*%
%ADD18C,1.600000*%
%ADD19R,1.600000X1.600000*%
G04 APERTURE END LIST*
D10*
%TO.C,U3*%
X95490000Y-40030000D03*
X100090000Y-40030000D03*
X97790000Y-40030000D03*
D11*
X97790000Y-46330000D03*
%TD*%
%TO.C,U2*%
G36*
G01*
X93195000Y-53570000D02*
X93495000Y-53570000D01*
G75*
G02*
X93645000Y-53720000I0J-150000D01*
G01*
X93645000Y-55370000D01*
G75*
G02*
X93495000Y-55520000I-150000J0D01*
G01*
X93195000Y-55520000D01*
G75*
G02*
X93045000Y-55370000I0J150000D01*
G01*
X93045000Y-53720000D01*
G75*
G02*
X93195000Y-53570000I150000J0D01*
G01*
G37*
G36*
G01*
X94465000Y-53570000D02*
X94765000Y-53570000D01*
G75*
G02*
X94915000Y-53720000I0J-150000D01*
G01*
X94915000Y-55370000D01*
G75*
G02*
X94765000Y-55520000I-150000J0D01*
G01*
X94465000Y-55520000D01*
G75*
G02*
X94315000Y-55370000I0J150000D01*
G01*
X94315000Y-53720000D01*
G75*
G02*
X94465000Y-53570000I150000J0D01*
G01*
G37*
G36*
G01*
X95735000Y-53570000D02*
X96035000Y-53570000D01*
G75*
G02*
X96185000Y-53720000I0J-150000D01*
G01*
X96185000Y-55370000D01*
G75*
G02*
X96035000Y-55520000I-150000J0D01*
G01*
X95735000Y-55520000D01*
G75*
G02*
X95585000Y-55370000I0J150000D01*
G01*
X95585000Y-53720000D01*
G75*
G02*
X95735000Y-53570000I150000J0D01*
G01*
G37*
G36*
G01*
X97005000Y-53570000D02*
X97305000Y-53570000D01*
G75*
G02*
X97455000Y-53720000I0J-150000D01*
G01*
X97455000Y-55370000D01*
G75*
G02*
X97305000Y-55520000I-150000J0D01*
G01*
X97005000Y-55520000D01*
G75*
G02*
X96855000Y-55370000I0J150000D01*
G01*
X96855000Y-53720000D01*
G75*
G02*
X97005000Y-53570000I150000J0D01*
G01*
G37*
G36*
G01*
X98275000Y-53570000D02*
X98575000Y-53570000D01*
G75*
G02*
X98725000Y-53720000I0J-150000D01*
G01*
X98725000Y-55370000D01*
G75*
G02*
X98575000Y-55520000I-150000J0D01*
G01*
X98275000Y-55520000D01*
G75*
G02*
X98125000Y-55370000I0J150000D01*
G01*
X98125000Y-53720000D01*
G75*
G02*
X98275000Y-53570000I150000J0D01*
G01*
G37*
G36*
G01*
X99545000Y-53570000D02*
X99845000Y-53570000D01*
G75*
G02*
X99995000Y-53720000I0J-150000D01*
G01*
X99995000Y-55370000D01*
G75*
G02*
X99845000Y-55520000I-150000J0D01*
G01*
X99545000Y-55520000D01*
G75*
G02*
X99395000Y-55370000I0J150000D01*
G01*
X99395000Y-53720000D01*
G75*
G02*
X99545000Y-53570000I150000J0D01*
G01*
G37*
G36*
G01*
X100815000Y-53570000D02*
X101115000Y-53570000D01*
G75*
G02*
X101265000Y-53720000I0J-150000D01*
G01*
X101265000Y-55370000D01*
G75*
G02*
X101115000Y-55520000I-150000J0D01*
G01*
X100815000Y-55520000D01*
G75*
G02*
X100665000Y-55370000I0J150000D01*
G01*
X100665000Y-53720000D01*
G75*
G02*
X100815000Y-53570000I150000J0D01*
G01*
G37*
G36*
G01*
X102085000Y-53570000D02*
X102385000Y-53570000D01*
G75*
G02*
X102535000Y-53720000I0J-150000D01*
G01*
X102535000Y-55370000D01*
G75*
G02*
X102385000Y-55520000I-150000J0D01*
G01*
X102085000Y-55520000D01*
G75*
G02*
X101935000Y-55370000I0J150000D01*
G01*
X101935000Y-53720000D01*
G75*
G02*
X102085000Y-53570000I150000J0D01*
G01*
G37*
G36*
G01*
X102085000Y-48620000D02*
X102385000Y-48620000D01*
G75*
G02*
X102535000Y-48770000I0J-150000D01*
G01*
X102535000Y-50420000D01*
G75*
G02*
X102385000Y-50570000I-150000J0D01*
G01*
X102085000Y-50570000D01*
G75*
G02*
X101935000Y-50420000I0J150000D01*
G01*
X101935000Y-48770000D01*
G75*
G02*
X102085000Y-48620000I150000J0D01*
G01*
G37*
G36*
G01*
X100815000Y-48620000D02*
X101115000Y-48620000D01*
G75*
G02*
X101265000Y-48770000I0J-150000D01*
G01*
X101265000Y-50420000D01*
G75*
G02*
X101115000Y-50570000I-150000J0D01*
G01*
X100815000Y-50570000D01*
G75*
G02*
X100665000Y-50420000I0J150000D01*
G01*
X100665000Y-48770000D01*
G75*
G02*
X100815000Y-48620000I150000J0D01*
G01*
G37*
G36*
G01*
X99545000Y-48620000D02*
X99845000Y-48620000D01*
G75*
G02*
X99995000Y-48770000I0J-150000D01*
G01*
X99995000Y-50420000D01*
G75*
G02*
X99845000Y-50570000I-150000J0D01*
G01*
X99545000Y-50570000D01*
G75*
G02*
X99395000Y-50420000I0J150000D01*
G01*
X99395000Y-48770000D01*
G75*
G02*
X99545000Y-48620000I150000J0D01*
G01*
G37*
G36*
G01*
X98275000Y-48620000D02*
X98575000Y-48620000D01*
G75*
G02*
X98725000Y-48770000I0J-150000D01*
G01*
X98725000Y-50420000D01*
G75*
G02*
X98575000Y-50570000I-150000J0D01*
G01*
X98275000Y-50570000D01*
G75*
G02*
X98125000Y-50420000I0J150000D01*
G01*
X98125000Y-48770000D01*
G75*
G02*
X98275000Y-48620000I150000J0D01*
G01*
G37*
G36*
G01*
X97005000Y-48620000D02*
X97305000Y-48620000D01*
G75*
G02*
X97455000Y-48770000I0J-150000D01*
G01*
X97455000Y-50420000D01*
G75*
G02*
X97305000Y-50570000I-150000J0D01*
G01*
X97005000Y-50570000D01*
G75*
G02*
X96855000Y-50420000I0J150000D01*
G01*
X96855000Y-48770000D01*
G75*
G02*
X97005000Y-48620000I150000J0D01*
G01*
G37*
G36*
G01*
X95735000Y-48620000D02*
X96035000Y-48620000D01*
G75*
G02*
X96185000Y-48770000I0J-150000D01*
G01*
X96185000Y-50420000D01*
G75*
G02*
X96035000Y-50570000I-150000J0D01*
G01*
X95735000Y-50570000D01*
G75*
G02*
X95585000Y-50420000I0J150000D01*
G01*
X95585000Y-48770000D01*
G75*
G02*
X95735000Y-48620000I150000J0D01*
G01*
G37*
G36*
G01*
X94465000Y-48620000D02*
X94765000Y-48620000D01*
G75*
G02*
X94915000Y-48770000I0J-150000D01*
G01*
X94915000Y-50420000D01*
G75*
G02*
X94765000Y-50570000I-150000J0D01*
G01*
X94465000Y-50570000D01*
G75*
G02*
X94315000Y-50420000I0J150000D01*
G01*
X94315000Y-48770000D01*
G75*
G02*
X94465000Y-48620000I150000J0D01*
G01*
G37*
G36*
G01*
X93195000Y-48620000D02*
X93495000Y-48620000D01*
G75*
G02*
X93645000Y-48770000I0J-150000D01*
G01*
X93645000Y-50420000D01*
G75*
G02*
X93495000Y-50570000I-150000J0D01*
G01*
X93195000Y-50570000D01*
G75*
G02*
X93045000Y-50420000I0J150000D01*
G01*
X93045000Y-48770000D01*
G75*
G02*
X93195000Y-48620000I150000J0D01*
G01*
G37*
%TD*%
D12*
%TO.C,J1*%
X109345000Y-36785000D03*
X117985000Y-36785000D03*
D13*
X116555000Y-36255000D03*
D14*
X117985000Y-32605000D03*
D13*
X110775000Y-36255000D03*
D14*
X109345000Y-32605000D03*
%TD*%
%TO.C,C3*%
G36*
G01*
X93360001Y-40375000D02*
X92059999Y-40375000D01*
G75*
G02*
X91810000Y-40125001I0J249999D01*
G01*
X91810000Y-39474999D01*
G75*
G02*
X92059999Y-39225000I249999J0D01*
G01*
X93360001Y-39225000D01*
G75*
G02*
X93610000Y-39474999I0J-249999D01*
G01*
X93610000Y-40125001D01*
G75*
G02*
X93360001Y-40375000I-249999J0D01*
G01*
G37*
G36*
G01*
X93360001Y-43325000D02*
X92059999Y-43325000D01*
G75*
G02*
X91810000Y-43075001I0J249999D01*
G01*
X91810000Y-42424999D01*
G75*
G02*
X92059999Y-42175000I249999J0D01*
G01*
X93360001Y-42175000D01*
G75*
G02*
X93610000Y-42424999I0J-249999D01*
G01*
X93610000Y-43075001D01*
G75*
G02*
X93360001Y-43325000I-249999J0D01*
G01*
G37*
%TD*%
%TO.C,C2*%
G36*
G01*
X102219999Y-42175000D02*
X103520001Y-42175000D01*
G75*
G02*
X103770000Y-42424999I0J-249999D01*
G01*
X103770000Y-43075001D01*
G75*
G02*
X103520001Y-43325000I-249999J0D01*
G01*
X102219999Y-43325000D01*
G75*
G02*
X101970000Y-43075001I0J249999D01*
G01*
X101970000Y-42424999D01*
G75*
G02*
X102219999Y-42175000I249999J0D01*
G01*
G37*
G36*
G01*
X102219999Y-39225000D02*
X103520001Y-39225000D01*
G75*
G02*
X103770000Y-39474999I0J-249999D01*
G01*
X103770000Y-40125001D01*
G75*
G02*
X103520001Y-40375000I-249999J0D01*
G01*
X102219999Y-40375000D01*
G75*
G02*
X101970000Y-40125001I0J249999D01*
G01*
X101970000Y-39474999D01*
G75*
G02*
X102219999Y-39225000I249999J0D01*
G01*
G37*
%TD*%
D15*
%TO.C,J4*%
X109220000Y-41910000D03*
D16*
X111760000Y-41910000D03*
%TD*%
D17*
%TO.C,SW3*%
X79860000Y-54610000D03*
X79860000Y-50110000D03*
X86360000Y-54610000D03*
X86360000Y-50110000D03*
%TD*%
%TO.C,SW2*%
X82700000Y-36830000D03*
X82700000Y-41330000D03*
X76200000Y-36830000D03*
X76200000Y-41330000D03*
%TD*%
D15*
%TO.C,J3*%
X118110000Y-53340000D03*
X118110000Y-50800000D03*
X118110000Y-48260000D03*
D16*
X118110000Y-45720000D03*
%TD*%
D15*
%TO.C,J2*%
X76200000Y-53340000D03*
X76200000Y-50800000D03*
X76200000Y-48260000D03*
D16*
X76200000Y-45720000D03*
%TD*%
D18*
%TO.C,SW1*%
X114935000Y-47070000D03*
X114935000Y-49570000D03*
X114935000Y-52070000D03*
X111735000Y-47070000D03*
X111735000Y-49570000D03*
D19*
X111735000Y-52070000D03*
%TD*%
M02*
