%TF.GenerationSoftware,KiCad,Pcbnew,(5.1.9-0-10_14)*%
%TF.CreationDate,2021-03-23T08:30:50+08:00*%
%TF.ProjectId,Kernel,4b65726e-656c-42e6-9b69-6361645f7063,rev?*%
%TF.SameCoordinates,Original*%
%TF.FileFunction,Copper,L2,Bot*%
%TF.FilePolarity,Positive*%
%FSLAX46Y46*%
G04 Gerber Fmt 4.6, Leading zero omitted, Abs format (unit mm)*
G04 Created by KiCad (PCBNEW (5.1.9-0-10_14)) date 2021-03-23 08:30:50*
%MOMM*%
%LPD*%
G01*
G04 APERTURE LIST*
%TA.AperFunction,ComponentPad*%
%ADD10R,1.700000X1.700000*%
%TD*%
%TA.AperFunction,SMDPad,CuDef*%
%ADD11R,1.500000X2.000000*%
%TD*%
%TA.AperFunction,SMDPad,CuDef*%
%ADD12R,3.800000X2.000000*%
%TD*%
%TA.AperFunction,ComponentPad*%
%ADD13O,1.000000X2.100000*%
%TD*%
%TA.AperFunction,ComponentPad*%
%ADD14O,1.000000X1.600000*%
%TD*%
%TA.AperFunction,ComponentPad*%
%ADD15O,1.700000X1.700000*%
%TD*%
%TA.AperFunction,ComponentPad*%
%ADD16C,2.000000*%
%TD*%
%TA.AperFunction,ComponentPad*%
%ADD17C,1.600000*%
%TD*%
%TA.AperFunction,ComponentPad*%
%ADD18R,1.600000X1.600000*%
%TD*%
%TA.AperFunction,ViaPad*%
%ADD19C,0.800000*%
%TD*%
%TA.AperFunction,Conductor*%
%ADD20C,0.250000*%
%TD*%
%TA.AperFunction,Conductor*%
%ADD21C,1.000000*%
%TD*%
%TA.AperFunction,Conductor*%
%ADD22C,0.254000*%
%TD*%
%TA.AperFunction,Conductor*%
%ADD23C,0.100000*%
%TD*%
G04 APERTURE END LIST*
D10*
%TO.P,J5,1*%
%TO.N,+5V*%
X109220000Y-53340000D03*
%TD*%
D11*
%TO.P,U3,1*%
%TO.N,GND*%
X95490000Y-40030000D03*
%TO.P,U3,3*%
%TO.N,+5V*%
X100090000Y-40030000D03*
%TO.P,U3,2*%
%TO.N,+3V3*%
X97790000Y-40030000D03*
D12*
X97790000Y-46330000D03*
%TD*%
%TO.P,U2,16*%
%TO.N,+3V3*%
%TA.AperFunction,SMDPad,CuDef*%
G36*
G01*
X93195000Y-53570000D02*
X93495000Y-53570000D01*
G75*
G02*
X93645000Y-53720000I0J-150000D01*
G01*
X93645000Y-55370000D01*
G75*
G02*
X93495000Y-55520000I-150000J0D01*
G01*
X93195000Y-55520000D01*
G75*
G02*
X93045000Y-55370000I0J150000D01*
G01*
X93045000Y-53720000D01*
G75*
G02*
X93195000Y-53570000I150000J0D01*
G01*
G37*
%TD.AperFunction*%
%TO.P,U2,15*%
%TO.N,Net-(U2-Pad15)*%
%TA.AperFunction,SMDPad,CuDef*%
G36*
G01*
X94465000Y-53570000D02*
X94765000Y-53570000D01*
G75*
G02*
X94915000Y-53720000I0J-150000D01*
G01*
X94915000Y-55370000D01*
G75*
G02*
X94765000Y-55520000I-150000J0D01*
G01*
X94465000Y-55520000D01*
G75*
G02*
X94315000Y-55370000I0J150000D01*
G01*
X94315000Y-53720000D01*
G75*
G02*
X94465000Y-53570000I150000J0D01*
G01*
G37*
%TD.AperFunction*%
%TO.P,U2,14*%
%TO.N,Net-(U2-Pad14)*%
%TA.AperFunction,SMDPad,CuDef*%
G36*
G01*
X95735000Y-53570000D02*
X96035000Y-53570000D01*
G75*
G02*
X96185000Y-53720000I0J-150000D01*
G01*
X96185000Y-55370000D01*
G75*
G02*
X96035000Y-55520000I-150000J0D01*
G01*
X95735000Y-55520000D01*
G75*
G02*
X95585000Y-55370000I0J150000D01*
G01*
X95585000Y-53720000D01*
G75*
G02*
X95735000Y-53570000I150000J0D01*
G01*
G37*
%TD.AperFunction*%
%TO.P,U2,13*%
%TO.N,Net-(U2-Pad13)*%
%TA.AperFunction,SMDPad,CuDef*%
G36*
G01*
X97005000Y-53570000D02*
X97305000Y-53570000D01*
G75*
G02*
X97455000Y-53720000I0J-150000D01*
G01*
X97455000Y-55370000D01*
G75*
G02*
X97305000Y-55520000I-150000J0D01*
G01*
X97005000Y-55520000D01*
G75*
G02*
X96855000Y-55370000I0J150000D01*
G01*
X96855000Y-53720000D01*
G75*
G02*
X97005000Y-53570000I150000J0D01*
G01*
G37*
%TD.AperFunction*%
%TO.P,U2,12*%
%TO.N,Net-(U2-Pad12)*%
%TA.AperFunction,SMDPad,CuDef*%
G36*
G01*
X98275000Y-53570000D02*
X98575000Y-53570000D01*
G75*
G02*
X98725000Y-53720000I0J-150000D01*
G01*
X98725000Y-55370000D01*
G75*
G02*
X98575000Y-55520000I-150000J0D01*
G01*
X98275000Y-55520000D01*
G75*
G02*
X98125000Y-55370000I0J150000D01*
G01*
X98125000Y-53720000D01*
G75*
G02*
X98275000Y-53570000I150000J0D01*
G01*
G37*
%TD.AperFunction*%
%TO.P,U2,11*%
%TO.N,Net-(U2-Pad11)*%
%TA.AperFunction,SMDPad,CuDef*%
G36*
G01*
X99545000Y-53570000D02*
X99845000Y-53570000D01*
G75*
G02*
X99995000Y-53720000I0J-150000D01*
G01*
X99995000Y-55370000D01*
G75*
G02*
X99845000Y-55520000I-150000J0D01*
G01*
X99545000Y-55520000D01*
G75*
G02*
X99395000Y-55370000I0J150000D01*
G01*
X99395000Y-53720000D01*
G75*
G02*
X99545000Y-53570000I150000J0D01*
G01*
G37*
%TD.AperFunction*%
%TO.P,U2,10*%
%TO.N,Net-(U2-Pad10)*%
%TA.AperFunction,SMDPad,CuDef*%
G36*
G01*
X100815000Y-53570000D02*
X101115000Y-53570000D01*
G75*
G02*
X101265000Y-53720000I0J-150000D01*
G01*
X101265000Y-55370000D01*
G75*
G02*
X101115000Y-55520000I-150000J0D01*
G01*
X100815000Y-55520000D01*
G75*
G02*
X100665000Y-55370000I0J150000D01*
G01*
X100665000Y-53720000D01*
G75*
G02*
X100815000Y-53570000I150000J0D01*
G01*
G37*
%TD.AperFunction*%
%TO.P,U2,9*%
%TO.N,Net-(U2-Pad9)*%
%TA.AperFunction,SMDPad,CuDef*%
G36*
G01*
X102085000Y-53570000D02*
X102385000Y-53570000D01*
G75*
G02*
X102535000Y-53720000I0J-150000D01*
G01*
X102535000Y-55370000D01*
G75*
G02*
X102385000Y-55520000I-150000J0D01*
G01*
X102085000Y-55520000D01*
G75*
G02*
X101935000Y-55370000I0J150000D01*
G01*
X101935000Y-53720000D01*
G75*
G02*
X102085000Y-53570000I150000J0D01*
G01*
G37*
%TD.AperFunction*%
%TO.P,U2,8*%
%TO.N,Net-(U2-Pad8)*%
%TA.AperFunction,SMDPad,CuDef*%
G36*
G01*
X102085000Y-48620000D02*
X102385000Y-48620000D01*
G75*
G02*
X102535000Y-48770000I0J-150000D01*
G01*
X102535000Y-50420000D01*
G75*
G02*
X102385000Y-50570000I-150000J0D01*
G01*
X102085000Y-50570000D01*
G75*
G02*
X101935000Y-50420000I0J150000D01*
G01*
X101935000Y-48770000D01*
G75*
G02*
X102085000Y-48620000I150000J0D01*
G01*
G37*
%TD.AperFunction*%
%TO.P,U2,7*%
%TO.N,Net-(U2-Pad7)*%
%TA.AperFunction,SMDPad,CuDef*%
G36*
G01*
X100815000Y-48620000D02*
X101115000Y-48620000D01*
G75*
G02*
X101265000Y-48770000I0J-150000D01*
G01*
X101265000Y-50420000D01*
G75*
G02*
X101115000Y-50570000I-150000J0D01*
G01*
X100815000Y-50570000D01*
G75*
G02*
X100665000Y-50420000I0J150000D01*
G01*
X100665000Y-48770000D01*
G75*
G02*
X100815000Y-48620000I150000J0D01*
G01*
G37*
%TD.AperFunction*%
%TO.P,U2,6*%
%TO.N,Net-(J1-PadA7)*%
%TA.AperFunction,SMDPad,CuDef*%
G36*
G01*
X99545000Y-48620000D02*
X99845000Y-48620000D01*
G75*
G02*
X99995000Y-48770000I0J-150000D01*
G01*
X99995000Y-50420000D01*
G75*
G02*
X99845000Y-50570000I-150000J0D01*
G01*
X99545000Y-50570000D01*
G75*
G02*
X99395000Y-50420000I0J150000D01*
G01*
X99395000Y-48770000D01*
G75*
G02*
X99545000Y-48620000I150000J0D01*
G01*
G37*
%TD.AperFunction*%
%TO.P,U2,5*%
%TO.N,Net-(J1-PadA6)*%
%TA.AperFunction,SMDPad,CuDef*%
G36*
G01*
X98275000Y-48620000D02*
X98575000Y-48620000D01*
G75*
G02*
X98725000Y-48770000I0J-150000D01*
G01*
X98725000Y-50420000D01*
G75*
G02*
X98575000Y-50570000I-150000J0D01*
G01*
X98275000Y-50570000D01*
G75*
G02*
X98125000Y-50420000I0J150000D01*
G01*
X98125000Y-48770000D01*
G75*
G02*
X98275000Y-48620000I150000J0D01*
G01*
G37*
%TD.AperFunction*%
%TO.P,U2,4*%
%TO.N,+3V3*%
%TA.AperFunction,SMDPad,CuDef*%
G36*
G01*
X97005000Y-48620000D02*
X97305000Y-48620000D01*
G75*
G02*
X97455000Y-48770000I0J-150000D01*
G01*
X97455000Y-50420000D01*
G75*
G02*
X97305000Y-50570000I-150000J0D01*
G01*
X97005000Y-50570000D01*
G75*
G02*
X96855000Y-50420000I0J150000D01*
G01*
X96855000Y-48770000D01*
G75*
G02*
X97005000Y-48620000I150000J0D01*
G01*
G37*
%TD.AperFunction*%
%TO.P,U2,3*%
%TO.N,RXD*%
%TA.AperFunction,SMDPad,CuDef*%
G36*
G01*
X95735000Y-48620000D02*
X96035000Y-48620000D01*
G75*
G02*
X96185000Y-48770000I0J-150000D01*
G01*
X96185000Y-50420000D01*
G75*
G02*
X96035000Y-50570000I-150000J0D01*
G01*
X95735000Y-50570000D01*
G75*
G02*
X95585000Y-50420000I0J150000D01*
G01*
X95585000Y-48770000D01*
G75*
G02*
X95735000Y-48620000I150000J0D01*
G01*
G37*
%TD.AperFunction*%
%TO.P,U2,2*%
%TO.N,TXD*%
%TA.AperFunction,SMDPad,CuDef*%
G36*
G01*
X94465000Y-48620000D02*
X94765000Y-48620000D01*
G75*
G02*
X94915000Y-48770000I0J-150000D01*
G01*
X94915000Y-50420000D01*
G75*
G02*
X94765000Y-50570000I-150000J0D01*
G01*
X94465000Y-50570000D01*
G75*
G02*
X94315000Y-50420000I0J150000D01*
G01*
X94315000Y-48770000D01*
G75*
G02*
X94465000Y-48620000I150000J0D01*
G01*
G37*
%TD.AperFunction*%
%TO.P,U2,1*%
%TO.N,GND*%
%TA.AperFunction,SMDPad,CuDef*%
G36*
G01*
X93195000Y-48620000D02*
X93495000Y-48620000D01*
G75*
G02*
X93645000Y-48770000I0J-150000D01*
G01*
X93645000Y-50420000D01*
G75*
G02*
X93495000Y-50570000I-150000J0D01*
G01*
X93195000Y-50570000D01*
G75*
G02*
X93045000Y-50420000I0J150000D01*
G01*
X93045000Y-48770000D01*
G75*
G02*
X93195000Y-48620000I150000J0D01*
G01*
G37*
%TD.AperFunction*%
%TD*%
D13*
%TO.P,J1,S1*%
%TO.N,GND*%
X109345000Y-36785000D03*
X117985000Y-36785000D03*
D14*
X117985000Y-32605000D03*
X109345000Y-32605000D03*
%TD*%
%TO.P,C3,2*%
%TO.N,GND*%
%TA.AperFunction,SMDPad,CuDef*%
G36*
G01*
X93360001Y-40375000D02*
X92059999Y-40375000D01*
G75*
G02*
X91810000Y-40125001I0J249999D01*
G01*
X91810000Y-39474999D01*
G75*
G02*
X92059999Y-39225000I249999J0D01*
G01*
X93360001Y-39225000D01*
G75*
G02*
X93610000Y-39474999I0J-249999D01*
G01*
X93610000Y-40125001D01*
G75*
G02*
X93360001Y-40375000I-249999J0D01*
G01*
G37*
%TD.AperFunction*%
%TO.P,C3,1*%
%TO.N,+3V3*%
%TA.AperFunction,SMDPad,CuDef*%
G36*
G01*
X93360001Y-43325000D02*
X92059999Y-43325000D01*
G75*
G02*
X91810000Y-43075001I0J249999D01*
G01*
X91810000Y-42424999D01*
G75*
G02*
X92059999Y-42175000I249999J0D01*
G01*
X93360001Y-42175000D01*
G75*
G02*
X93610000Y-42424999I0J-249999D01*
G01*
X93610000Y-43075001D01*
G75*
G02*
X93360001Y-43325000I-249999J0D01*
G01*
G37*
%TD.AperFunction*%
%TD*%
%TO.P,C2,2*%
%TO.N,GND*%
%TA.AperFunction,SMDPad,CuDef*%
G36*
G01*
X102219999Y-42175000D02*
X103520001Y-42175000D01*
G75*
G02*
X103770000Y-42424999I0J-249999D01*
G01*
X103770000Y-43075001D01*
G75*
G02*
X103520001Y-43325000I-249999J0D01*
G01*
X102219999Y-43325000D01*
G75*
G02*
X101970000Y-43075001I0J249999D01*
G01*
X101970000Y-42424999D01*
G75*
G02*
X102219999Y-42175000I249999J0D01*
G01*
G37*
%TD.AperFunction*%
%TO.P,C2,1*%
%TO.N,+5V*%
%TA.AperFunction,SMDPad,CuDef*%
G36*
G01*
X102219999Y-39225000D02*
X103520001Y-39225000D01*
G75*
G02*
X103770000Y-39474999I0J-249999D01*
G01*
X103770000Y-40125001D01*
G75*
G02*
X103520001Y-40375000I-249999J0D01*
G01*
X102219999Y-40375000D01*
G75*
G02*
X101970000Y-40125001I0J249999D01*
G01*
X101970000Y-39474999D01*
G75*
G02*
X102219999Y-39225000I249999J0D01*
G01*
G37*
%TD.AperFunction*%
%TD*%
D15*
%TO.P,J4,2*%
%TO.N,TXD*%
X109220000Y-41910000D03*
D10*
%TO.P,J4,1*%
%TO.N,RXD*%
X111760000Y-41910000D03*
%TD*%
D16*
%TO.P,SW3,1*%
%TO.N,+3V3*%
X79860000Y-54610000D03*
%TO.P,SW3,2*%
%TO.N,IO13*%
X79860000Y-50110000D03*
%TO.P,SW3,1*%
%TO.N,+3V3*%
X86360000Y-54610000D03*
%TO.P,SW3,2*%
%TO.N,IO13*%
X86360000Y-50110000D03*
%TD*%
%TO.P,SW2,1*%
%TO.N,RST*%
X82700000Y-36830000D03*
%TO.P,SW2,2*%
%TO.N,GND*%
X82700000Y-41330000D03*
%TO.P,SW2,1*%
%TO.N,RST*%
X76200000Y-36830000D03*
%TO.P,SW2,2*%
%TO.N,GND*%
X76200000Y-41330000D03*
%TD*%
D15*
%TO.P,J3,4*%
%TO.N,GND*%
X118110000Y-53340000D03*
%TO.P,J3,3*%
%TO.N,IO2*%
X118110000Y-50800000D03*
%TO.P,J3,2*%
%TO.N,IO4*%
X118110000Y-48260000D03*
D10*
%TO.P,J3,1*%
%TO.N,IO5*%
X118110000Y-45720000D03*
%TD*%
D15*
%TO.P,J2,4*%
%TO.N,+3V3*%
X76200000Y-53340000D03*
%TO.P,J2,3*%
%TO.N,IO12*%
X76200000Y-50800000D03*
%TO.P,J2,2*%
%TO.N,IO14*%
X76200000Y-48260000D03*
D10*
%TO.P,J2,1*%
%TO.N,IO16*%
X76200000Y-45720000D03*
%TD*%
D17*
%TO.P,SW1,6*%
%TO.N,N/C*%
X114935000Y-47070000D03*
%TO.P,SW1,5*%
X114935000Y-49570000D03*
%TO.P,SW1,4*%
X114935000Y-52070000D03*
%TO.P,SW1,3*%
%TO.N,Net-(R1-Pad2)*%
X111735000Y-47070000D03*
%TO.P,SW1,2*%
%TO.N,IO0*%
X111735000Y-49570000D03*
D18*
%TO.P,SW1,1*%
%TO.N,GND*%
X111735000Y-52070000D03*
%TD*%
D19*
%TO.N,+3V3*%
X107950000Y-45085000D03*
%TO.N,GND*%
X93345000Y-52324000D03*
X102235000Y-44450000D03*
%TO.N,+3V3*%
X82677000Y-43815000D03*
%TO.N,RXD*%
X95885000Y-51435000D03*
%TO.N,TXD*%
X94615000Y-51435000D03*
%TO.N,IO2*%
X107188000Y-48768000D03*
%TO.N,IO13*%
X79375000Y-46990000D03*
%TO.N,+5V*%
X116586000Y-39370000D03*
%TO.N,Net-(J1-PadA7)*%
X115570000Y-39370000D03*
%TO.N,Net-(J1-PadA6)*%
X110490000Y-39370000D03*
%TD*%
D20*
%TO.N,+3V3*%
X86425000Y-54545000D02*
X86360000Y-54610000D01*
X93345000Y-54545000D02*
X86425000Y-54545000D01*
X97790000Y-46330000D02*
X97790000Y-47625000D01*
X97155000Y-48260000D02*
X97155000Y-49595000D01*
X97790000Y-47625000D02*
X97155000Y-48260000D01*
X93345000Y-53340000D02*
X93345000Y-54545000D01*
X93440010Y-53244990D02*
X93345000Y-53340000D01*
X95148012Y-53244990D02*
X93440010Y-53244990D01*
X97155000Y-49595000D02*
X97155000Y-51238002D01*
X107950000Y-45526768D02*
X107950000Y-45085000D01*
X100870267Y-52606501D02*
X107950000Y-45526768D01*
X95786501Y-52606501D02*
X100870267Y-52606501D01*
X97155000Y-51238002D02*
X95786501Y-52606501D01*
X95786501Y-52606501D02*
X95148012Y-53244990D01*
D21*
X92710000Y-42750000D02*
X95070000Y-42750000D01*
X95070000Y-42750000D02*
X96950000Y-42750000D01*
X97790000Y-41910000D02*
X97790000Y-40030000D01*
X96950000Y-42750000D02*
X97790000Y-41910000D01*
X97790000Y-43590000D02*
X96950000Y-42750000D01*
X97790000Y-46330000D02*
X97790000Y-43590000D01*
D20*
X86360000Y-54610000D02*
X79860000Y-54610000D01*
%TO.N,GND*%
X95260000Y-39800000D02*
X95490000Y-40030000D01*
X102235000Y-43385000D02*
X102870000Y-42750000D01*
X102235000Y-44450000D02*
X102235000Y-43385000D01*
X93345000Y-49595000D02*
X93345000Y-52324000D01*
%TO.N,+3V3*%
X91645000Y-43815000D02*
X92710000Y-42750000D01*
X82677000Y-43815000D02*
X91645000Y-43815000D01*
%TO.N,RXD*%
X95885000Y-49595000D02*
X95885000Y-51435000D01*
%TO.N,TXD*%
X94615000Y-49595000D02*
X94615000Y-51435000D01*
%TO.N,IO2*%
X115678001Y-48368001D02*
X118110000Y-50800000D01*
X107587999Y-48368001D02*
X115678001Y-48368001D01*
X107188000Y-48768000D02*
X107587999Y-48368001D01*
%TO.N,IO13*%
X79860000Y-47475000D02*
X79375000Y-46990000D01*
X79860000Y-50110000D02*
X79860000Y-47475000D01*
%TO.N,+5V*%
X100320000Y-39800000D02*
X100090000Y-40030000D01*
D21*
X102870000Y-39800000D02*
X100320000Y-39800000D01*
D20*
X106462999Y-50582999D02*
X109220000Y-53340000D01*
X106965007Y-47917991D02*
X106462999Y-48419999D01*
X108603694Y-47917991D02*
X106965007Y-47917991D01*
X116586000Y-39935685D02*
X108603694Y-47917991D01*
X106462999Y-48419999D02*
X106462999Y-50582999D01*
X116586000Y-39370000D02*
X116586000Y-39935685D01*
X104025001Y-38644999D02*
X102870000Y-39800000D01*
X116586000Y-38804315D02*
X116426684Y-38644999D01*
X116426684Y-38644999D02*
X104025001Y-38644999D01*
X116586000Y-39370000D02*
X116586000Y-38804315D01*
%TO.N,Net-(J1-PadA7)*%
X114844999Y-40095001D02*
X115570000Y-39370000D01*
X108219999Y-40095001D02*
X114844999Y-40095001D01*
X99695000Y-48620000D02*
X108219999Y-40095001D01*
X99695000Y-49595000D02*
X99695000Y-48620000D01*
%TO.N,Net-(J1-PadA6)*%
X108273232Y-39370000D02*
X98425000Y-49218232D01*
X98425000Y-49218232D02*
X98425000Y-49595000D01*
X110490000Y-39370000D02*
X108273232Y-39370000D01*
%TD*%
D22*
%TO.N,GND*%
X120132869Y-31154722D02*
X120246246Y-31188953D01*
X120350819Y-31244555D01*
X120442596Y-31319407D01*
X120518091Y-31410664D01*
X120574419Y-31514844D01*
X120609440Y-31627976D01*
X120625001Y-31776031D01*
X120625000Y-55847721D01*
X120610278Y-55997869D01*
X120576047Y-56111246D01*
X120520446Y-56215817D01*
X120445594Y-56307595D01*
X120354335Y-56383091D01*
X120250160Y-56439419D01*
X120137024Y-56474440D01*
X119988979Y-56490000D01*
X74327279Y-56490000D01*
X74177131Y-56475278D01*
X74063754Y-56441047D01*
X73959183Y-56385446D01*
X73867405Y-56310594D01*
X73791909Y-56219335D01*
X73735581Y-56115160D01*
X73700560Y-56002024D01*
X73685000Y-55853979D01*
X73685000Y-44870000D01*
X74711928Y-44870000D01*
X74711928Y-46570000D01*
X74724188Y-46694482D01*
X74760498Y-46814180D01*
X74819463Y-46924494D01*
X74898815Y-47021185D01*
X74995506Y-47100537D01*
X75105820Y-47159502D01*
X75178380Y-47181513D01*
X75046525Y-47313368D01*
X74884010Y-47556589D01*
X74772068Y-47826842D01*
X74715000Y-48113740D01*
X74715000Y-48406260D01*
X74772068Y-48693158D01*
X74884010Y-48963411D01*
X75046525Y-49206632D01*
X75253368Y-49413475D01*
X75427760Y-49530000D01*
X75253368Y-49646525D01*
X75046525Y-49853368D01*
X74884010Y-50096589D01*
X74772068Y-50366842D01*
X74715000Y-50653740D01*
X74715000Y-50946260D01*
X74772068Y-51233158D01*
X74884010Y-51503411D01*
X75046525Y-51746632D01*
X75253368Y-51953475D01*
X75427760Y-52070000D01*
X75253368Y-52186525D01*
X75046525Y-52393368D01*
X74884010Y-52636589D01*
X74772068Y-52906842D01*
X74715000Y-53193740D01*
X74715000Y-53486260D01*
X74772068Y-53773158D01*
X74884010Y-54043411D01*
X75046525Y-54286632D01*
X75253368Y-54493475D01*
X75496589Y-54655990D01*
X75766842Y-54767932D01*
X76053740Y-54825000D01*
X76346260Y-54825000D01*
X76633158Y-54767932D01*
X76903411Y-54655990D01*
X77146632Y-54493475D01*
X77191140Y-54448967D01*
X78225000Y-54448967D01*
X78225000Y-54771033D01*
X78287832Y-55086912D01*
X78411082Y-55384463D01*
X78590013Y-55652252D01*
X78817748Y-55879987D01*
X79085537Y-56058918D01*
X79383088Y-56182168D01*
X79698967Y-56245000D01*
X80021033Y-56245000D01*
X80336912Y-56182168D01*
X80634463Y-56058918D01*
X80902252Y-55879987D01*
X81129987Y-55652252D01*
X81308918Y-55384463D01*
X81314909Y-55370000D01*
X84905091Y-55370000D01*
X84911082Y-55384463D01*
X85090013Y-55652252D01*
X85317748Y-55879987D01*
X85585537Y-56058918D01*
X85883088Y-56182168D01*
X86198967Y-56245000D01*
X86521033Y-56245000D01*
X86836912Y-56182168D01*
X87134463Y-56058918D01*
X87402252Y-55879987D01*
X87629987Y-55652252D01*
X87808918Y-55384463D01*
X87841833Y-55305000D01*
X92406928Y-55305000D01*
X92406928Y-55370000D01*
X92422071Y-55523745D01*
X92466916Y-55671582D01*
X92539742Y-55807829D01*
X92637749Y-55927251D01*
X92757171Y-56025258D01*
X92893418Y-56098084D01*
X93041255Y-56142929D01*
X93195000Y-56158072D01*
X93495000Y-56158072D01*
X93648745Y-56142929D01*
X93796582Y-56098084D01*
X93932829Y-56025258D01*
X93980000Y-55986546D01*
X94027171Y-56025258D01*
X94163418Y-56098084D01*
X94311255Y-56142929D01*
X94465000Y-56158072D01*
X94765000Y-56158072D01*
X94918745Y-56142929D01*
X95066582Y-56098084D01*
X95202829Y-56025258D01*
X95250000Y-55986546D01*
X95297171Y-56025258D01*
X95433418Y-56098084D01*
X95581255Y-56142929D01*
X95735000Y-56158072D01*
X96035000Y-56158072D01*
X96188745Y-56142929D01*
X96336582Y-56098084D01*
X96472829Y-56025258D01*
X96520000Y-55986546D01*
X96567171Y-56025258D01*
X96703418Y-56098084D01*
X96851255Y-56142929D01*
X97005000Y-56158072D01*
X97305000Y-56158072D01*
X97458745Y-56142929D01*
X97606582Y-56098084D01*
X97742829Y-56025258D01*
X97790000Y-55986546D01*
X97837171Y-56025258D01*
X97973418Y-56098084D01*
X98121255Y-56142929D01*
X98275000Y-56158072D01*
X98575000Y-56158072D01*
X98728745Y-56142929D01*
X98876582Y-56098084D01*
X99012829Y-56025258D01*
X99060000Y-55986546D01*
X99107171Y-56025258D01*
X99243418Y-56098084D01*
X99391255Y-56142929D01*
X99545000Y-56158072D01*
X99845000Y-56158072D01*
X99998745Y-56142929D01*
X100146582Y-56098084D01*
X100282829Y-56025258D01*
X100330000Y-55986546D01*
X100377171Y-56025258D01*
X100513418Y-56098084D01*
X100661255Y-56142929D01*
X100815000Y-56158072D01*
X101115000Y-56158072D01*
X101268745Y-56142929D01*
X101416582Y-56098084D01*
X101552829Y-56025258D01*
X101600000Y-55986546D01*
X101647171Y-56025258D01*
X101783418Y-56098084D01*
X101931255Y-56142929D01*
X102085000Y-56158072D01*
X102385000Y-56158072D01*
X102538745Y-56142929D01*
X102686582Y-56098084D01*
X102822829Y-56025258D01*
X102942251Y-55927251D01*
X103040258Y-55807829D01*
X103113084Y-55671582D01*
X103157929Y-55523745D01*
X103173072Y-55370000D01*
X103173072Y-53720000D01*
X103157929Y-53566255D01*
X103113084Y-53418418D01*
X103040258Y-53282171D01*
X102942251Y-53162749D01*
X102822829Y-53064742D01*
X102686582Y-52991916D01*
X102538745Y-52947071D01*
X102385000Y-52931928D01*
X102085000Y-52931928D01*
X101931255Y-52947071D01*
X101783418Y-52991916D01*
X101647171Y-53064742D01*
X101600000Y-53103454D01*
X101552829Y-53064742D01*
X101509817Y-53041752D01*
X105702999Y-48848571D01*
X105703000Y-50545667D01*
X105699323Y-50582999D01*
X105703000Y-50620332D01*
X105713997Y-50731985D01*
X105717937Y-50744974D01*
X105757453Y-50875245D01*
X105828025Y-51007275D01*
X105883818Y-51075258D01*
X105922999Y-51123000D01*
X105951997Y-51146798D01*
X107731928Y-52926730D01*
X107731928Y-54190000D01*
X107744188Y-54314482D01*
X107780498Y-54434180D01*
X107839463Y-54544494D01*
X107918815Y-54641185D01*
X108015506Y-54720537D01*
X108125820Y-54779502D01*
X108245518Y-54815812D01*
X108370000Y-54828072D01*
X110070000Y-54828072D01*
X110194482Y-54815812D01*
X110314180Y-54779502D01*
X110424494Y-54720537D01*
X110521185Y-54641185D01*
X110600537Y-54544494D01*
X110659502Y-54434180D01*
X110695812Y-54314482D01*
X110708072Y-54190000D01*
X110708072Y-53696890D01*
X116668524Y-53696890D01*
X116713175Y-53844099D01*
X116838359Y-54106920D01*
X117012412Y-54340269D01*
X117228645Y-54535178D01*
X117478748Y-54684157D01*
X117753109Y-54781481D01*
X117983000Y-54660814D01*
X117983000Y-53467000D01*
X118237000Y-53467000D01*
X118237000Y-54660814D01*
X118466891Y-54781481D01*
X118741252Y-54684157D01*
X118991355Y-54535178D01*
X119207588Y-54340269D01*
X119381641Y-54106920D01*
X119506825Y-53844099D01*
X119551476Y-53696890D01*
X119430155Y-53467000D01*
X118237000Y-53467000D01*
X117983000Y-53467000D01*
X116789845Y-53467000D01*
X116668524Y-53696890D01*
X110708072Y-53696890D01*
X110708072Y-53464735D01*
X110810518Y-53495812D01*
X110935000Y-53508072D01*
X111449250Y-53505000D01*
X111608000Y-53346250D01*
X111608000Y-52197000D01*
X111862000Y-52197000D01*
X111862000Y-53346250D01*
X112020750Y-53505000D01*
X112535000Y-53508072D01*
X112659482Y-53495812D01*
X112779180Y-53459502D01*
X112889494Y-53400537D01*
X112986185Y-53321185D01*
X113065537Y-53224494D01*
X113124502Y-53114180D01*
X113160812Y-52994482D01*
X113173072Y-52870000D01*
X113170000Y-52355750D01*
X113011250Y-52197000D01*
X111862000Y-52197000D01*
X111608000Y-52197000D01*
X111588000Y-52197000D01*
X111588000Y-51943000D01*
X111608000Y-51943000D01*
X111608000Y-51923000D01*
X111862000Y-51923000D01*
X111862000Y-51943000D01*
X113011250Y-51943000D01*
X113170000Y-51784250D01*
X113173072Y-51270000D01*
X113160812Y-51145518D01*
X113124502Y-51025820D01*
X113065537Y-50915506D01*
X112986185Y-50818815D01*
X112889494Y-50739463D01*
X112779180Y-50680498D01*
X112683057Y-50651339D01*
X112849637Y-50484759D01*
X113006680Y-50249727D01*
X113114853Y-49988574D01*
X113170000Y-49711335D01*
X113170000Y-49428665D01*
X113114853Y-49151426D01*
X113105150Y-49128001D01*
X113564850Y-49128001D01*
X113555147Y-49151426D01*
X113500000Y-49428665D01*
X113500000Y-49711335D01*
X113555147Y-49988574D01*
X113663320Y-50249727D01*
X113820363Y-50484759D01*
X114020241Y-50684637D01*
X114222827Y-50820000D01*
X114020241Y-50955363D01*
X113820363Y-51155241D01*
X113663320Y-51390273D01*
X113555147Y-51651426D01*
X113500000Y-51928665D01*
X113500000Y-52211335D01*
X113555147Y-52488574D01*
X113663320Y-52749727D01*
X113820363Y-52984759D01*
X114020241Y-53184637D01*
X114255273Y-53341680D01*
X114516426Y-53449853D01*
X114793665Y-53505000D01*
X115076335Y-53505000D01*
X115353574Y-53449853D01*
X115614727Y-53341680D01*
X115849759Y-53184637D01*
X116049637Y-52984759D01*
X116206680Y-52749727D01*
X116314853Y-52488574D01*
X116370000Y-52211335D01*
X116370000Y-51928665D01*
X116314853Y-51651426D01*
X116206680Y-51390273D01*
X116049637Y-51155241D01*
X115849759Y-50955363D01*
X115647173Y-50820000D01*
X115849759Y-50684637D01*
X116049637Y-50484759D01*
X116206680Y-50249727D01*
X116288176Y-50052978D01*
X116668790Y-50433592D01*
X116625000Y-50653740D01*
X116625000Y-50946260D01*
X116682068Y-51233158D01*
X116794010Y-51503411D01*
X116956525Y-51746632D01*
X117163368Y-51953475D01*
X117345534Y-52075195D01*
X117228645Y-52144822D01*
X117012412Y-52339731D01*
X116838359Y-52573080D01*
X116713175Y-52835901D01*
X116668524Y-52983110D01*
X116789845Y-53213000D01*
X117983000Y-53213000D01*
X117983000Y-53193000D01*
X118237000Y-53193000D01*
X118237000Y-53213000D01*
X119430155Y-53213000D01*
X119551476Y-52983110D01*
X119506825Y-52835901D01*
X119381641Y-52573080D01*
X119207588Y-52339731D01*
X118991355Y-52144822D01*
X118874466Y-52075195D01*
X119056632Y-51953475D01*
X119263475Y-51746632D01*
X119425990Y-51503411D01*
X119537932Y-51233158D01*
X119595000Y-50946260D01*
X119595000Y-50653740D01*
X119537932Y-50366842D01*
X119425990Y-50096589D01*
X119263475Y-49853368D01*
X119056632Y-49646525D01*
X118882240Y-49530000D01*
X119056632Y-49413475D01*
X119263475Y-49206632D01*
X119425990Y-48963411D01*
X119537932Y-48693158D01*
X119595000Y-48406260D01*
X119595000Y-48113740D01*
X119537932Y-47826842D01*
X119425990Y-47556589D01*
X119263475Y-47313368D01*
X119131620Y-47181513D01*
X119204180Y-47159502D01*
X119314494Y-47100537D01*
X119411185Y-47021185D01*
X119490537Y-46924494D01*
X119549502Y-46814180D01*
X119585812Y-46694482D01*
X119598072Y-46570000D01*
X119598072Y-44870000D01*
X119585812Y-44745518D01*
X119549502Y-44625820D01*
X119490537Y-44515506D01*
X119411185Y-44418815D01*
X119314494Y-44339463D01*
X119204180Y-44280498D01*
X119084482Y-44244188D01*
X118960000Y-44231928D01*
X117260000Y-44231928D01*
X117135518Y-44244188D01*
X117015820Y-44280498D01*
X116905506Y-44339463D01*
X116808815Y-44418815D01*
X116729463Y-44515506D01*
X116670498Y-44625820D01*
X116634188Y-44745518D01*
X116621928Y-44870000D01*
X116621928Y-46570000D01*
X116634188Y-46694482D01*
X116670498Y-46814180D01*
X116729463Y-46924494D01*
X116808815Y-47021185D01*
X116905506Y-47100537D01*
X117015820Y-47159502D01*
X117088380Y-47181513D01*
X116956525Y-47313368D01*
X116794010Y-47556589D01*
X116682068Y-47826842D01*
X116625000Y-48113740D01*
X116625000Y-48240199D01*
X116241805Y-47857004D01*
X116218002Y-47828000D01*
X116176912Y-47794278D01*
X116206680Y-47749727D01*
X116314853Y-47488574D01*
X116370000Y-47211335D01*
X116370000Y-46928665D01*
X116314853Y-46651426D01*
X116206680Y-46390273D01*
X116049637Y-46155241D01*
X115849759Y-45955363D01*
X115614727Y-45798320D01*
X115353574Y-45690147D01*
X115076335Y-45635000D01*
X114793665Y-45635000D01*
X114516426Y-45690147D01*
X114255273Y-45798320D01*
X114020241Y-45955363D01*
X113820363Y-46155241D01*
X113663320Y-46390273D01*
X113555147Y-46651426D01*
X113500000Y-46928665D01*
X113500000Y-47211335D01*
X113555147Y-47488574D01*
X113604615Y-47608001D01*
X113065385Y-47608001D01*
X113114853Y-47488574D01*
X113170000Y-47211335D01*
X113170000Y-46928665D01*
X113114853Y-46651426D01*
X113006680Y-46390273D01*
X112849637Y-46155241D01*
X112649759Y-45955363D01*
X112414727Y-45798320D01*
X112153574Y-45690147D01*
X111947359Y-45649128D01*
X117097008Y-40499480D01*
X117126001Y-40475686D01*
X117149795Y-40446693D01*
X117149799Y-40446689D01*
X117220973Y-40359962D01*
X117220974Y-40359961D01*
X117291546Y-40227932D01*
X117334987Y-40084724D01*
X117389937Y-40029774D01*
X117503205Y-39860256D01*
X117581226Y-39671898D01*
X117621000Y-39471939D01*
X117621000Y-39268061D01*
X117581226Y-39068102D01*
X117503205Y-38879744D01*
X117389937Y-38710226D01*
X117334987Y-38655276D01*
X117291546Y-38512068D01*
X117220974Y-38380039D01*
X117126001Y-38264314D01*
X117096997Y-38240511D01*
X116990488Y-38134002D01*
X116966685Y-38104998D01*
X116850960Y-38010025D01*
X116718931Y-37939453D01*
X116575670Y-37895996D01*
X116464017Y-37884999D01*
X116464006Y-37884999D01*
X116426684Y-37881323D01*
X116389362Y-37884999D01*
X110345725Y-37884999D01*
X110433415Y-37680987D01*
X110480000Y-37462000D01*
X110480000Y-37171904D01*
X110494978Y-37178108D01*
X110680448Y-37215000D01*
X110869552Y-37215000D01*
X111055022Y-37178108D01*
X111229731Y-37105741D01*
X111386964Y-37000681D01*
X111520681Y-36866964D01*
X111625741Y-36709731D01*
X111698108Y-36535022D01*
X111735000Y-36349552D01*
X111735000Y-36160448D01*
X115595000Y-36160448D01*
X115595000Y-36349552D01*
X115631892Y-36535022D01*
X115704259Y-36709731D01*
X115809319Y-36866964D01*
X115943036Y-37000681D01*
X116100269Y-37105741D01*
X116274978Y-37178108D01*
X116460448Y-37215000D01*
X116649552Y-37215000D01*
X116835022Y-37178108D01*
X116850000Y-37171904D01*
X116850000Y-37462000D01*
X116896585Y-37680987D01*
X116984997Y-37886678D01*
X117111839Y-38071169D01*
X117272236Y-38227369D01*
X117460024Y-38349276D01*
X117683126Y-38429119D01*
X117858000Y-38302954D01*
X117858000Y-36912000D01*
X118112000Y-36912000D01*
X118112000Y-38302954D01*
X118286874Y-38429119D01*
X118509976Y-38349276D01*
X118697764Y-38227369D01*
X118858161Y-38071169D01*
X118985003Y-37886678D01*
X119073415Y-37680987D01*
X119120000Y-37462000D01*
X119120000Y-36912000D01*
X118112000Y-36912000D01*
X117858000Y-36912000D01*
X117838000Y-36912000D01*
X117838000Y-36658000D01*
X117858000Y-36658000D01*
X117858000Y-35267046D01*
X118112000Y-35267046D01*
X118112000Y-36658000D01*
X119120000Y-36658000D01*
X119120000Y-36108000D01*
X119073415Y-35889013D01*
X118985003Y-35683322D01*
X118858161Y-35498831D01*
X118697764Y-35342631D01*
X118509976Y-35220724D01*
X118286874Y-35140881D01*
X118112000Y-35267046D01*
X117858000Y-35267046D01*
X117683126Y-35140881D01*
X117460024Y-35220724D01*
X117272236Y-35342631D01*
X117127884Y-35483206D01*
X117009731Y-35404259D01*
X116835022Y-35331892D01*
X116649552Y-35295000D01*
X116460448Y-35295000D01*
X116274978Y-35331892D01*
X116100269Y-35404259D01*
X115943036Y-35509319D01*
X115809319Y-35643036D01*
X115704259Y-35800269D01*
X115631892Y-35974978D01*
X115595000Y-36160448D01*
X111735000Y-36160448D01*
X111698108Y-35974978D01*
X111625741Y-35800269D01*
X111520681Y-35643036D01*
X111386964Y-35509319D01*
X111229731Y-35404259D01*
X111055022Y-35331892D01*
X110869552Y-35295000D01*
X110680448Y-35295000D01*
X110494978Y-35331892D01*
X110320269Y-35404259D01*
X110202116Y-35483206D01*
X110057764Y-35342631D01*
X109869976Y-35220724D01*
X109646874Y-35140881D01*
X109472000Y-35267046D01*
X109472000Y-36658000D01*
X109492000Y-36658000D01*
X109492000Y-36912000D01*
X109472000Y-36912000D01*
X109472000Y-36932000D01*
X109218000Y-36932000D01*
X109218000Y-36912000D01*
X108210000Y-36912000D01*
X108210000Y-37462000D01*
X108256585Y-37680987D01*
X108344275Y-37884999D01*
X104062323Y-37884999D01*
X104025000Y-37881323D01*
X103987677Y-37884999D01*
X103987668Y-37884999D01*
X103876015Y-37895996D01*
X103732754Y-37939453D01*
X103600724Y-38010025D01*
X103526221Y-38071169D01*
X103485000Y-38104998D01*
X103461202Y-38133996D01*
X103008270Y-38586928D01*
X102219999Y-38586928D01*
X102046745Y-38603992D01*
X101880149Y-38654528D01*
X101860557Y-38665000D01*
X101361915Y-38665000D01*
X101291185Y-38578815D01*
X101194494Y-38499463D01*
X101084180Y-38440498D01*
X100964482Y-38404188D01*
X100840000Y-38391928D01*
X99340000Y-38391928D01*
X99215518Y-38404188D01*
X99095820Y-38440498D01*
X98985506Y-38499463D01*
X98940000Y-38536809D01*
X98894494Y-38499463D01*
X98784180Y-38440498D01*
X98664482Y-38404188D01*
X98540000Y-38391928D01*
X97040000Y-38391928D01*
X96915518Y-38404188D01*
X96795820Y-38440498D01*
X96685506Y-38499463D01*
X96640000Y-38536809D01*
X96594494Y-38499463D01*
X96484180Y-38440498D01*
X96364482Y-38404188D01*
X96240000Y-38391928D01*
X95775750Y-38395000D01*
X95617000Y-38553750D01*
X95617000Y-39903000D01*
X95637000Y-39903000D01*
X95637000Y-40157000D01*
X95617000Y-40157000D01*
X95617000Y-40177000D01*
X95363000Y-40177000D01*
X95363000Y-40157000D01*
X95343000Y-40157000D01*
X95343000Y-39903000D01*
X95363000Y-39903000D01*
X95363000Y-38553750D01*
X95204250Y-38395000D01*
X94740000Y-38391928D01*
X94615518Y-38404188D01*
X94495820Y-38440498D01*
X94385506Y-38499463D01*
X94288815Y-38578815D01*
X94209463Y-38675506D01*
X94150498Y-38785820D01*
X94129053Y-38856513D01*
X94061185Y-38773815D01*
X93964494Y-38694463D01*
X93854180Y-38635498D01*
X93734482Y-38599188D01*
X93610000Y-38586928D01*
X92995750Y-38590000D01*
X92837000Y-38748750D01*
X92837000Y-39673000D01*
X92857000Y-39673000D01*
X92857000Y-39927000D01*
X92837000Y-39927000D01*
X92837000Y-40851250D01*
X92995750Y-41010000D01*
X93610000Y-41013072D01*
X93734482Y-41000812D01*
X93854180Y-40964502D01*
X93964494Y-40905537D01*
X94061185Y-40826185D01*
X94103024Y-40775204D01*
X94101928Y-41030000D01*
X94114188Y-41154482D01*
X94150498Y-41274180D01*
X94209463Y-41384494D01*
X94288815Y-41481185D01*
X94385506Y-41560537D01*
X94487397Y-41615000D01*
X93719443Y-41615000D01*
X93699851Y-41604528D01*
X93533255Y-41553992D01*
X93360001Y-41536928D01*
X92059999Y-41536928D01*
X91886745Y-41553992D01*
X91720149Y-41604528D01*
X91566613Y-41686595D01*
X91432038Y-41797038D01*
X91321595Y-41931613D01*
X91239528Y-42085149D01*
X91188992Y-42251745D01*
X91171928Y-42424999D01*
X91171928Y-43055000D01*
X83380711Y-43055000D01*
X83336774Y-43011063D01*
X83167848Y-42898191D01*
X83386088Y-42822795D01*
X83560044Y-42729814D01*
X83655808Y-42465413D01*
X82700000Y-41509605D01*
X81744192Y-42465413D01*
X81839956Y-42729814D01*
X82129571Y-42870704D01*
X82204635Y-42890384D01*
X82186744Y-42897795D01*
X82017226Y-43011063D01*
X81873063Y-43155226D01*
X81759795Y-43324744D01*
X81681774Y-43513102D01*
X81642000Y-43713061D01*
X81642000Y-43916939D01*
X81681774Y-44116898D01*
X81759795Y-44305256D01*
X81873063Y-44474774D01*
X82017226Y-44618937D01*
X82186744Y-44732205D01*
X82375102Y-44810226D01*
X82575061Y-44850000D01*
X82778939Y-44850000D01*
X82978898Y-44810226D01*
X83167256Y-44732205D01*
X83336774Y-44618937D01*
X83380711Y-44575000D01*
X91607678Y-44575000D01*
X91645000Y-44578676D01*
X91682322Y-44575000D01*
X91682333Y-44575000D01*
X91793986Y-44564003D01*
X91937247Y-44520546D01*
X92069276Y-44449974D01*
X92185001Y-44355001D01*
X92208803Y-44325998D01*
X92571730Y-43963072D01*
X93360001Y-43963072D01*
X93533255Y-43946008D01*
X93699851Y-43895472D01*
X93719443Y-43885000D01*
X96479869Y-43885000D01*
X96655001Y-44060132D01*
X96655001Y-44691928D01*
X95890000Y-44691928D01*
X95765518Y-44704188D01*
X95645820Y-44740498D01*
X95535506Y-44799463D01*
X95438815Y-44878815D01*
X95359463Y-44975506D01*
X95300498Y-45085820D01*
X95264188Y-45205518D01*
X95251928Y-45330000D01*
X95251928Y-47330000D01*
X95264188Y-47454482D01*
X95300498Y-47574180D01*
X95359463Y-47684494D01*
X95438815Y-47781185D01*
X95535506Y-47860537D01*
X95645820Y-47919502D01*
X95765518Y-47955812D01*
X95890000Y-47968072D01*
X96449358Y-47968072D01*
X96414348Y-48083483D01*
X96336582Y-48041916D01*
X96188745Y-47997071D01*
X96035000Y-47981928D01*
X95735000Y-47981928D01*
X95581255Y-47997071D01*
X95433418Y-48041916D01*
X95297171Y-48114742D01*
X95250000Y-48153454D01*
X95202829Y-48114742D01*
X95066582Y-48041916D01*
X94918745Y-47997071D01*
X94765000Y-47981928D01*
X94465000Y-47981928D01*
X94311255Y-47997071D01*
X94163418Y-48041916D01*
X94029064Y-48113730D01*
X93999494Y-48089463D01*
X93889180Y-48030498D01*
X93769482Y-47994188D01*
X93645000Y-47981928D01*
X93630750Y-47985000D01*
X93472000Y-48143750D01*
X93472000Y-49468000D01*
X93492000Y-49468000D01*
X93492000Y-49722000D01*
X93472000Y-49722000D01*
X93472000Y-51046250D01*
X93609666Y-51183916D01*
X93580000Y-51333061D01*
X93580000Y-51536939D01*
X93619774Y-51736898D01*
X93697795Y-51925256D01*
X93811063Y-52094774D01*
X93955226Y-52238937D01*
X94124744Y-52352205D01*
X94313102Y-52430226D01*
X94513061Y-52470000D01*
X94716939Y-52470000D01*
X94880793Y-52437408D01*
X94833211Y-52484990D01*
X93477332Y-52484990D01*
X93440009Y-52481314D01*
X93402687Y-52484990D01*
X93402677Y-52484990D01*
X93291024Y-52495987D01*
X93147763Y-52539444D01*
X93015734Y-52610016D01*
X92900009Y-52704989D01*
X92876210Y-52733988D01*
X92834001Y-52776198D01*
X92804999Y-52799999D01*
X92749871Y-52867174D01*
X92710026Y-52915724D01*
X92644757Y-53037832D01*
X92639454Y-53047754D01*
X92595997Y-53191015D01*
X92593466Y-53216707D01*
X92539742Y-53282171D01*
X92466916Y-53418418D01*
X92422071Y-53566255D01*
X92406928Y-53720000D01*
X92406928Y-53785000D01*
X87775150Y-53785000D01*
X87629987Y-53567748D01*
X87402252Y-53340013D01*
X87134463Y-53161082D01*
X86836912Y-53037832D01*
X86521033Y-52975000D01*
X86198967Y-52975000D01*
X85883088Y-53037832D01*
X85585537Y-53161082D01*
X85317748Y-53340013D01*
X85090013Y-53567748D01*
X84911082Y-53835537D01*
X84905091Y-53850000D01*
X81314909Y-53850000D01*
X81308918Y-53835537D01*
X81129987Y-53567748D01*
X80902252Y-53340013D01*
X80634463Y-53161082D01*
X80336912Y-53037832D01*
X80021033Y-52975000D01*
X79698967Y-52975000D01*
X79383088Y-53037832D01*
X79085537Y-53161082D01*
X78817748Y-53340013D01*
X78590013Y-53567748D01*
X78411082Y-53835537D01*
X78287832Y-54133088D01*
X78225000Y-54448967D01*
X77191140Y-54448967D01*
X77353475Y-54286632D01*
X77515990Y-54043411D01*
X77627932Y-53773158D01*
X77685000Y-53486260D01*
X77685000Y-53193740D01*
X77627932Y-52906842D01*
X77515990Y-52636589D01*
X77353475Y-52393368D01*
X77146632Y-52186525D01*
X76972240Y-52070000D01*
X77146632Y-51953475D01*
X77353475Y-51746632D01*
X77515990Y-51503411D01*
X77627932Y-51233158D01*
X77685000Y-50946260D01*
X77685000Y-50653740D01*
X77627932Y-50366842D01*
X77515990Y-50096589D01*
X77417353Y-49948967D01*
X78225000Y-49948967D01*
X78225000Y-50271033D01*
X78287832Y-50586912D01*
X78411082Y-50884463D01*
X78590013Y-51152252D01*
X78817748Y-51379987D01*
X79085537Y-51558918D01*
X79383088Y-51682168D01*
X79698967Y-51745000D01*
X80021033Y-51745000D01*
X80336912Y-51682168D01*
X80634463Y-51558918D01*
X80902252Y-51379987D01*
X81129987Y-51152252D01*
X81308918Y-50884463D01*
X81432168Y-50586912D01*
X81495000Y-50271033D01*
X81495000Y-49948967D01*
X84725000Y-49948967D01*
X84725000Y-50271033D01*
X84787832Y-50586912D01*
X84911082Y-50884463D01*
X85090013Y-51152252D01*
X85317748Y-51379987D01*
X85585537Y-51558918D01*
X85883088Y-51682168D01*
X86198967Y-51745000D01*
X86521033Y-51745000D01*
X86836912Y-51682168D01*
X87134463Y-51558918D01*
X87402252Y-51379987D01*
X87629987Y-51152252D01*
X87808918Y-50884463D01*
X87932168Y-50586912D01*
X87935531Y-50570000D01*
X92406928Y-50570000D01*
X92419188Y-50694482D01*
X92455498Y-50814180D01*
X92514463Y-50924494D01*
X92593815Y-51021185D01*
X92690506Y-51100537D01*
X92800820Y-51159502D01*
X92920518Y-51195812D01*
X93045000Y-51208072D01*
X93059250Y-51205000D01*
X93218000Y-51046250D01*
X93218000Y-49722000D01*
X92568750Y-49722000D01*
X92410000Y-49880750D01*
X92406928Y-50570000D01*
X87935531Y-50570000D01*
X87995000Y-50271033D01*
X87995000Y-49948967D01*
X87932168Y-49633088D01*
X87808918Y-49335537D01*
X87629987Y-49067748D01*
X87402252Y-48840013D01*
X87134463Y-48661082D01*
X87035283Y-48620000D01*
X92406928Y-48620000D01*
X92410000Y-49309250D01*
X92568750Y-49468000D01*
X93218000Y-49468000D01*
X93218000Y-48143750D01*
X93059250Y-47985000D01*
X93045000Y-47981928D01*
X92920518Y-47994188D01*
X92800820Y-48030498D01*
X92690506Y-48089463D01*
X92593815Y-48168815D01*
X92514463Y-48265506D01*
X92455498Y-48375820D01*
X92419188Y-48495518D01*
X92406928Y-48620000D01*
X87035283Y-48620000D01*
X86836912Y-48537832D01*
X86521033Y-48475000D01*
X86198967Y-48475000D01*
X85883088Y-48537832D01*
X85585537Y-48661082D01*
X85317748Y-48840013D01*
X85090013Y-49067748D01*
X84911082Y-49335537D01*
X84787832Y-49633088D01*
X84725000Y-49948967D01*
X81495000Y-49948967D01*
X81432168Y-49633088D01*
X81308918Y-49335537D01*
X81129987Y-49067748D01*
X80902252Y-48840013D01*
X80634463Y-48661082D01*
X80620000Y-48655091D01*
X80620000Y-47512333D01*
X80623677Y-47475000D01*
X80609003Y-47326014D01*
X80565546Y-47182753D01*
X80494974Y-47050724D01*
X80445139Y-46990000D01*
X80410000Y-46947183D01*
X80410000Y-46888061D01*
X80370226Y-46688102D01*
X80292205Y-46499744D01*
X80178937Y-46330226D01*
X80034774Y-46186063D01*
X79865256Y-46072795D01*
X79676898Y-45994774D01*
X79476939Y-45955000D01*
X79273061Y-45955000D01*
X79073102Y-45994774D01*
X78884744Y-46072795D01*
X78715226Y-46186063D01*
X78571063Y-46330226D01*
X78457795Y-46499744D01*
X78379774Y-46688102D01*
X78340000Y-46888061D01*
X78340000Y-47091939D01*
X78379774Y-47291898D01*
X78457795Y-47480256D01*
X78571063Y-47649774D01*
X78715226Y-47793937D01*
X78884744Y-47907205D01*
X79073102Y-47985226D01*
X79100001Y-47990576D01*
X79100001Y-48655091D01*
X79085537Y-48661082D01*
X78817748Y-48840013D01*
X78590013Y-49067748D01*
X78411082Y-49335537D01*
X78287832Y-49633088D01*
X78225000Y-49948967D01*
X77417353Y-49948967D01*
X77353475Y-49853368D01*
X77146632Y-49646525D01*
X76972240Y-49530000D01*
X77146632Y-49413475D01*
X77353475Y-49206632D01*
X77515990Y-48963411D01*
X77627932Y-48693158D01*
X77685000Y-48406260D01*
X77685000Y-48113740D01*
X77627932Y-47826842D01*
X77515990Y-47556589D01*
X77353475Y-47313368D01*
X77221620Y-47181513D01*
X77294180Y-47159502D01*
X77404494Y-47100537D01*
X77501185Y-47021185D01*
X77580537Y-46924494D01*
X77639502Y-46814180D01*
X77675812Y-46694482D01*
X77688072Y-46570000D01*
X77688072Y-44870000D01*
X77675812Y-44745518D01*
X77639502Y-44625820D01*
X77580537Y-44515506D01*
X77501185Y-44418815D01*
X77404494Y-44339463D01*
X77294180Y-44280498D01*
X77174482Y-44244188D01*
X77050000Y-44231928D01*
X75350000Y-44231928D01*
X75225518Y-44244188D01*
X75105820Y-44280498D01*
X74995506Y-44339463D01*
X74898815Y-44418815D01*
X74819463Y-44515506D01*
X74760498Y-44625820D01*
X74724188Y-44745518D01*
X74711928Y-44870000D01*
X73685000Y-44870000D01*
X73685000Y-42465413D01*
X75244192Y-42465413D01*
X75339956Y-42729814D01*
X75629571Y-42870704D01*
X75941108Y-42952384D01*
X76262595Y-42971718D01*
X76581675Y-42927961D01*
X76886088Y-42822795D01*
X77060044Y-42729814D01*
X77155808Y-42465413D01*
X76200000Y-41509605D01*
X75244192Y-42465413D01*
X73685000Y-42465413D01*
X73685000Y-41392595D01*
X74558282Y-41392595D01*
X74602039Y-41711675D01*
X74707205Y-42016088D01*
X74800186Y-42190044D01*
X75064587Y-42285808D01*
X76020395Y-41330000D01*
X76379605Y-41330000D01*
X77335413Y-42285808D01*
X77599814Y-42190044D01*
X77740704Y-41900429D01*
X77822384Y-41588892D01*
X77834189Y-41392595D01*
X81058282Y-41392595D01*
X81102039Y-41711675D01*
X81207205Y-42016088D01*
X81300186Y-42190044D01*
X81564587Y-42285808D01*
X82520395Y-41330000D01*
X82879605Y-41330000D01*
X83835413Y-42285808D01*
X84099814Y-42190044D01*
X84240704Y-41900429D01*
X84322384Y-41588892D01*
X84341718Y-41267405D01*
X84297961Y-40948325D01*
X84192795Y-40643912D01*
X84099814Y-40469956D01*
X83837644Y-40375000D01*
X91171928Y-40375000D01*
X91184188Y-40499482D01*
X91220498Y-40619180D01*
X91279463Y-40729494D01*
X91358815Y-40826185D01*
X91455506Y-40905537D01*
X91565820Y-40964502D01*
X91685518Y-41000812D01*
X91810000Y-41013072D01*
X92424250Y-41010000D01*
X92583000Y-40851250D01*
X92583000Y-39927000D01*
X91333750Y-39927000D01*
X91175000Y-40085750D01*
X91171928Y-40375000D01*
X83837644Y-40375000D01*
X83835413Y-40374192D01*
X82879605Y-41330000D01*
X82520395Y-41330000D01*
X81564587Y-40374192D01*
X81300186Y-40469956D01*
X81159296Y-40759571D01*
X81077616Y-41071108D01*
X81058282Y-41392595D01*
X77834189Y-41392595D01*
X77841718Y-41267405D01*
X77797961Y-40948325D01*
X77692795Y-40643912D01*
X77599814Y-40469956D01*
X77335413Y-40374192D01*
X76379605Y-41330000D01*
X76020395Y-41330000D01*
X75064587Y-40374192D01*
X74800186Y-40469956D01*
X74659296Y-40759571D01*
X74577616Y-41071108D01*
X74558282Y-41392595D01*
X73685000Y-41392595D01*
X73685000Y-40194587D01*
X75244192Y-40194587D01*
X76200000Y-41150395D01*
X77155808Y-40194587D01*
X81744192Y-40194587D01*
X82700000Y-41150395D01*
X83655808Y-40194587D01*
X83560044Y-39930186D01*
X83270429Y-39789296D01*
X82958892Y-39707616D01*
X82637405Y-39688282D01*
X82318325Y-39732039D01*
X82013912Y-39837205D01*
X81839956Y-39930186D01*
X81744192Y-40194587D01*
X77155808Y-40194587D01*
X77060044Y-39930186D01*
X76770429Y-39789296D01*
X76458892Y-39707616D01*
X76137405Y-39688282D01*
X75818325Y-39732039D01*
X75513912Y-39837205D01*
X75339956Y-39930186D01*
X75244192Y-40194587D01*
X73685000Y-40194587D01*
X73685000Y-39225000D01*
X91171928Y-39225000D01*
X91175000Y-39514250D01*
X91333750Y-39673000D01*
X92583000Y-39673000D01*
X92583000Y-38748750D01*
X92424250Y-38590000D01*
X91810000Y-38586928D01*
X91685518Y-38599188D01*
X91565820Y-38635498D01*
X91455506Y-38694463D01*
X91358815Y-38773815D01*
X91279463Y-38870506D01*
X91220498Y-38980820D01*
X91184188Y-39100518D01*
X91171928Y-39225000D01*
X73685000Y-39225000D01*
X73685000Y-36668967D01*
X74565000Y-36668967D01*
X74565000Y-36991033D01*
X74627832Y-37306912D01*
X74751082Y-37604463D01*
X74930013Y-37872252D01*
X75157748Y-38099987D01*
X75425537Y-38278918D01*
X75723088Y-38402168D01*
X76038967Y-38465000D01*
X76361033Y-38465000D01*
X76676912Y-38402168D01*
X76974463Y-38278918D01*
X77242252Y-38099987D01*
X77469987Y-37872252D01*
X77648918Y-37604463D01*
X77772168Y-37306912D01*
X77835000Y-36991033D01*
X77835000Y-36668967D01*
X81065000Y-36668967D01*
X81065000Y-36991033D01*
X81127832Y-37306912D01*
X81251082Y-37604463D01*
X81430013Y-37872252D01*
X81657748Y-38099987D01*
X81925537Y-38278918D01*
X82223088Y-38402168D01*
X82538967Y-38465000D01*
X82861033Y-38465000D01*
X83176912Y-38402168D01*
X83474463Y-38278918D01*
X83742252Y-38099987D01*
X83969987Y-37872252D01*
X84148918Y-37604463D01*
X84272168Y-37306912D01*
X84335000Y-36991033D01*
X84335000Y-36668967D01*
X84272168Y-36353088D01*
X84170649Y-36108000D01*
X108210000Y-36108000D01*
X108210000Y-36658000D01*
X109218000Y-36658000D01*
X109218000Y-35267046D01*
X109043126Y-35140881D01*
X108820024Y-35220724D01*
X108632236Y-35342631D01*
X108471839Y-35498831D01*
X108344997Y-35683322D01*
X108256585Y-35889013D01*
X108210000Y-36108000D01*
X84170649Y-36108000D01*
X84148918Y-36055537D01*
X83969987Y-35787748D01*
X83742252Y-35560013D01*
X83474463Y-35381082D01*
X83176912Y-35257832D01*
X82861033Y-35195000D01*
X82538967Y-35195000D01*
X82223088Y-35257832D01*
X81925537Y-35381082D01*
X81657748Y-35560013D01*
X81430013Y-35787748D01*
X81251082Y-36055537D01*
X81127832Y-36353088D01*
X81065000Y-36668967D01*
X77835000Y-36668967D01*
X77772168Y-36353088D01*
X77648918Y-36055537D01*
X77469987Y-35787748D01*
X77242252Y-35560013D01*
X76974463Y-35381082D01*
X76676912Y-35257832D01*
X76361033Y-35195000D01*
X76038967Y-35195000D01*
X75723088Y-35257832D01*
X75425537Y-35381082D01*
X75157748Y-35560013D01*
X74930013Y-35787748D01*
X74751082Y-36055537D01*
X74627832Y-36353088D01*
X74565000Y-36668967D01*
X73685000Y-36668967D01*
X73685000Y-32732000D01*
X108210000Y-32732000D01*
X108210000Y-33032000D01*
X108256585Y-33250987D01*
X108344997Y-33456678D01*
X108471839Y-33641169D01*
X108632236Y-33797369D01*
X108820024Y-33919276D01*
X109043126Y-33999119D01*
X109218000Y-33872954D01*
X109218000Y-32732000D01*
X109472000Y-32732000D01*
X109472000Y-33872954D01*
X109646874Y-33999119D01*
X109869976Y-33919276D01*
X110057764Y-33797369D01*
X110218161Y-33641169D01*
X110345003Y-33456678D01*
X110433415Y-33250987D01*
X110480000Y-33032000D01*
X110480000Y-32732000D01*
X116850000Y-32732000D01*
X116850000Y-33032000D01*
X116896585Y-33250987D01*
X116984997Y-33456678D01*
X117111839Y-33641169D01*
X117272236Y-33797369D01*
X117460024Y-33919276D01*
X117683126Y-33999119D01*
X117858000Y-33872954D01*
X117858000Y-32732000D01*
X118112000Y-32732000D01*
X118112000Y-33872954D01*
X118286874Y-33999119D01*
X118509976Y-33919276D01*
X118697764Y-33797369D01*
X118858161Y-33641169D01*
X118985003Y-33456678D01*
X119073415Y-33250987D01*
X119120000Y-33032000D01*
X119120000Y-32732000D01*
X118112000Y-32732000D01*
X117858000Y-32732000D01*
X116850000Y-32732000D01*
X110480000Y-32732000D01*
X109472000Y-32732000D01*
X109218000Y-32732000D01*
X108210000Y-32732000D01*
X73685000Y-32732000D01*
X73685000Y-32178000D01*
X108210000Y-32178000D01*
X108210000Y-32478000D01*
X109218000Y-32478000D01*
X109218000Y-31337046D01*
X109472000Y-31337046D01*
X109472000Y-32478000D01*
X110480000Y-32478000D01*
X110480000Y-32178000D01*
X116850000Y-32178000D01*
X116850000Y-32478000D01*
X117858000Y-32478000D01*
X117858000Y-31337046D01*
X118112000Y-31337046D01*
X118112000Y-32478000D01*
X119120000Y-32478000D01*
X119120000Y-32178000D01*
X119073415Y-31959013D01*
X118985003Y-31753322D01*
X118858161Y-31568831D01*
X118697764Y-31412631D01*
X118509976Y-31290724D01*
X118286874Y-31210881D01*
X118112000Y-31337046D01*
X117858000Y-31337046D01*
X117683126Y-31210881D01*
X117460024Y-31290724D01*
X117272236Y-31412631D01*
X117111839Y-31568831D01*
X116984997Y-31753322D01*
X116896585Y-31959013D01*
X116850000Y-32178000D01*
X110480000Y-32178000D01*
X110433415Y-31959013D01*
X110345003Y-31753322D01*
X110218161Y-31568831D01*
X110057764Y-31412631D01*
X109869976Y-31290724D01*
X109646874Y-31210881D01*
X109472000Y-31337046D01*
X109218000Y-31337046D01*
X109043126Y-31210881D01*
X108820024Y-31290724D01*
X108632236Y-31412631D01*
X108471839Y-31568831D01*
X108344997Y-31753322D01*
X108256585Y-31959013D01*
X108210000Y-32178000D01*
X73685000Y-32178000D01*
X73685000Y-31782279D01*
X73699722Y-31632131D01*
X73733953Y-31518754D01*
X73789555Y-31414181D01*
X73864407Y-31322404D01*
X73955664Y-31246909D01*
X74059844Y-31190581D01*
X74172976Y-31155560D01*
X74321022Y-31140000D01*
X119982721Y-31140000D01*
X120132869Y-31154722D01*
%TA.AperFunction,Conductor*%
D23*
G36*
X120132869Y-31154722D02*
G01*
X120246246Y-31188953D01*
X120350819Y-31244555D01*
X120442596Y-31319407D01*
X120518091Y-31410664D01*
X120574419Y-31514844D01*
X120609440Y-31627976D01*
X120625001Y-31776031D01*
X120625000Y-55847721D01*
X120610278Y-55997869D01*
X120576047Y-56111246D01*
X120520446Y-56215817D01*
X120445594Y-56307595D01*
X120354335Y-56383091D01*
X120250160Y-56439419D01*
X120137024Y-56474440D01*
X119988979Y-56490000D01*
X74327279Y-56490000D01*
X74177131Y-56475278D01*
X74063754Y-56441047D01*
X73959183Y-56385446D01*
X73867405Y-56310594D01*
X73791909Y-56219335D01*
X73735581Y-56115160D01*
X73700560Y-56002024D01*
X73685000Y-55853979D01*
X73685000Y-44870000D01*
X74711928Y-44870000D01*
X74711928Y-46570000D01*
X74724188Y-46694482D01*
X74760498Y-46814180D01*
X74819463Y-46924494D01*
X74898815Y-47021185D01*
X74995506Y-47100537D01*
X75105820Y-47159502D01*
X75178380Y-47181513D01*
X75046525Y-47313368D01*
X74884010Y-47556589D01*
X74772068Y-47826842D01*
X74715000Y-48113740D01*
X74715000Y-48406260D01*
X74772068Y-48693158D01*
X74884010Y-48963411D01*
X75046525Y-49206632D01*
X75253368Y-49413475D01*
X75427760Y-49530000D01*
X75253368Y-49646525D01*
X75046525Y-49853368D01*
X74884010Y-50096589D01*
X74772068Y-50366842D01*
X74715000Y-50653740D01*
X74715000Y-50946260D01*
X74772068Y-51233158D01*
X74884010Y-51503411D01*
X75046525Y-51746632D01*
X75253368Y-51953475D01*
X75427760Y-52070000D01*
X75253368Y-52186525D01*
X75046525Y-52393368D01*
X74884010Y-52636589D01*
X74772068Y-52906842D01*
X74715000Y-53193740D01*
X74715000Y-53486260D01*
X74772068Y-53773158D01*
X74884010Y-54043411D01*
X75046525Y-54286632D01*
X75253368Y-54493475D01*
X75496589Y-54655990D01*
X75766842Y-54767932D01*
X76053740Y-54825000D01*
X76346260Y-54825000D01*
X76633158Y-54767932D01*
X76903411Y-54655990D01*
X77146632Y-54493475D01*
X77191140Y-54448967D01*
X78225000Y-54448967D01*
X78225000Y-54771033D01*
X78287832Y-55086912D01*
X78411082Y-55384463D01*
X78590013Y-55652252D01*
X78817748Y-55879987D01*
X79085537Y-56058918D01*
X79383088Y-56182168D01*
X79698967Y-56245000D01*
X80021033Y-56245000D01*
X80336912Y-56182168D01*
X80634463Y-56058918D01*
X80902252Y-55879987D01*
X81129987Y-55652252D01*
X81308918Y-55384463D01*
X81314909Y-55370000D01*
X84905091Y-55370000D01*
X84911082Y-55384463D01*
X85090013Y-55652252D01*
X85317748Y-55879987D01*
X85585537Y-56058918D01*
X85883088Y-56182168D01*
X86198967Y-56245000D01*
X86521033Y-56245000D01*
X86836912Y-56182168D01*
X87134463Y-56058918D01*
X87402252Y-55879987D01*
X87629987Y-55652252D01*
X87808918Y-55384463D01*
X87841833Y-55305000D01*
X92406928Y-55305000D01*
X92406928Y-55370000D01*
X92422071Y-55523745D01*
X92466916Y-55671582D01*
X92539742Y-55807829D01*
X92637749Y-55927251D01*
X92757171Y-56025258D01*
X92893418Y-56098084D01*
X93041255Y-56142929D01*
X93195000Y-56158072D01*
X93495000Y-56158072D01*
X93648745Y-56142929D01*
X93796582Y-56098084D01*
X93932829Y-56025258D01*
X93980000Y-55986546D01*
X94027171Y-56025258D01*
X94163418Y-56098084D01*
X94311255Y-56142929D01*
X94465000Y-56158072D01*
X94765000Y-56158072D01*
X94918745Y-56142929D01*
X95066582Y-56098084D01*
X95202829Y-56025258D01*
X95250000Y-55986546D01*
X95297171Y-56025258D01*
X95433418Y-56098084D01*
X95581255Y-56142929D01*
X95735000Y-56158072D01*
X96035000Y-56158072D01*
X96188745Y-56142929D01*
X96336582Y-56098084D01*
X96472829Y-56025258D01*
X96520000Y-55986546D01*
X96567171Y-56025258D01*
X96703418Y-56098084D01*
X96851255Y-56142929D01*
X97005000Y-56158072D01*
X97305000Y-56158072D01*
X97458745Y-56142929D01*
X97606582Y-56098084D01*
X97742829Y-56025258D01*
X97790000Y-55986546D01*
X97837171Y-56025258D01*
X97973418Y-56098084D01*
X98121255Y-56142929D01*
X98275000Y-56158072D01*
X98575000Y-56158072D01*
X98728745Y-56142929D01*
X98876582Y-56098084D01*
X99012829Y-56025258D01*
X99060000Y-55986546D01*
X99107171Y-56025258D01*
X99243418Y-56098084D01*
X99391255Y-56142929D01*
X99545000Y-56158072D01*
X99845000Y-56158072D01*
X99998745Y-56142929D01*
X100146582Y-56098084D01*
X100282829Y-56025258D01*
X100330000Y-55986546D01*
X100377171Y-56025258D01*
X100513418Y-56098084D01*
X100661255Y-56142929D01*
X100815000Y-56158072D01*
X101115000Y-56158072D01*
X101268745Y-56142929D01*
X101416582Y-56098084D01*
X101552829Y-56025258D01*
X101600000Y-55986546D01*
X101647171Y-56025258D01*
X101783418Y-56098084D01*
X101931255Y-56142929D01*
X102085000Y-56158072D01*
X102385000Y-56158072D01*
X102538745Y-56142929D01*
X102686582Y-56098084D01*
X102822829Y-56025258D01*
X102942251Y-55927251D01*
X103040258Y-55807829D01*
X103113084Y-55671582D01*
X103157929Y-55523745D01*
X103173072Y-55370000D01*
X103173072Y-53720000D01*
X103157929Y-53566255D01*
X103113084Y-53418418D01*
X103040258Y-53282171D01*
X102942251Y-53162749D01*
X102822829Y-53064742D01*
X102686582Y-52991916D01*
X102538745Y-52947071D01*
X102385000Y-52931928D01*
X102085000Y-52931928D01*
X101931255Y-52947071D01*
X101783418Y-52991916D01*
X101647171Y-53064742D01*
X101600000Y-53103454D01*
X101552829Y-53064742D01*
X101509817Y-53041752D01*
X105702999Y-48848571D01*
X105703000Y-50545667D01*
X105699323Y-50582999D01*
X105703000Y-50620332D01*
X105713997Y-50731985D01*
X105717937Y-50744974D01*
X105757453Y-50875245D01*
X105828025Y-51007275D01*
X105883818Y-51075258D01*
X105922999Y-51123000D01*
X105951997Y-51146798D01*
X107731928Y-52926730D01*
X107731928Y-54190000D01*
X107744188Y-54314482D01*
X107780498Y-54434180D01*
X107839463Y-54544494D01*
X107918815Y-54641185D01*
X108015506Y-54720537D01*
X108125820Y-54779502D01*
X108245518Y-54815812D01*
X108370000Y-54828072D01*
X110070000Y-54828072D01*
X110194482Y-54815812D01*
X110314180Y-54779502D01*
X110424494Y-54720537D01*
X110521185Y-54641185D01*
X110600537Y-54544494D01*
X110659502Y-54434180D01*
X110695812Y-54314482D01*
X110708072Y-54190000D01*
X110708072Y-53696890D01*
X116668524Y-53696890D01*
X116713175Y-53844099D01*
X116838359Y-54106920D01*
X117012412Y-54340269D01*
X117228645Y-54535178D01*
X117478748Y-54684157D01*
X117753109Y-54781481D01*
X117983000Y-54660814D01*
X117983000Y-53467000D01*
X118237000Y-53467000D01*
X118237000Y-54660814D01*
X118466891Y-54781481D01*
X118741252Y-54684157D01*
X118991355Y-54535178D01*
X119207588Y-54340269D01*
X119381641Y-54106920D01*
X119506825Y-53844099D01*
X119551476Y-53696890D01*
X119430155Y-53467000D01*
X118237000Y-53467000D01*
X117983000Y-53467000D01*
X116789845Y-53467000D01*
X116668524Y-53696890D01*
X110708072Y-53696890D01*
X110708072Y-53464735D01*
X110810518Y-53495812D01*
X110935000Y-53508072D01*
X111449250Y-53505000D01*
X111608000Y-53346250D01*
X111608000Y-52197000D01*
X111862000Y-52197000D01*
X111862000Y-53346250D01*
X112020750Y-53505000D01*
X112535000Y-53508072D01*
X112659482Y-53495812D01*
X112779180Y-53459502D01*
X112889494Y-53400537D01*
X112986185Y-53321185D01*
X113065537Y-53224494D01*
X113124502Y-53114180D01*
X113160812Y-52994482D01*
X113173072Y-52870000D01*
X113170000Y-52355750D01*
X113011250Y-52197000D01*
X111862000Y-52197000D01*
X111608000Y-52197000D01*
X111588000Y-52197000D01*
X111588000Y-51943000D01*
X111608000Y-51943000D01*
X111608000Y-51923000D01*
X111862000Y-51923000D01*
X111862000Y-51943000D01*
X113011250Y-51943000D01*
X113170000Y-51784250D01*
X113173072Y-51270000D01*
X113160812Y-51145518D01*
X113124502Y-51025820D01*
X113065537Y-50915506D01*
X112986185Y-50818815D01*
X112889494Y-50739463D01*
X112779180Y-50680498D01*
X112683057Y-50651339D01*
X112849637Y-50484759D01*
X113006680Y-50249727D01*
X113114853Y-49988574D01*
X113170000Y-49711335D01*
X113170000Y-49428665D01*
X113114853Y-49151426D01*
X113105150Y-49128001D01*
X113564850Y-49128001D01*
X113555147Y-49151426D01*
X113500000Y-49428665D01*
X113500000Y-49711335D01*
X113555147Y-49988574D01*
X113663320Y-50249727D01*
X113820363Y-50484759D01*
X114020241Y-50684637D01*
X114222827Y-50820000D01*
X114020241Y-50955363D01*
X113820363Y-51155241D01*
X113663320Y-51390273D01*
X113555147Y-51651426D01*
X113500000Y-51928665D01*
X113500000Y-52211335D01*
X113555147Y-52488574D01*
X113663320Y-52749727D01*
X113820363Y-52984759D01*
X114020241Y-53184637D01*
X114255273Y-53341680D01*
X114516426Y-53449853D01*
X114793665Y-53505000D01*
X115076335Y-53505000D01*
X115353574Y-53449853D01*
X115614727Y-53341680D01*
X115849759Y-53184637D01*
X116049637Y-52984759D01*
X116206680Y-52749727D01*
X116314853Y-52488574D01*
X116370000Y-52211335D01*
X116370000Y-51928665D01*
X116314853Y-51651426D01*
X116206680Y-51390273D01*
X116049637Y-51155241D01*
X115849759Y-50955363D01*
X115647173Y-50820000D01*
X115849759Y-50684637D01*
X116049637Y-50484759D01*
X116206680Y-50249727D01*
X116288176Y-50052978D01*
X116668790Y-50433592D01*
X116625000Y-50653740D01*
X116625000Y-50946260D01*
X116682068Y-51233158D01*
X116794010Y-51503411D01*
X116956525Y-51746632D01*
X117163368Y-51953475D01*
X117345534Y-52075195D01*
X117228645Y-52144822D01*
X117012412Y-52339731D01*
X116838359Y-52573080D01*
X116713175Y-52835901D01*
X116668524Y-52983110D01*
X116789845Y-53213000D01*
X117983000Y-53213000D01*
X117983000Y-53193000D01*
X118237000Y-53193000D01*
X118237000Y-53213000D01*
X119430155Y-53213000D01*
X119551476Y-52983110D01*
X119506825Y-52835901D01*
X119381641Y-52573080D01*
X119207588Y-52339731D01*
X118991355Y-52144822D01*
X118874466Y-52075195D01*
X119056632Y-51953475D01*
X119263475Y-51746632D01*
X119425990Y-51503411D01*
X119537932Y-51233158D01*
X119595000Y-50946260D01*
X119595000Y-50653740D01*
X119537932Y-50366842D01*
X119425990Y-50096589D01*
X119263475Y-49853368D01*
X119056632Y-49646525D01*
X118882240Y-49530000D01*
X119056632Y-49413475D01*
X119263475Y-49206632D01*
X119425990Y-48963411D01*
X119537932Y-48693158D01*
X119595000Y-48406260D01*
X119595000Y-48113740D01*
X119537932Y-47826842D01*
X119425990Y-47556589D01*
X119263475Y-47313368D01*
X119131620Y-47181513D01*
X119204180Y-47159502D01*
X119314494Y-47100537D01*
X119411185Y-47021185D01*
X119490537Y-46924494D01*
X119549502Y-46814180D01*
X119585812Y-46694482D01*
X119598072Y-46570000D01*
X119598072Y-44870000D01*
X119585812Y-44745518D01*
X119549502Y-44625820D01*
X119490537Y-44515506D01*
X119411185Y-44418815D01*
X119314494Y-44339463D01*
X119204180Y-44280498D01*
X119084482Y-44244188D01*
X118960000Y-44231928D01*
X117260000Y-44231928D01*
X117135518Y-44244188D01*
X117015820Y-44280498D01*
X116905506Y-44339463D01*
X116808815Y-44418815D01*
X116729463Y-44515506D01*
X116670498Y-44625820D01*
X116634188Y-44745518D01*
X116621928Y-44870000D01*
X116621928Y-46570000D01*
X116634188Y-46694482D01*
X116670498Y-46814180D01*
X116729463Y-46924494D01*
X116808815Y-47021185D01*
X116905506Y-47100537D01*
X117015820Y-47159502D01*
X117088380Y-47181513D01*
X116956525Y-47313368D01*
X116794010Y-47556589D01*
X116682068Y-47826842D01*
X116625000Y-48113740D01*
X116625000Y-48240199D01*
X116241805Y-47857004D01*
X116218002Y-47828000D01*
X116176912Y-47794278D01*
X116206680Y-47749727D01*
X116314853Y-47488574D01*
X116370000Y-47211335D01*
X116370000Y-46928665D01*
X116314853Y-46651426D01*
X116206680Y-46390273D01*
X116049637Y-46155241D01*
X115849759Y-45955363D01*
X115614727Y-45798320D01*
X115353574Y-45690147D01*
X115076335Y-45635000D01*
X114793665Y-45635000D01*
X114516426Y-45690147D01*
X114255273Y-45798320D01*
X114020241Y-45955363D01*
X113820363Y-46155241D01*
X113663320Y-46390273D01*
X113555147Y-46651426D01*
X113500000Y-46928665D01*
X113500000Y-47211335D01*
X113555147Y-47488574D01*
X113604615Y-47608001D01*
X113065385Y-47608001D01*
X113114853Y-47488574D01*
X113170000Y-47211335D01*
X113170000Y-46928665D01*
X113114853Y-46651426D01*
X113006680Y-46390273D01*
X112849637Y-46155241D01*
X112649759Y-45955363D01*
X112414727Y-45798320D01*
X112153574Y-45690147D01*
X111947359Y-45649128D01*
X117097008Y-40499480D01*
X117126001Y-40475686D01*
X117149795Y-40446693D01*
X117149799Y-40446689D01*
X117220973Y-40359962D01*
X117220974Y-40359961D01*
X117291546Y-40227932D01*
X117334987Y-40084724D01*
X117389937Y-40029774D01*
X117503205Y-39860256D01*
X117581226Y-39671898D01*
X117621000Y-39471939D01*
X117621000Y-39268061D01*
X117581226Y-39068102D01*
X117503205Y-38879744D01*
X117389937Y-38710226D01*
X117334987Y-38655276D01*
X117291546Y-38512068D01*
X117220974Y-38380039D01*
X117126001Y-38264314D01*
X117096997Y-38240511D01*
X116990488Y-38134002D01*
X116966685Y-38104998D01*
X116850960Y-38010025D01*
X116718931Y-37939453D01*
X116575670Y-37895996D01*
X116464017Y-37884999D01*
X116464006Y-37884999D01*
X116426684Y-37881323D01*
X116389362Y-37884999D01*
X110345725Y-37884999D01*
X110433415Y-37680987D01*
X110480000Y-37462000D01*
X110480000Y-37171904D01*
X110494978Y-37178108D01*
X110680448Y-37215000D01*
X110869552Y-37215000D01*
X111055022Y-37178108D01*
X111229731Y-37105741D01*
X111386964Y-37000681D01*
X111520681Y-36866964D01*
X111625741Y-36709731D01*
X111698108Y-36535022D01*
X111735000Y-36349552D01*
X111735000Y-36160448D01*
X115595000Y-36160448D01*
X115595000Y-36349552D01*
X115631892Y-36535022D01*
X115704259Y-36709731D01*
X115809319Y-36866964D01*
X115943036Y-37000681D01*
X116100269Y-37105741D01*
X116274978Y-37178108D01*
X116460448Y-37215000D01*
X116649552Y-37215000D01*
X116835022Y-37178108D01*
X116850000Y-37171904D01*
X116850000Y-37462000D01*
X116896585Y-37680987D01*
X116984997Y-37886678D01*
X117111839Y-38071169D01*
X117272236Y-38227369D01*
X117460024Y-38349276D01*
X117683126Y-38429119D01*
X117858000Y-38302954D01*
X117858000Y-36912000D01*
X118112000Y-36912000D01*
X118112000Y-38302954D01*
X118286874Y-38429119D01*
X118509976Y-38349276D01*
X118697764Y-38227369D01*
X118858161Y-38071169D01*
X118985003Y-37886678D01*
X119073415Y-37680987D01*
X119120000Y-37462000D01*
X119120000Y-36912000D01*
X118112000Y-36912000D01*
X117858000Y-36912000D01*
X117838000Y-36912000D01*
X117838000Y-36658000D01*
X117858000Y-36658000D01*
X117858000Y-35267046D01*
X118112000Y-35267046D01*
X118112000Y-36658000D01*
X119120000Y-36658000D01*
X119120000Y-36108000D01*
X119073415Y-35889013D01*
X118985003Y-35683322D01*
X118858161Y-35498831D01*
X118697764Y-35342631D01*
X118509976Y-35220724D01*
X118286874Y-35140881D01*
X118112000Y-35267046D01*
X117858000Y-35267046D01*
X117683126Y-35140881D01*
X117460024Y-35220724D01*
X117272236Y-35342631D01*
X117127884Y-35483206D01*
X117009731Y-35404259D01*
X116835022Y-35331892D01*
X116649552Y-35295000D01*
X116460448Y-35295000D01*
X116274978Y-35331892D01*
X116100269Y-35404259D01*
X115943036Y-35509319D01*
X115809319Y-35643036D01*
X115704259Y-35800269D01*
X115631892Y-35974978D01*
X115595000Y-36160448D01*
X111735000Y-36160448D01*
X111698108Y-35974978D01*
X111625741Y-35800269D01*
X111520681Y-35643036D01*
X111386964Y-35509319D01*
X111229731Y-35404259D01*
X111055022Y-35331892D01*
X110869552Y-35295000D01*
X110680448Y-35295000D01*
X110494978Y-35331892D01*
X110320269Y-35404259D01*
X110202116Y-35483206D01*
X110057764Y-35342631D01*
X109869976Y-35220724D01*
X109646874Y-35140881D01*
X109472000Y-35267046D01*
X109472000Y-36658000D01*
X109492000Y-36658000D01*
X109492000Y-36912000D01*
X109472000Y-36912000D01*
X109472000Y-36932000D01*
X109218000Y-36932000D01*
X109218000Y-36912000D01*
X108210000Y-36912000D01*
X108210000Y-37462000D01*
X108256585Y-37680987D01*
X108344275Y-37884999D01*
X104062323Y-37884999D01*
X104025000Y-37881323D01*
X103987677Y-37884999D01*
X103987668Y-37884999D01*
X103876015Y-37895996D01*
X103732754Y-37939453D01*
X103600724Y-38010025D01*
X103526221Y-38071169D01*
X103485000Y-38104998D01*
X103461202Y-38133996D01*
X103008270Y-38586928D01*
X102219999Y-38586928D01*
X102046745Y-38603992D01*
X101880149Y-38654528D01*
X101860557Y-38665000D01*
X101361915Y-38665000D01*
X101291185Y-38578815D01*
X101194494Y-38499463D01*
X101084180Y-38440498D01*
X100964482Y-38404188D01*
X100840000Y-38391928D01*
X99340000Y-38391928D01*
X99215518Y-38404188D01*
X99095820Y-38440498D01*
X98985506Y-38499463D01*
X98940000Y-38536809D01*
X98894494Y-38499463D01*
X98784180Y-38440498D01*
X98664482Y-38404188D01*
X98540000Y-38391928D01*
X97040000Y-38391928D01*
X96915518Y-38404188D01*
X96795820Y-38440498D01*
X96685506Y-38499463D01*
X96640000Y-38536809D01*
X96594494Y-38499463D01*
X96484180Y-38440498D01*
X96364482Y-38404188D01*
X96240000Y-38391928D01*
X95775750Y-38395000D01*
X95617000Y-38553750D01*
X95617000Y-39903000D01*
X95637000Y-39903000D01*
X95637000Y-40157000D01*
X95617000Y-40157000D01*
X95617000Y-40177000D01*
X95363000Y-40177000D01*
X95363000Y-40157000D01*
X95343000Y-40157000D01*
X95343000Y-39903000D01*
X95363000Y-39903000D01*
X95363000Y-38553750D01*
X95204250Y-38395000D01*
X94740000Y-38391928D01*
X94615518Y-38404188D01*
X94495820Y-38440498D01*
X94385506Y-38499463D01*
X94288815Y-38578815D01*
X94209463Y-38675506D01*
X94150498Y-38785820D01*
X94129053Y-38856513D01*
X94061185Y-38773815D01*
X93964494Y-38694463D01*
X93854180Y-38635498D01*
X93734482Y-38599188D01*
X93610000Y-38586928D01*
X92995750Y-38590000D01*
X92837000Y-38748750D01*
X92837000Y-39673000D01*
X92857000Y-39673000D01*
X92857000Y-39927000D01*
X92837000Y-39927000D01*
X92837000Y-40851250D01*
X92995750Y-41010000D01*
X93610000Y-41013072D01*
X93734482Y-41000812D01*
X93854180Y-40964502D01*
X93964494Y-40905537D01*
X94061185Y-40826185D01*
X94103024Y-40775204D01*
X94101928Y-41030000D01*
X94114188Y-41154482D01*
X94150498Y-41274180D01*
X94209463Y-41384494D01*
X94288815Y-41481185D01*
X94385506Y-41560537D01*
X94487397Y-41615000D01*
X93719443Y-41615000D01*
X93699851Y-41604528D01*
X93533255Y-41553992D01*
X93360001Y-41536928D01*
X92059999Y-41536928D01*
X91886745Y-41553992D01*
X91720149Y-41604528D01*
X91566613Y-41686595D01*
X91432038Y-41797038D01*
X91321595Y-41931613D01*
X91239528Y-42085149D01*
X91188992Y-42251745D01*
X91171928Y-42424999D01*
X91171928Y-43055000D01*
X83380711Y-43055000D01*
X83336774Y-43011063D01*
X83167848Y-42898191D01*
X83386088Y-42822795D01*
X83560044Y-42729814D01*
X83655808Y-42465413D01*
X82700000Y-41509605D01*
X81744192Y-42465413D01*
X81839956Y-42729814D01*
X82129571Y-42870704D01*
X82204635Y-42890384D01*
X82186744Y-42897795D01*
X82017226Y-43011063D01*
X81873063Y-43155226D01*
X81759795Y-43324744D01*
X81681774Y-43513102D01*
X81642000Y-43713061D01*
X81642000Y-43916939D01*
X81681774Y-44116898D01*
X81759795Y-44305256D01*
X81873063Y-44474774D01*
X82017226Y-44618937D01*
X82186744Y-44732205D01*
X82375102Y-44810226D01*
X82575061Y-44850000D01*
X82778939Y-44850000D01*
X82978898Y-44810226D01*
X83167256Y-44732205D01*
X83336774Y-44618937D01*
X83380711Y-44575000D01*
X91607678Y-44575000D01*
X91645000Y-44578676D01*
X91682322Y-44575000D01*
X91682333Y-44575000D01*
X91793986Y-44564003D01*
X91937247Y-44520546D01*
X92069276Y-44449974D01*
X92185001Y-44355001D01*
X92208803Y-44325998D01*
X92571730Y-43963072D01*
X93360001Y-43963072D01*
X93533255Y-43946008D01*
X93699851Y-43895472D01*
X93719443Y-43885000D01*
X96479869Y-43885000D01*
X96655001Y-44060132D01*
X96655001Y-44691928D01*
X95890000Y-44691928D01*
X95765518Y-44704188D01*
X95645820Y-44740498D01*
X95535506Y-44799463D01*
X95438815Y-44878815D01*
X95359463Y-44975506D01*
X95300498Y-45085820D01*
X95264188Y-45205518D01*
X95251928Y-45330000D01*
X95251928Y-47330000D01*
X95264188Y-47454482D01*
X95300498Y-47574180D01*
X95359463Y-47684494D01*
X95438815Y-47781185D01*
X95535506Y-47860537D01*
X95645820Y-47919502D01*
X95765518Y-47955812D01*
X95890000Y-47968072D01*
X96449358Y-47968072D01*
X96414348Y-48083483D01*
X96336582Y-48041916D01*
X96188745Y-47997071D01*
X96035000Y-47981928D01*
X95735000Y-47981928D01*
X95581255Y-47997071D01*
X95433418Y-48041916D01*
X95297171Y-48114742D01*
X95250000Y-48153454D01*
X95202829Y-48114742D01*
X95066582Y-48041916D01*
X94918745Y-47997071D01*
X94765000Y-47981928D01*
X94465000Y-47981928D01*
X94311255Y-47997071D01*
X94163418Y-48041916D01*
X94029064Y-48113730D01*
X93999494Y-48089463D01*
X93889180Y-48030498D01*
X93769482Y-47994188D01*
X93645000Y-47981928D01*
X93630750Y-47985000D01*
X93472000Y-48143750D01*
X93472000Y-49468000D01*
X93492000Y-49468000D01*
X93492000Y-49722000D01*
X93472000Y-49722000D01*
X93472000Y-51046250D01*
X93609666Y-51183916D01*
X93580000Y-51333061D01*
X93580000Y-51536939D01*
X93619774Y-51736898D01*
X93697795Y-51925256D01*
X93811063Y-52094774D01*
X93955226Y-52238937D01*
X94124744Y-52352205D01*
X94313102Y-52430226D01*
X94513061Y-52470000D01*
X94716939Y-52470000D01*
X94880793Y-52437408D01*
X94833211Y-52484990D01*
X93477332Y-52484990D01*
X93440009Y-52481314D01*
X93402687Y-52484990D01*
X93402677Y-52484990D01*
X93291024Y-52495987D01*
X93147763Y-52539444D01*
X93015734Y-52610016D01*
X92900009Y-52704989D01*
X92876210Y-52733988D01*
X92834001Y-52776198D01*
X92804999Y-52799999D01*
X92749871Y-52867174D01*
X92710026Y-52915724D01*
X92644757Y-53037832D01*
X92639454Y-53047754D01*
X92595997Y-53191015D01*
X92593466Y-53216707D01*
X92539742Y-53282171D01*
X92466916Y-53418418D01*
X92422071Y-53566255D01*
X92406928Y-53720000D01*
X92406928Y-53785000D01*
X87775150Y-53785000D01*
X87629987Y-53567748D01*
X87402252Y-53340013D01*
X87134463Y-53161082D01*
X86836912Y-53037832D01*
X86521033Y-52975000D01*
X86198967Y-52975000D01*
X85883088Y-53037832D01*
X85585537Y-53161082D01*
X85317748Y-53340013D01*
X85090013Y-53567748D01*
X84911082Y-53835537D01*
X84905091Y-53850000D01*
X81314909Y-53850000D01*
X81308918Y-53835537D01*
X81129987Y-53567748D01*
X80902252Y-53340013D01*
X80634463Y-53161082D01*
X80336912Y-53037832D01*
X80021033Y-52975000D01*
X79698967Y-52975000D01*
X79383088Y-53037832D01*
X79085537Y-53161082D01*
X78817748Y-53340013D01*
X78590013Y-53567748D01*
X78411082Y-53835537D01*
X78287832Y-54133088D01*
X78225000Y-54448967D01*
X77191140Y-54448967D01*
X77353475Y-54286632D01*
X77515990Y-54043411D01*
X77627932Y-53773158D01*
X77685000Y-53486260D01*
X77685000Y-53193740D01*
X77627932Y-52906842D01*
X77515990Y-52636589D01*
X77353475Y-52393368D01*
X77146632Y-52186525D01*
X76972240Y-52070000D01*
X77146632Y-51953475D01*
X77353475Y-51746632D01*
X77515990Y-51503411D01*
X77627932Y-51233158D01*
X77685000Y-50946260D01*
X77685000Y-50653740D01*
X77627932Y-50366842D01*
X77515990Y-50096589D01*
X77417353Y-49948967D01*
X78225000Y-49948967D01*
X78225000Y-50271033D01*
X78287832Y-50586912D01*
X78411082Y-50884463D01*
X78590013Y-51152252D01*
X78817748Y-51379987D01*
X79085537Y-51558918D01*
X79383088Y-51682168D01*
X79698967Y-51745000D01*
X80021033Y-51745000D01*
X80336912Y-51682168D01*
X80634463Y-51558918D01*
X80902252Y-51379987D01*
X81129987Y-51152252D01*
X81308918Y-50884463D01*
X81432168Y-50586912D01*
X81495000Y-50271033D01*
X81495000Y-49948967D01*
X84725000Y-49948967D01*
X84725000Y-50271033D01*
X84787832Y-50586912D01*
X84911082Y-50884463D01*
X85090013Y-51152252D01*
X85317748Y-51379987D01*
X85585537Y-51558918D01*
X85883088Y-51682168D01*
X86198967Y-51745000D01*
X86521033Y-51745000D01*
X86836912Y-51682168D01*
X87134463Y-51558918D01*
X87402252Y-51379987D01*
X87629987Y-51152252D01*
X87808918Y-50884463D01*
X87932168Y-50586912D01*
X87935531Y-50570000D01*
X92406928Y-50570000D01*
X92419188Y-50694482D01*
X92455498Y-50814180D01*
X92514463Y-50924494D01*
X92593815Y-51021185D01*
X92690506Y-51100537D01*
X92800820Y-51159502D01*
X92920518Y-51195812D01*
X93045000Y-51208072D01*
X93059250Y-51205000D01*
X93218000Y-51046250D01*
X93218000Y-49722000D01*
X92568750Y-49722000D01*
X92410000Y-49880750D01*
X92406928Y-50570000D01*
X87935531Y-50570000D01*
X87995000Y-50271033D01*
X87995000Y-49948967D01*
X87932168Y-49633088D01*
X87808918Y-49335537D01*
X87629987Y-49067748D01*
X87402252Y-48840013D01*
X87134463Y-48661082D01*
X87035283Y-48620000D01*
X92406928Y-48620000D01*
X92410000Y-49309250D01*
X92568750Y-49468000D01*
X93218000Y-49468000D01*
X93218000Y-48143750D01*
X93059250Y-47985000D01*
X93045000Y-47981928D01*
X92920518Y-47994188D01*
X92800820Y-48030498D01*
X92690506Y-48089463D01*
X92593815Y-48168815D01*
X92514463Y-48265506D01*
X92455498Y-48375820D01*
X92419188Y-48495518D01*
X92406928Y-48620000D01*
X87035283Y-48620000D01*
X86836912Y-48537832D01*
X86521033Y-48475000D01*
X86198967Y-48475000D01*
X85883088Y-48537832D01*
X85585537Y-48661082D01*
X85317748Y-48840013D01*
X85090013Y-49067748D01*
X84911082Y-49335537D01*
X84787832Y-49633088D01*
X84725000Y-49948967D01*
X81495000Y-49948967D01*
X81432168Y-49633088D01*
X81308918Y-49335537D01*
X81129987Y-49067748D01*
X80902252Y-48840013D01*
X80634463Y-48661082D01*
X80620000Y-48655091D01*
X80620000Y-47512333D01*
X80623677Y-47475000D01*
X80609003Y-47326014D01*
X80565546Y-47182753D01*
X80494974Y-47050724D01*
X80445139Y-46990000D01*
X80410000Y-46947183D01*
X80410000Y-46888061D01*
X80370226Y-46688102D01*
X80292205Y-46499744D01*
X80178937Y-46330226D01*
X80034774Y-46186063D01*
X79865256Y-46072795D01*
X79676898Y-45994774D01*
X79476939Y-45955000D01*
X79273061Y-45955000D01*
X79073102Y-45994774D01*
X78884744Y-46072795D01*
X78715226Y-46186063D01*
X78571063Y-46330226D01*
X78457795Y-46499744D01*
X78379774Y-46688102D01*
X78340000Y-46888061D01*
X78340000Y-47091939D01*
X78379774Y-47291898D01*
X78457795Y-47480256D01*
X78571063Y-47649774D01*
X78715226Y-47793937D01*
X78884744Y-47907205D01*
X79073102Y-47985226D01*
X79100001Y-47990576D01*
X79100001Y-48655091D01*
X79085537Y-48661082D01*
X78817748Y-48840013D01*
X78590013Y-49067748D01*
X78411082Y-49335537D01*
X78287832Y-49633088D01*
X78225000Y-49948967D01*
X77417353Y-49948967D01*
X77353475Y-49853368D01*
X77146632Y-49646525D01*
X76972240Y-49530000D01*
X77146632Y-49413475D01*
X77353475Y-49206632D01*
X77515990Y-48963411D01*
X77627932Y-48693158D01*
X77685000Y-48406260D01*
X77685000Y-48113740D01*
X77627932Y-47826842D01*
X77515990Y-47556589D01*
X77353475Y-47313368D01*
X77221620Y-47181513D01*
X77294180Y-47159502D01*
X77404494Y-47100537D01*
X77501185Y-47021185D01*
X77580537Y-46924494D01*
X77639502Y-46814180D01*
X77675812Y-46694482D01*
X77688072Y-46570000D01*
X77688072Y-44870000D01*
X77675812Y-44745518D01*
X77639502Y-44625820D01*
X77580537Y-44515506D01*
X77501185Y-44418815D01*
X77404494Y-44339463D01*
X77294180Y-44280498D01*
X77174482Y-44244188D01*
X77050000Y-44231928D01*
X75350000Y-44231928D01*
X75225518Y-44244188D01*
X75105820Y-44280498D01*
X74995506Y-44339463D01*
X74898815Y-44418815D01*
X74819463Y-44515506D01*
X74760498Y-44625820D01*
X74724188Y-44745518D01*
X74711928Y-44870000D01*
X73685000Y-44870000D01*
X73685000Y-42465413D01*
X75244192Y-42465413D01*
X75339956Y-42729814D01*
X75629571Y-42870704D01*
X75941108Y-42952384D01*
X76262595Y-42971718D01*
X76581675Y-42927961D01*
X76886088Y-42822795D01*
X77060044Y-42729814D01*
X77155808Y-42465413D01*
X76200000Y-41509605D01*
X75244192Y-42465413D01*
X73685000Y-42465413D01*
X73685000Y-41392595D01*
X74558282Y-41392595D01*
X74602039Y-41711675D01*
X74707205Y-42016088D01*
X74800186Y-42190044D01*
X75064587Y-42285808D01*
X76020395Y-41330000D01*
X76379605Y-41330000D01*
X77335413Y-42285808D01*
X77599814Y-42190044D01*
X77740704Y-41900429D01*
X77822384Y-41588892D01*
X77834189Y-41392595D01*
X81058282Y-41392595D01*
X81102039Y-41711675D01*
X81207205Y-42016088D01*
X81300186Y-42190044D01*
X81564587Y-42285808D01*
X82520395Y-41330000D01*
X82879605Y-41330000D01*
X83835413Y-42285808D01*
X84099814Y-42190044D01*
X84240704Y-41900429D01*
X84322384Y-41588892D01*
X84341718Y-41267405D01*
X84297961Y-40948325D01*
X84192795Y-40643912D01*
X84099814Y-40469956D01*
X83837644Y-40375000D01*
X91171928Y-40375000D01*
X91184188Y-40499482D01*
X91220498Y-40619180D01*
X91279463Y-40729494D01*
X91358815Y-40826185D01*
X91455506Y-40905537D01*
X91565820Y-40964502D01*
X91685518Y-41000812D01*
X91810000Y-41013072D01*
X92424250Y-41010000D01*
X92583000Y-40851250D01*
X92583000Y-39927000D01*
X91333750Y-39927000D01*
X91175000Y-40085750D01*
X91171928Y-40375000D01*
X83837644Y-40375000D01*
X83835413Y-40374192D01*
X82879605Y-41330000D01*
X82520395Y-41330000D01*
X81564587Y-40374192D01*
X81300186Y-40469956D01*
X81159296Y-40759571D01*
X81077616Y-41071108D01*
X81058282Y-41392595D01*
X77834189Y-41392595D01*
X77841718Y-41267405D01*
X77797961Y-40948325D01*
X77692795Y-40643912D01*
X77599814Y-40469956D01*
X77335413Y-40374192D01*
X76379605Y-41330000D01*
X76020395Y-41330000D01*
X75064587Y-40374192D01*
X74800186Y-40469956D01*
X74659296Y-40759571D01*
X74577616Y-41071108D01*
X74558282Y-41392595D01*
X73685000Y-41392595D01*
X73685000Y-40194587D01*
X75244192Y-40194587D01*
X76200000Y-41150395D01*
X77155808Y-40194587D01*
X81744192Y-40194587D01*
X82700000Y-41150395D01*
X83655808Y-40194587D01*
X83560044Y-39930186D01*
X83270429Y-39789296D01*
X82958892Y-39707616D01*
X82637405Y-39688282D01*
X82318325Y-39732039D01*
X82013912Y-39837205D01*
X81839956Y-39930186D01*
X81744192Y-40194587D01*
X77155808Y-40194587D01*
X77060044Y-39930186D01*
X76770429Y-39789296D01*
X76458892Y-39707616D01*
X76137405Y-39688282D01*
X75818325Y-39732039D01*
X75513912Y-39837205D01*
X75339956Y-39930186D01*
X75244192Y-40194587D01*
X73685000Y-40194587D01*
X73685000Y-39225000D01*
X91171928Y-39225000D01*
X91175000Y-39514250D01*
X91333750Y-39673000D01*
X92583000Y-39673000D01*
X92583000Y-38748750D01*
X92424250Y-38590000D01*
X91810000Y-38586928D01*
X91685518Y-38599188D01*
X91565820Y-38635498D01*
X91455506Y-38694463D01*
X91358815Y-38773815D01*
X91279463Y-38870506D01*
X91220498Y-38980820D01*
X91184188Y-39100518D01*
X91171928Y-39225000D01*
X73685000Y-39225000D01*
X73685000Y-36668967D01*
X74565000Y-36668967D01*
X74565000Y-36991033D01*
X74627832Y-37306912D01*
X74751082Y-37604463D01*
X74930013Y-37872252D01*
X75157748Y-38099987D01*
X75425537Y-38278918D01*
X75723088Y-38402168D01*
X76038967Y-38465000D01*
X76361033Y-38465000D01*
X76676912Y-38402168D01*
X76974463Y-38278918D01*
X77242252Y-38099987D01*
X77469987Y-37872252D01*
X77648918Y-37604463D01*
X77772168Y-37306912D01*
X77835000Y-36991033D01*
X77835000Y-36668967D01*
X81065000Y-36668967D01*
X81065000Y-36991033D01*
X81127832Y-37306912D01*
X81251082Y-37604463D01*
X81430013Y-37872252D01*
X81657748Y-38099987D01*
X81925537Y-38278918D01*
X82223088Y-38402168D01*
X82538967Y-38465000D01*
X82861033Y-38465000D01*
X83176912Y-38402168D01*
X83474463Y-38278918D01*
X83742252Y-38099987D01*
X83969987Y-37872252D01*
X84148918Y-37604463D01*
X84272168Y-37306912D01*
X84335000Y-36991033D01*
X84335000Y-36668967D01*
X84272168Y-36353088D01*
X84170649Y-36108000D01*
X108210000Y-36108000D01*
X108210000Y-36658000D01*
X109218000Y-36658000D01*
X109218000Y-35267046D01*
X109043126Y-35140881D01*
X108820024Y-35220724D01*
X108632236Y-35342631D01*
X108471839Y-35498831D01*
X108344997Y-35683322D01*
X108256585Y-35889013D01*
X108210000Y-36108000D01*
X84170649Y-36108000D01*
X84148918Y-36055537D01*
X83969987Y-35787748D01*
X83742252Y-35560013D01*
X83474463Y-35381082D01*
X83176912Y-35257832D01*
X82861033Y-35195000D01*
X82538967Y-35195000D01*
X82223088Y-35257832D01*
X81925537Y-35381082D01*
X81657748Y-35560013D01*
X81430013Y-35787748D01*
X81251082Y-36055537D01*
X81127832Y-36353088D01*
X81065000Y-36668967D01*
X77835000Y-36668967D01*
X77772168Y-36353088D01*
X77648918Y-36055537D01*
X77469987Y-35787748D01*
X77242252Y-35560013D01*
X76974463Y-35381082D01*
X76676912Y-35257832D01*
X76361033Y-35195000D01*
X76038967Y-35195000D01*
X75723088Y-35257832D01*
X75425537Y-35381082D01*
X75157748Y-35560013D01*
X74930013Y-35787748D01*
X74751082Y-36055537D01*
X74627832Y-36353088D01*
X74565000Y-36668967D01*
X73685000Y-36668967D01*
X73685000Y-32732000D01*
X108210000Y-32732000D01*
X108210000Y-33032000D01*
X108256585Y-33250987D01*
X108344997Y-33456678D01*
X108471839Y-33641169D01*
X108632236Y-33797369D01*
X108820024Y-33919276D01*
X109043126Y-33999119D01*
X109218000Y-33872954D01*
X109218000Y-32732000D01*
X109472000Y-32732000D01*
X109472000Y-33872954D01*
X109646874Y-33999119D01*
X109869976Y-33919276D01*
X110057764Y-33797369D01*
X110218161Y-33641169D01*
X110345003Y-33456678D01*
X110433415Y-33250987D01*
X110480000Y-33032000D01*
X110480000Y-32732000D01*
X116850000Y-32732000D01*
X116850000Y-33032000D01*
X116896585Y-33250987D01*
X116984997Y-33456678D01*
X117111839Y-33641169D01*
X117272236Y-33797369D01*
X117460024Y-33919276D01*
X117683126Y-33999119D01*
X117858000Y-33872954D01*
X117858000Y-32732000D01*
X118112000Y-32732000D01*
X118112000Y-33872954D01*
X118286874Y-33999119D01*
X118509976Y-33919276D01*
X118697764Y-33797369D01*
X118858161Y-33641169D01*
X118985003Y-33456678D01*
X119073415Y-33250987D01*
X119120000Y-33032000D01*
X119120000Y-32732000D01*
X118112000Y-32732000D01*
X117858000Y-32732000D01*
X116850000Y-32732000D01*
X110480000Y-32732000D01*
X109472000Y-32732000D01*
X109218000Y-32732000D01*
X108210000Y-32732000D01*
X73685000Y-32732000D01*
X73685000Y-32178000D01*
X108210000Y-32178000D01*
X108210000Y-32478000D01*
X109218000Y-32478000D01*
X109218000Y-31337046D01*
X109472000Y-31337046D01*
X109472000Y-32478000D01*
X110480000Y-32478000D01*
X110480000Y-32178000D01*
X116850000Y-32178000D01*
X116850000Y-32478000D01*
X117858000Y-32478000D01*
X117858000Y-31337046D01*
X118112000Y-31337046D01*
X118112000Y-32478000D01*
X119120000Y-32478000D01*
X119120000Y-32178000D01*
X119073415Y-31959013D01*
X118985003Y-31753322D01*
X118858161Y-31568831D01*
X118697764Y-31412631D01*
X118509976Y-31290724D01*
X118286874Y-31210881D01*
X118112000Y-31337046D01*
X117858000Y-31337046D01*
X117683126Y-31210881D01*
X117460024Y-31290724D01*
X117272236Y-31412631D01*
X117111839Y-31568831D01*
X116984997Y-31753322D01*
X116896585Y-31959013D01*
X116850000Y-32178000D01*
X110480000Y-32178000D01*
X110433415Y-31959013D01*
X110345003Y-31753322D01*
X110218161Y-31568831D01*
X110057764Y-31412631D01*
X109869976Y-31290724D01*
X109646874Y-31210881D01*
X109472000Y-31337046D01*
X109218000Y-31337046D01*
X109043126Y-31210881D01*
X108820024Y-31290724D01*
X108632236Y-31412631D01*
X108471839Y-31568831D01*
X108344997Y-31753322D01*
X108256585Y-31959013D01*
X108210000Y-32178000D01*
X73685000Y-32178000D01*
X73685000Y-31782279D01*
X73699722Y-31632131D01*
X73733953Y-31518754D01*
X73789555Y-31414181D01*
X73864407Y-31322404D01*
X73955664Y-31246909D01*
X74059844Y-31190581D01*
X74172976Y-31155560D01*
X74321022Y-31140000D01*
X119982721Y-31140000D01*
X120132869Y-31154722D01*
G37*
%TD.AperFunction*%
D22*
X104406759Y-42161671D02*
X104395812Y-42050518D01*
X104359502Y-41930820D01*
X104300537Y-41820506D01*
X104221185Y-41723815D01*
X104124494Y-41644463D01*
X104014180Y-41585498D01*
X103894482Y-41549188D01*
X103770000Y-41536928D01*
X103155750Y-41540000D01*
X102997000Y-41698750D01*
X102997000Y-42623000D01*
X103017000Y-42623000D01*
X103017000Y-42877000D01*
X102997000Y-42877000D01*
X102997000Y-42897000D01*
X102743000Y-42897000D01*
X102743000Y-42877000D01*
X101493750Y-42877000D01*
X101335000Y-43035750D01*
X101331928Y-43325000D01*
X101344188Y-43449482D01*
X101380498Y-43569180D01*
X101439463Y-43679494D01*
X101518815Y-43776185D01*
X101615506Y-43855537D01*
X101725820Y-43914502D01*
X101845518Y-43950812D01*
X101970000Y-43963072D01*
X102584250Y-43960000D01*
X102742998Y-43801252D01*
X102742998Y-43825432D01*
X100328072Y-46240359D01*
X100328072Y-45330000D01*
X100315812Y-45205518D01*
X100279502Y-45085820D01*
X100220537Y-44975506D01*
X100141185Y-44878815D01*
X100044494Y-44799463D01*
X99934180Y-44740498D01*
X99814482Y-44704188D01*
X99690000Y-44691928D01*
X98925000Y-44691928D01*
X98925000Y-43645741D01*
X98930490Y-43589999D01*
X98925000Y-43534257D01*
X98925000Y-43534248D01*
X98908577Y-43367501D01*
X98843676Y-43153553D01*
X98738284Y-42956377D01*
X98596449Y-42783551D01*
X98555567Y-42750000D01*
X98596449Y-42716449D01*
X98738284Y-42543623D01*
X98843676Y-42346447D01*
X98895684Y-42175000D01*
X101331928Y-42175000D01*
X101335000Y-42464250D01*
X101493750Y-42623000D01*
X102743000Y-42623000D01*
X102743000Y-41698750D01*
X102584250Y-41540000D01*
X101970000Y-41536928D01*
X101845518Y-41549188D01*
X101725820Y-41585498D01*
X101615506Y-41644463D01*
X101518815Y-41723815D01*
X101439463Y-41820506D01*
X101380498Y-41930820D01*
X101344188Y-42050518D01*
X101331928Y-42175000D01*
X98895684Y-42175000D01*
X98908577Y-42132499D01*
X98925000Y-41965752D01*
X98925000Y-41965743D01*
X98930490Y-41910001D01*
X98925000Y-41854259D01*
X98925000Y-41535501D01*
X98940000Y-41523191D01*
X98985506Y-41560537D01*
X99095820Y-41619502D01*
X99215518Y-41655812D01*
X99340000Y-41668072D01*
X100840000Y-41668072D01*
X100964482Y-41655812D01*
X101084180Y-41619502D01*
X101194494Y-41560537D01*
X101291185Y-41481185D01*
X101370537Y-41384494D01*
X101429502Y-41274180D01*
X101465812Y-41154482D01*
X101478072Y-41030000D01*
X101478072Y-40935000D01*
X101860557Y-40935000D01*
X101880149Y-40945472D01*
X102046745Y-40996008D01*
X102219999Y-41013072D01*
X103520001Y-41013072D01*
X103693255Y-40996008D01*
X103859851Y-40945472D01*
X104013387Y-40863405D01*
X104147962Y-40752962D01*
X104258405Y-40618387D01*
X104340472Y-40464851D01*
X104391008Y-40298255D01*
X104408072Y-40125001D01*
X104408072Y-39474999D01*
X104401178Y-39404999D01*
X107163431Y-39404999D01*
X104406759Y-42161671D01*
%TA.AperFunction,Conductor*%
D23*
G36*
X104406759Y-42161671D02*
G01*
X104395812Y-42050518D01*
X104359502Y-41930820D01*
X104300537Y-41820506D01*
X104221185Y-41723815D01*
X104124494Y-41644463D01*
X104014180Y-41585498D01*
X103894482Y-41549188D01*
X103770000Y-41536928D01*
X103155750Y-41540000D01*
X102997000Y-41698750D01*
X102997000Y-42623000D01*
X103017000Y-42623000D01*
X103017000Y-42877000D01*
X102997000Y-42877000D01*
X102997000Y-42897000D01*
X102743000Y-42897000D01*
X102743000Y-42877000D01*
X101493750Y-42877000D01*
X101335000Y-43035750D01*
X101331928Y-43325000D01*
X101344188Y-43449482D01*
X101380498Y-43569180D01*
X101439463Y-43679494D01*
X101518815Y-43776185D01*
X101615506Y-43855537D01*
X101725820Y-43914502D01*
X101845518Y-43950812D01*
X101970000Y-43963072D01*
X102584250Y-43960000D01*
X102742998Y-43801252D01*
X102742998Y-43825432D01*
X100328072Y-46240359D01*
X100328072Y-45330000D01*
X100315812Y-45205518D01*
X100279502Y-45085820D01*
X100220537Y-44975506D01*
X100141185Y-44878815D01*
X100044494Y-44799463D01*
X99934180Y-44740498D01*
X99814482Y-44704188D01*
X99690000Y-44691928D01*
X98925000Y-44691928D01*
X98925000Y-43645741D01*
X98930490Y-43589999D01*
X98925000Y-43534257D01*
X98925000Y-43534248D01*
X98908577Y-43367501D01*
X98843676Y-43153553D01*
X98738284Y-42956377D01*
X98596449Y-42783551D01*
X98555567Y-42750000D01*
X98596449Y-42716449D01*
X98738284Y-42543623D01*
X98843676Y-42346447D01*
X98895684Y-42175000D01*
X101331928Y-42175000D01*
X101335000Y-42464250D01*
X101493750Y-42623000D01*
X102743000Y-42623000D01*
X102743000Y-41698750D01*
X102584250Y-41540000D01*
X101970000Y-41536928D01*
X101845518Y-41549188D01*
X101725820Y-41585498D01*
X101615506Y-41644463D01*
X101518815Y-41723815D01*
X101439463Y-41820506D01*
X101380498Y-41930820D01*
X101344188Y-42050518D01*
X101331928Y-42175000D01*
X98895684Y-42175000D01*
X98908577Y-42132499D01*
X98925000Y-41965752D01*
X98925000Y-41965743D01*
X98930490Y-41910001D01*
X98925000Y-41854259D01*
X98925000Y-41535501D01*
X98940000Y-41523191D01*
X98985506Y-41560537D01*
X99095820Y-41619502D01*
X99215518Y-41655812D01*
X99340000Y-41668072D01*
X100840000Y-41668072D01*
X100964482Y-41655812D01*
X101084180Y-41619502D01*
X101194494Y-41560537D01*
X101291185Y-41481185D01*
X101370537Y-41384494D01*
X101429502Y-41274180D01*
X101465812Y-41154482D01*
X101478072Y-41030000D01*
X101478072Y-40935000D01*
X101860557Y-40935000D01*
X101880149Y-40945472D01*
X102046745Y-40996008D01*
X102219999Y-41013072D01*
X103520001Y-41013072D01*
X103693255Y-40996008D01*
X103859851Y-40945472D01*
X104013387Y-40863405D01*
X104147962Y-40752962D01*
X104258405Y-40618387D01*
X104340472Y-40464851D01*
X104391008Y-40298255D01*
X104408072Y-40125001D01*
X104408072Y-39474999D01*
X104401178Y-39404999D01*
X107163431Y-39404999D01*
X104406759Y-42161671D01*
G37*
%TD.AperFunction*%
%TD*%
M02*
