%TF.GenerationSoftware,KiCad,Pcbnew,(5.1.9-0-10_14)*%
%TF.CreationDate,2021-03-23T08:30:50+08:00*%
%TF.ProjectId,Kernel,4b65726e-656c-42e6-9b69-6361645f7063,rev?*%
%TF.SameCoordinates,Original*%
%TF.FileFunction,Legend,Top*%
%TF.FilePolarity,Positive*%
%FSLAX46Y46*%
G04 Gerber Fmt 4.6, Leading zero omitted, Abs format (unit mm)*
G04 Created by KiCad (PCBNEW (5.1.9-0-10_14)) date 2021-03-23 08:30:50*
%MOMM*%
%LPD*%
G01*
G04 APERTURE LIST*
%ADD10C,0.120000*%
%ADD11C,0.250000*%
%ADD12C,0.150000*%
%ADD13C,0.300000*%
%ADD14C,0.500000*%
%ADD15C,0.100000*%
%ADD16C,0.200000*%
G04 APERTURE END LIST*
D10*
X112395000Y-51689000D02*
X112395000Y-47498000D01*
X114300000Y-51689000D02*
X112395000Y-51689000D01*
X114300000Y-47498000D02*
X114300000Y-51689000D01*
X112395000Y-47498000D02*
X114300000Y-47498000D01*
X85105813Y-52324000D02*
G75*
G03*
X85105813Y-52324000I-2047813J0D01*
G01*
X81549813Y-39116000D02*
G75*
G03*
X81549813Y-39116000I-2047813J0D01*
G01*
D11*
X109029523Y-54697380D02*
X108553333Y-54697380D01*
X108505714Y-55173571D01*
X108553333Y-55125952D01*
X108648571Y-55078333D01*
X108886666Y-55078333D01*
X108981904Y-55125952D01*
X109029523Y-55173571D01*
X109077142Y-55268809D01*
X109077142Y-55506904D01*
X109029523Y-55602142D01*
X108981904Y-55649761D01*
X108886666Y-55697380D01*
X108648571Y-55697380D01*
X108553333Y-55649761D01*
X108505714Y-55602142D01*
X109362857Y-54697380D02*
X109696190Y-55697380D01*
X110029523Y-54697380D01*
D12*
X119467380Y-37702857D02*
X120276904Y-37702857D01*
X120372142Y-37655238D01*
X120419761Y-37607619D01*
X120467380Y-37512380D01*
X120467380Y-37321904D01*
X120419761Y-37226666D01*
X120372142Y-37179047D01*
X120276904Y-37131428D01*
X119467380Y-37131428D01*
X120419761Y-36702857D02*
X120467380Y-36560000D01*
X120467380Y-36321904D01*
X120419761Y-36226666D01*
X120372142Y-36179047D01*
X120276904Y-36131428D01*
X120181666Y-36131428D01*
X120086428Y-36179047D01*
X120038809Y-36226666D01*
X119991190Y-36321904D01*
X119943571Y-36512380D01*
X119895952Y-36607619D01*
X119848333Y-36655238D01*
X119753095Y-36702857D01*
X119657857Y-36702857D01*
X119562619Y-36655238D01*
X119515000Y-36607619D01*
X119467380Y-36512380D01*
X119467380Y-36274285D01*
X119515000Y-36131428D01*
X119943571Y-35369523D02*
X119991190Y-35226666D01*
X120038809Y-35179047D01*
X120134047Y-35131428D01*
X120276904Y-35131428D01*
X120372142Y-35179047D01*
X120419761Y-35226666D01*
X120467380Y-35321904D01*
X120467380Y-35702857D01*
X119467380Y-35702857D01*
X119467380Y-35369523D01*
X119515000Y-35274285D01*
X119562619Y-35226666D01*
X119657857Y-35179047D01*
X119753095Y-35179047D01*
X119848333Y-35226666D01*
X119895952Y-35274285D01*
X119943571Y-35369523D01*
X119943571Y-35702857D01*
X120562619Y-34940952D02*
X120562619Y-34179047D01*
X120372142Y-33369523D02*
X120419761Y-33417142D01*
X120467380Y-33560000D01*
X120467380Y-33655238D01*
X120419761Y-33798095D01*
X120324523Y-33893333D01*
X120229285Y-33940952D01*
X120038809Y-33988571D01*
X119895952Y-33988571D01*
X119705476Y-33940952D01*
X119610238Y-33893333D01*
X119515000Y-33798095D01*
X119467380Y-33655238D01*
X119467380Y-33560000D01*
X119515000Y-33417142D01*
X119562619Y-33369523D01*
D13*
X113447142Y-40834571D02*
X113947142Y-42334571D01*
X114447142Y-40834571D01*
X115518571Y-42263142D02*
X115375714Y-42334571D01*
X115090000Y-42334571D01*
X114947142Y-42263142D01*
X114875714Y-42120285D01*
X114875714Y-41548857D01*
X114947142Y-41406000D01*
X115090000Y-41334571D01*
X115375714Y-41334571D01*
X115518571Y-41406000D01*
X115590000Y-41548857D01*
X115590000Y-41691714D01*
X114875714Y-41834571D01*
X116232857Y-42334571D02*
X116232857Y-41334571D01*
X116232857Y-41620285D02*
X116304285Y-41477428D01*
X116375714Y-41406000D01*
X116518571Y-41334571D01*
X116661428Y-41334571D01*
X117947142Y-42334571D02*
X117090000Y-42334571D01*
X117518571Y-42334571D02*
X117518571Y-40834571D01*
X117375714Y-41048857D01*
X117232857Y-41191714D01*
X117090000Y-41263142D01*
X118590000Y-42191714D02*
X118661428Y-42263142D01*
X118590000Y-42334571D01*
X118518571Y-42263142D01*
X118590000Y-42191714D01*
X118590000Y-42334571D01*
X119232857Y-40977428D02*
X119304285Y-40906000D01*
X119447142Y-40834571D01*
X119804285Y-40834571D01*
X119947142Y-40906000D01*
X120018571Y-40977428D01*
X120090000Y-41120285D01*
X120090000Y-41263142D01*
X120018571Y-41477428D01*
X119161428Y-42334571D01*
X120090000Y-42334571D01*
D14*
X74851428Y-34377142D02*
X74851428Y-31377142D01*
X76565714Y-34377142D02*
X75280000Y-32662857D01*
X76565714Y-31377142D02*
X74851428Y-33091428D01*
X78994285Y-34234285D02*
X78708571Y-34377142D01*
X78137142Y-34377142D01*
X77851428Y-34234285D01*
X77708571Y-33948571D01*
X77708571Y-32805714D01*
X77851428Y-32520000D01*
X78137142Y-32377142D01*
X78708571Y-32377142D01*
X78994285Y-32520000D01*
X79137142Y-32805714D01*
X79137142Y-33091428D01*
X77708571Y-33377142D01*
X80422857Y-34377142D02*
X80422857Y-32377142D01*
X80422857Y-32948571D02*
X80565714Y-32662857D01*
X80708571Y-32520000D01*
X80994285Y-32377142D01*
X81280000Y-32377142D01*
X82280000Y-32377142D02*
X82280000Y-34377142D01*
X82280000Y-32662857D02*
X82422857Y-32520000D01*
X82708571Y-32377142D01*
X83137142Y-32377142D01*
X83422857Y-32520000D01*
X83565714Y-32805714D01*
X83565714Y-34377142D01*
X86137142Y-34234285D02*
X85851428Y-34377142D01*
X85280000Y-34377142D01*
X84994285Y-34234285D01*
X84851428Y-33948571D01*
X84851428Y-32805714D01*
X84994285Y-32520000D01*
X85280000Y-32377142D01*
X85851428Y-32377142D01*
X86137142Y-32520000D01*
X86280000Y-32805714D01*
X86280000Y-33091428D01*
X84851428Y-33377142D01*
X87994285Y-34377142D02*
X87708571Y-34234285D01*
X87565714Y-33948571D01*
X87565714Y-31377142D01*
D11*
X111236428Y-44902380D02*
X111236428Y-43902380D01*
X111807857Y-44902380D01*
X111807857Y-43902380D01*
X112426904Y-44902380D02*
X112331666Y-44854761D01*
X112284047Y-44807142D01*
X112236428Y-44711904D01*
X112236428Y-44426190D01*
X112284047Y-44330952D01*
X112331666Y-44283333D01*
X112426904Y-44235714D01*
X112569761Y-44235714D01*
X112665000Y-44283333D01*
X112712619Y-44330952D01*
X112760238Y-44426190D01*
X112760238Y-44711904D01*
X112712619Y-44807142D01*
X112665000Y-44854761D01*
X112569761Y-44902380D01*
X112426904Y-44902380D01*
X113188809Y-44902380D02*
X113188809Y-44235714D01*
X113188809Y-44426190D02*
X113236428Y-44330952D01*
X113284047Y-44283333D01*
X113379285Y-44235714D01*
X113474523Y-44235714D01*
X113807857Y-44902380D02*
X113807857Y-44235714D01*
X113807857Y-44330952D02*
X113855476Y-44283333D01*
X113950714Y-44235714D01*
X114093571Y-44235714D01*
X114188809Y-44283333D01*
X114236428Y-44378571D01*
X114236428Y-44902380D01*
X114236428Y-44378571D02*
X114284047Y-44283333D01*
X114379285Y-44235714D01*
X114522142Y-44235714D01*
X114617380Y-44283333D01*
X114665000Y-44378571D01*
X114665000Y-44902380D01*
X115569761Y-44902380D02*
X115569761Y-44378571D01*
X115522142Y-44283333D01*
X115426904Y-44235714D01*
X115236428Y-44235714D01*
X115141190Y-44283333D01*
X115569761Y-44854761D02*
X115474523Y-44902380D01*
X115236428Y-44902380D01*
X115141190Y-44854761D01*
X115093571Y-44759523D01*
X115093571Y-44664285D01*
X115141190Y-44569047D01*
X115236428Y-44521428D01*
X115474523Y-44521428D01*
X115569761Y-44473809D01*
X116188809Y-44902380D02*
X116093571Y-44854761D01*
X116045952Y-44759523D01*
X116045952Y-43902380D01*
X111601428Y-55173571D02*
X111268095Y-55173571D01*
X111268095Y-55697380D02*
X111268095Y-54697380D01*
X111744285Y-54697380D01*
X112268095Y-55697380D02*
X112172857Y-55649761D01*
X112125238Y-55554523D01*
X112125238Y-54697380D01*
X113077619Y-55697380D02*
X113077619Y-55173571D01*
X113030000Y-55078333D01*
X112934761Y-55030714D01*
X112744285Y-55030714D01*
X112649047Y-55078333D01*
X113077619Y-55649761D02*
X112982380Y-55697380D01*
X112744285Y-55697380D01*
X112649047Y-55649761D01*
X112601428Y-55554523D01*
X112601428Y-55459285D01*
X112649047Y-55364047D01*
X112744285Y-55316428D01*
X112982380Y-55316428D01*
X113077619Y-55268809D01*
X113506190Y-55649761D02*
X113601428Y-55697380D01*
X113791904Y-55697380D01*
X113887142Y-55649761D01*
X113934761Y-55554523D01*
X113934761Y-55506904D01*
X113887142Y-55411666D01*
X113791904Y-55364047D01*
X113649047Y-55364047D01*
X113553809Y-55316428D01*
X113506190Y-55221190D01*
X113506190Y-55173571D01*
X113553809Y-55078333D01*
X113649047Y-55030714D01*
X113791904Y-55030714D01*
X113887142Y-55078333D01*
X114363333Y-55697380D02*
X114363333Y-54697380D01*
X114791904Y-55697380D02*
X114791904Y-55173571D01*
X114744285Y-55078333D01*
X114649047Y-55030714D01*
X114506190Y-55030714D01*
X114410952Y-55078333D01*
X114363333Y-55125952D01*
X119515000Y-53078095D02*
X119467380Y-53173333D01*
X119467380Y-53316190D01*
X119515000Y-53459047D01*
X119610238Y-53554285D01*
X119705476Y-53601904D01*
X119895952Y-53649523D01*
X120038809Y-53649523D01*
X120229285Y-53601904D01*
X120324523Y-53554285D01*
X120419761Y-53459047D01*
X120467380Y-53316190D01*
X120467380Y-53220952D01*
X120419761Y-53078095D01*
X120372142Y-53030476D01*
X120038809Y-53030476D01*
X120038809Y-53220952D01*
X119562619Y-51085714D02*
X119515000Y-51038095D01*
X119467380Y-50942857D01*
X119467380Y-50704761D01*
X119515000Y-50609523D01*
X119562619Y-50561904D01*
X119657857Y-50514285D01*
X119753095Y-50514285D01*
X119895952Y-50561904D01*
X120467380Y-51133333D01*
X120467380Y-50514285D01*
X119800714Y-48069523D02*
X120467380Y-48069523D01*
X119419761Y-48307619D02*
X120134047Y-48545714D01*
X120134047Y-47926666D01*
X119467380Y-45481904D02*
X119467380Y-45958095D01*
X119943571Y-46005714D01*
X119895952Y-45958095D01*
X119848333Y-45862857D01*
X119848333Y-45624761D01*
X119895952Y-45529523D01*
X119943571Y-45481904D01*
X120038809Y-45434285D01*
X120276904Y-45434285D01*
X120372142Y-45481904D01*
X120419761Y-45529523D01*
X120467380Y-45624761D01*
X120467380Y-45862857D01*
X120419761Y-45958095D01*
X120372142Y-46005714D01*
X74715619Y-52292380D02*
X74715619Y-52911428D01*
X74334666Y-52578095D01*
X74334666Y-52720952D01*
X74287047Y-52816190D01*
X74239428Y-52863809D01*
X74144190Y-52911428D01*
X73906095Y-52911428D01*
X73810857Y-52863809D01*
X73763238Y-52816190D01*
X73715619Y-52720952D01*
X73715619Y-52435238D01*
X73763238Y-52340000D01*
X73810857Y-52292380D01*
X73810857Y-53340000D02*
X73763238Y-53387619D01*
X73715619Y-53340000D01*
X73763238Y-53292380D01*
X73810857Y-53340000D01*
X73715619Y-53340000D01*
X74715619Y-53720952D02*
X74715619Y-54340000D01*
X74334666Y-54006666D01*
X74334666Y-54149523D01*
X74287047Y-54244761D01*
X74239428Y-54292380D01*
X74144190Y-54340000D01*
X73906095Y-54340000D01*
X73810857Y-54292380D01*
X73763238Y-54244761D01*
X73715619Y-54149523D01*
X73715619Y-53863809D01*
X73763238Y-53768571D01*
X73810857Y-53720952D01*
X73715619Y-50609523D02*
X73715619Y-50038095D01*
X73715619Y-50323809D02*
X74715619Y-50323809D01*
X74572761Y-50228571D01*
X74477523Y-50133333D01*
X74429904Y-50038095D01*
X74620380Y-50990476D02*
X74668000Y-51038095D01*
X74715619Y-51133333D01*
X74715619Y-51371428D01*
X74668000Y-51466666D01*
X74620380Y-51514285D01*
X74525142Y-51561904D01*
X74429904Y-51561904D01*
X74287047Y-51514285D01*
X73715619Y-50942857D01*
X73715619Y-51561904D01*
X73715619Y-48069523D02*
X73715619Y-47498095D01*
X73715619Y-47783809D02*
X74715619Y-47783809D01*
X74572761Y-47688571D01*
X74477523Y-47593333D01*
X74429904Y-47498095D01*
X74382285Y-48926666D02*
X73715619Y-48926666D01*
X74763238Y-48688571D02*
X74048952Y-48450476D01*
X74048952Y-49069523D01*
X73715619Y-45529523D02*
X73715619Y-44958095D01*
X73715619Y-45243809D02*
X74715619Y-45243809D01*
X74572761Y-45148571D01*
X74477523Y-45053333D01*
X74429904Y-44958095D01*
X74715619Y-46386666D02*
X74715619Y-46196190D01*
X74668000Y-46100952D01*
X74620380Y-46053333D01*
X74477523Y-45958095D01*
X74287047Y-45910476D01*
X73906095Y-45910476D01*
X73810857Y-45958095D01*
X73763238Y-46005714D01*
X73715619Y-46100952D01*
X73715619Y-46291428D01*
X73763238Y-46386666D01*
X73810857Y-46434285D01*
X73906095Y-46481904D01*
X74144190Y-46481904D01*
X74239428Y-46434285D01*
X74287047Y-46386666D01*
X74334666Y-46291428D01*
X74334666Y-46100952D01*
X74287047Y-46005714D01*
X74239428Y-45958095D01*
X74144190Y-45910476D01*
D10*
%TO.C,U1*%
X89670000Y-31060000D02*
X105910000Y-31060000D01*
X105910000Y-31060000D02*
X105910000Y-38680000D01*
X105910000Y-54680000D02*
X105910000Y-55300000D01*
X105910000Y-55300000D02*
X103790000Y-55300000D01*
X91790000Y-55300000D02*
X89670000Y-55300000D01*
X89670000Y-55300000D02*
X89670000Y-54680000D01*
X89670000Y-38680000D02*
X89670000Y-31060000D01*
X89670000Y-38680000D02*
X89060000Y-38680000D01*
%TO.C,J1*%
X118365000Y-29755000D02*
X108965000Y-29755000D01*
X108965000Y-35555000D02*
X108965000Y-33555000D01*
X108965000Y-31655000D02*
X108965000Y-29755000D01*
X118365000Y-35555000D02*
X118365000Y-33555000D01*
X118365000Y-31655000D02*
X118365000Y-29755000D01*
%TO.C,SW3*%
X79610000Y-51610000D02*
X79610000Y-53110000D01*
X80860000Y-55610000D02*
X85360000Y-55610000D01*
X86610000Y-53110000D02*
X86610000Y-51610000D01*
X85360000Y-49110000D02*
X80860000Y-49110000D01*
%TO.C,SW2*%
X82950000Y-39830000D02*
X82950000Y-38330000D01*
X81700000Y-35830000D02*
X77200000Y-35830000D01*
X75950000Y-38330000D02*
X75950000Y-39830000D01*
X77200000Y-42330000D02*
X81700000Y-42330000D01*
%TO.C,R5*%
X80594564Y-44985000D02*
X80140436Y-44985000D01*
X80594564Y-46455000D02*
X80140436Y-46455000D01*
%TO.C,SW1*%
X111485000Y-53920000D02*
X111485000Y-53070000D01*
X111485000Y-51070000D02*
X111485000Y-50540000D01*
X111485000Y-48600000D02*
X111485000Y-48040000D01*
X111485000Y-46100000D02*
X111485000Y-45220000D01*
X111485000Y-45220000D02*
X115185000Y-45220000D01*
X115185000Y-45220000D02*
X115185000Y-46090000D01*
X115185000Y-48050000D02*
X115185000Y-48600000D01*
X115185000Y-50540000D02*
X115185000Y-51100000D01*
X115185000Y-53040000D02*
X115185000Y-53920000D01*
X115185000Y-53920000D02*
X111485000Y-53920000D01*
X112185000Y-54220000D02*
X111185000Y-54220000D01*
X111185000Y-54220000D02*
X111185000Y-53220000D01*
%TO.C,R4*%
X87095000Y-42317936D02*
X87095000Y-42772064D01*
X85625000Y-42317936D02*
X85625000Y-42772064D01*
%TO.C,R3*%
X84862936Y-44985000D02*
X85317064Y-44985000D01*
X84862936Y-46455000D02*
X85317064Y-46455000D01*
%TO.C,R2*%
X108939064Y-51027000D02*
X108484936Y-51027000D01*
X108939064Y-49557000D02*
X108484936Y-49557000D01*
%TO.C,R1*%
X109955000Y-45850436D02*
X109955000Y-46304564D01*
X108485000Y-45850436D02*
X108485000Y-46304564D01*
%TO.C,C1*%
X85450000Y-38811252D02*
X85450000Y-37388748D01*
X87270000Y-38811252D02*
X87270000Y-37388748D01*
%TO.C,U1*%
D15*
X88798476Y-37153904D02*
X88798476Y-37801523D01*
X88836571Y-37877714D01*
X88874666Y-37915809D01*
X88950857Y-37953904D01*
X89103238Y-37953904D01*
X89179428Y-37915809D01*
X89217523Y-37877714D01*
X89255619Y-37801523D01*
X89255619Y-37153904D01*
X90055619Y-37953904D02*
X89598476Y-37953904D01*
X89827047Y-37953904D02*
X89827047Y-37153904D01*
X89750857Y-37268190D01*
X89674666Y-37344380D01*
X89598476Y-37382476D01*
%TO.C,J1*%
X108418333Y-34016190D02*
X108418333Y-34373333D01*
X108394523Y-34444761D01*
X108346904Y-34492380D01*
X108275476Y-34516190D01*
X108227857Y-34516190D01*
X108918333Y-34516190D02*
X108632619Y-34516190D01*
X108775476Y-34516190D02*
X108775476Y-34016190D01*
X108727857Y-34087619D01*
X108680238Y-34135238D01*
X108632619Y-34159047D01*
%TO.C,SW3*%
X82753333Y-49091809D02*
X82867619Y-49129904D01*
X83058095Y-49129904D01*
X83134285Y-49091809D01*
X83172380Y-49053714D01*
X83210476Y-48977523D01*
X83210476Y-48901333D01*
X83172380Y-48825142D01*
X83134285Y-48787047D01*
X83058095Y-48748952D01*
X82905714Y-48710857D01*
X82829523Y-48672761D01*
X82791428Y-48634666D01*
X82753333Y-48558476D01*
X82753333Y-48482285D01*
X82791428Y-48406095D01*
X82829523Y-48368000D01*
X82905714Y-48329904D01*
X83096190Y-48329904D01*
X83210476Y-48368000D01*
X83477142Y-48329904D02*
X83667619Y-49129904D01*
X83820000Y-48558476D01*
X83972380Y-49129904D01*
X84162857Y-48329904D01*
X84391428Y-48329904D02*
X84886666Y-48329904D01*
X84620000Y-48634666D01*
X84734285Y-48634666D01*
X84810476Y-48672761D01*
X84848571Y-48710857D01*
X84886666Y-48787047D01*
X84886666Y-48977523D01*
X84848571Y-49053714D01*
X84810476Y-49091809D01*
X84734285Y-49129904D01*
X84505714Y-49129904D01*
X84429523Y-49091809D01*
X84391428Y-49053714D01*
D16*
X80930952Y-56967380D02*
X80597619Y-56491190D01*
X80359523Y-56967380D02*
X80359523Y-55967380D01*
X80740476Y-55967380D01*
X80835714Y-56015000D01*
X80883333Y-56062619D01*
X80930952Y-56157857D01*
X80930952Y-56300714D01*
X80883333Y-56395952D01*
X80835714Y-56443571D01*
X80740476Y-56491190D01*
X80359523Y-56491190D01*
X81740476Y-56919761D02*
X81645238Y-56967380D01*
X81454761Y-56967380D01*
X81359523Y-56919761D01*
X81311904Y-56824523D01*
X81311904Y-56443571D01*
X81359523Y-56348333D01*
X81454761Y-56300714D01*
X81645238Y-56300714D01*
X81740476Y-56348333D01*
X81788095Y-56443571D01*
X81788095Y-56538809D01*
X81311904Y-56634047D01*
X82216666Y-56967380D02*
X82216666Y-55967380D01*
X82597619Y-55967380D01*
X82692857Y-56015000D01*
X82740476Y-56062619D01*
X82788095Y-56157857D01*
X82788095Y-56300714D01*
X82740476Y-56395952D01*
X82692857Y-56443571D01*
X82597619Y-56491190D01*
X82216666Y-56491190D01*
X83645238Y-56967380D02*
X83645238Y-56443571D01*
X83597619Y-56348333D01*
X83502380Y-56300714D01*
X83311904Y-56300714D01*
X83216666Y-56348333D01*
X83645238Y-56919761D02*
X83550000Y-56967380D01*
X83311904Y-56967380D01*
X83216666Y-56919761D01*
X83169047Y-56824523D01*
X83169047Y-56729285D01*
X83216666Y-56634047D01*
X83311904Y-56586428D01*
X83550000Y-56586428D01*
X83645238Y-56538809D01*
X84121428Y-56967380D02*
X84121428Y-56300714D01*
X84121428Y-55967380D02*
X84073809Y-56015000D01*
X84121428Y-56062619D01*
X84169047Y-56015000D01*
X84121428Y-55967380D01*
X84121428Y-56062619D01*
X84597619Y-56967380D02*
X84597619Y-56300714D01*
X84597619Y-56491190D02*
X84645238Y-56395952D01*
X84692857Y-56348333D01*
X84788095Y-56300714D01*
X84883333Y-56300714D01*
%TO.C,SW2*%
D15*
X74999809Y-38658666D02*
X75037904Y-38544380D01*
X75037904Y-38353904D01*
X74999809Y-38277714D01*
X74961714Y-38239619D01*
X74885523Y-38201523D01*
X74809333Y-38201523D01*
X74733142Y-38239619D01*
X74695047Y-38277714D01*
X74656952Y-38353904D01*
X74618857Y-38506285D01*
X74580761Y-38582476D01*
X74542666Y-38620571D01*
X74466476Y-38658666D01*
X74390285Y-38658666D01*
X74314095Y-38620571D01*
X74276000Y-38582476D01*
X74237904Y-38506285D01*
X74237904Y-38315809D01*
X74276000Y-38201523D01*
X74237904Y-37934857D02*
X75037904Y-37744380D01*
X74466476Y-37592000D01*
X75037904Y-37439619D01*
X74237904Y-37249142D01*
X74314095Y-36982476D02*
X74276000Y-36944380D01*
X74237904Y-36868190D01*
X74237904Y-36677714D01*
X74276000Y-36601523D01*
X74314095Y-36563428D01*
X74390285Y-36525333D01*
X74466476Y-36525333D01*
X74580761Y-36563428D01*
X75037904Y-37020571D01*
X75037904Y-36525333D01*
D16*
X78065476Y-43632380D02*
X77732142Y-43156190D01*
X77494047Y-43632380D02*
X77494047Y-42632380D01*
X77875000Y-42632380D01*
X77970238Y-42680000D01*
X78017857Y-42727619D01*
X78065476Y-42822857D01*
X78065476Y-42965714D01*
X78017857Y-43060952D01*
X77970238Y-43108571D01*
X77875000Y-43156190D01*
X77494047Y-43156190D01*
X78875000Y-43584761D02*
X78779761Y-43632380D01*
X78589285Y-43632380D01*
X78494047Y-43584761D01*
X78446428Y-43489523D01*
X78446428Y-43108571D01*
X78494047Y-43013333D01*
X78589285Y-42965714D01*
X78779761Y-42965714D01*
X78875000Y-43013333D01*
X78922619Y-43108571D01*
X78922619Y-43203809D01*
X78446428Y-43299047D01*
X79303571Y-43584761D02*
X79446428Y-43632380D01*
X79684523Y-43632380D01*
X79779761Y-43584761D01*
X79827380Y-43537142D01*
X79875000Y-43441904D01*
X79875000Y-43346666D01*
X79827380Y-43251428D01*
X79779761Y-43203809D01*
X79684523Y-43156190D01*
X79494047Y-43108571D01*
X79398809Y-43060952D01*
X79351190Y-43013333D01*
X79303571Y-42918095D01*
X79303571Y-42822857D01*
X79351190Y-42727619D01*
X79398809Y-42680000D01*
X79494047Y-42632380D01*
X79732142Y-42632380D01*
X79875000Y-42680000D01*
X80684523Y-43584761D02*
X80589285Y-43632380D01*
X80398809Y-43632380D01*
X80303571Y-43584761D01*
X80255952Y-43489523D01*
X80255952Y-43108571D01*
X80303571Y-43013333D01*
X80398809Y-42965714D01*
X80589285Y-42965714D01*
X80684523Y-43013333D01*
X80732142Y-43108571D01*
X80732142Y-43203809D01*
X80255952Y-43299047D01*
X81017857Y-42965714D02*
X81398809Y-42965714D01*
X81160714Y-42632380D02*
X81160714Y-43489523D01*
X81208333Y-43584761D01*
X81303571Y-43632380D01*
X81398809Y-43632380D01*
%TO.C,R5*%
D15*
X81654666Y-47605904D02*
X81388000Y-47224952D01*
X81197523Y-47605904D02*
X81197523Y-46805904D01*
X81502285Y-46805904D01*
X81578476Y-46844000D01*
X81616571Y-46882095D01*
X81654666Y-46958285D01*
X81654666Y-47072571D01*
X81616571Y-47148761D01*
X81578476Y-47186857D01*
X81502285Y-47224952D01*
X81197523Y-47224952D01*
X82378476Y-46805904D02*
X81997523Y-46805904D01*
X81959428Y-47186857D01*
X81997523Y-47148761D01*
X82073714Y-47110666D01*
X82264190Y-47110666D01*
X82340380Y-47148761D01*
X82378476Y-47186857D01*
X82416571Y-47263047D01*
X82416571Y-47453523D01*
X82378476Y-47529714D01*
X82340380Y-47567809D01*
X82264190Y-47605904D01*
X82073714Y-47605904D01*
X81997523Y-47567809D01*
X81959428Y-47529714D01*
%TO.C,SW1*%
X116026380Y-54514666D02*
X116050190Y-54443238D01*
X116050190Y-54324190D01*
X116026380Y-54276571D01*
X116002571Y-54252761D01*
X115954952Y-54228952D01*
X115907333Y-54228952D01*
X115859714Y-54252761D01*
X115835904Y-54276571D01*
X115812095Y-54324190D01*
X115788285Y-54419428D01*
X115764476Y-54467047D01*
X115740666Y-54490857D01*
X115693047Y-54514666D01*
X115645428Y-54514666D01*
X115597809Y-54490857D01*
X115574000Y-54467047D01*
X115550190Y-54419428D01*
X115550190Y-54300380D01*
X115574000Y-54228952D01*
X115550190Y-54062285D02*
X116050190Y-53943238D01*
X115693047Y-53848000D01*
X116050190Y-53752761D01*
X115550190Y-53633714D01*
X116050190Y-53181333D02*
X116050190Y-53467047D01*
X116050190Y-53324190D02*
X115550190Y-53324190D01*
X115621619Y-53371809D01*
X115669238Y-53419428D01*
X115693047Y-53467047D01*
%TO.C,R4*%
X85197904Y-42043333D02*
X84816952Y-42310000D01*
X85197904Y-42500476D02*
X84397904Y-42500476D01*
X84397904Y-42195714D01*
X84436000Y-42119523D01*
X84474095Y-42081428D01*
X84550285Y-42043333D01*
X84664571Y-42043333D01*
X84740761Y-42081428D01*
X84778857Y-42119523D01*
X84816952Y-42195714D01*
X84816952Y-42500476D01*
X84664571Y-41357619D02*
X85197904Y-41357619D01*
X84359809Y-41548095D02*
X84931238Y-41738571D01*
X84931238Y-41243333D01*
%TO.C,R3*%
X86226666Y-47605904D02*
X85960000Y-47224952D01*
X85769523Y-47605904D02*
X85769523Y-46805904D01*
X86074285Y-46805904D01*
X86150476Y-46844000D01*
X86188571Y-46882095D01*
X86226666Y-46958285D01*
X86226666Y-47072571D01*
X86188571Y-47148761D01*
X86150476Y-47186857D01*
X86074285Y-47224952D01*
X85769523Y-47224952D01*
X86493333Y-46805904D02*
X86988571Y-46805904D01*
X86721904Y-47110666D01*
X86836190Y-47110666D01*
X86912380Y-47148761D01*
X86950476Y-47186857D01*
X86988571Y-47263047D01*
X86988571Y-47453523D01*
X86950476Y-47529714D01*
X86912380Y-47567809D01*
X86836190Y-47605904D01*
X86607619Y-47605904D01*
X86531428Y-47567809D01*
X86493333Y-47529714D01*
%TO.C,R2*%
X108578666Y-49129904D02*
X108312000Y-48748952D01*
X108121523Y-49129904D02*
X108121523Y-48329904D01*
X108426285Y-48329904D01*
X108502476Y-48368000D01*
X108540571Y-48406095D01*
X108578666Y-48482285D01*
X108578666Y-48596571D01*
X108540571Y-48672761D01*
X108502476Y-48710857D01*
X108426285Y-48748952D01*
X108121523Y-48748952D01*
X108883428Y-48406095D02*
X108921523Y-48368000D01*
X108997714Y-48329904D01*
X109188190Y-48329904D01*
X109264380Y-48368000D01*
X109302476Y-48406095D01*
X109340571Y-48482285D01*
X109340571Y-48558476D01*
X109302476Y-48672761D01*
X108845333Y-49129904D01*
X109340571Y-49129904D01*
%TO.C,R1*%
X108311904Y-46210833D02*
X107930952Y-46477500D01*
X108311904Y-46667976D02*
X107511904Y-46667976D01*
X107511904Y-46363214D01*
X107550000Y-46287023D01*
X107588095Y-46248928D01*
X107664285Y-46210833D01*
X107778571Y-46210833D01*
X107854761Y-46248928D01*
X107892857Y-46287023D01*
X107930952Y-46363214D01*
X107930952Y-46667976D01*
X108311904Y-45448928D02*
X108311904Y-45906071D01*
X108311904Y-45677500D02*
X107511904Y-45677500D01*
X107626190Y-45753690D01*
X107702380Y-45829880D01*
X107740476Y-45906071D01*
%TO.C,C1*%
X85121714Y-38233333D02*
X85159809Y-38271428D01*
X85197904Y-38385714D01*
X85197904Y-38461904D01*
X85159809Y-38576190D01*
X85083619Y-38652380D01*
X85007428Y-38690476D01*
X84855047Y-38728571D01*
X84740761Y-38728571D01*
X84588380Y-38690476D01*
X84512190Y-38652380D01*
X84436000Y-38576190D01*
X84397904Y-38461904D01*
X84397904Y-38385714D01*
X84436000Y-38271428D01*
X84474095Y-38233333D01*
X85197904Y-37471428D02*
X85197904Y-37928571D01*
X85197904Y-37700000D02*
X84397904Y-37700000D01*
X84512190Y-37776190D01*
X84588380Y-37852380D01*
X84626476Y-37928571D01*
%TD*%
M02*
