M48
; DRILL file {KiCad (5.1.9-0-10_14)} date Monday, March 22, 2021 at 02:16:18 PM
; FORMAT={-:-/ absolute / inch / decimal}
; #@! TF.CreationDate,2021-03-22T14:16:18+08:00
; #@! TF.GenerationSoftware,Kicad,Pcbnew,(5.1.9-0-10_14)
; #@! TF.FileFunction,Plated,1,2,PTH
FMAT,2
INCH
T1C0.0157
T2C0.0236
T3C0.0315
T4C0.0394
T5C0.0433
%
G90
G05
T1
X3.125Y-1.85
X3.475Y-1.675
X3.675Y-2.06
X3.725Y-2.025
X3.775Y-2.025
X4.025Y-1.75
X4.22Y-1.92
X4.225Y-1.5
X4.25Y-1.775
X4.35Y-1.55
X4.55Y-1.55
X4.59Y-1.55
T3
X4.399Y-1.8531
X4.399Y-1.9516
X4.399Y-2.05
X4.525Y-1.8531
X4.525Y-1.9516
X4.525Y-2.05
T4
X3.0Y-1.8
X3.0Y-1.9
X3.0Y-2.0
X3.0Y-2.1
X4.3Y-1.65
X4.3Y-2.1
X4.4Y-1.65
X4.65Y-1.8
X4.65Y-1.9
X4.65Y-2.0
X4.65Y-2.1
T5
X3.0Y-1.45
X3.0Y-1.6272
X3.1441Y-1.9728
X3.1441Y-2.15
X3.2559Y-1.45
X3.2559Y-1.6272
X3.4Y-1.9728
X3.4Y-2.15
T2
G00X4.3049Y-1.2955
M15
G01X4.3049Y-1.2719
M16
G05
G00X4.3049Y-1.4699
M15
G01X4.3049Y-1.4266
M16
G05
G00X4.6451Y-1.2955
M15
G01X4.6451Y-1.2719
M16
G05
G00X4.6451Y-1.4699
M15
G01X4.6451Y-1.4266
M16
G05
T0
M30
