%TF.GenerationSoftware,KiCad,Pcbnew,(5.1.9-0-10_14)*%
%TF.CreationDate,2021-03-22T14:16:12+08:00*%
%TF.ProjectId,Kernel,4b65726e-656c-42e6-9b69-6361645f7063,rev?*%
%TF.SameCoordinates,Original*%
%TF.FileFunction,Soldermask,Top*%
%TF.FilePolarity,Negative*%
%FSLAX46Y46*%
G04 Gerber Fmt 4.6, Leading zero omitted, Abs format (unit mm)*
G04 Created by KiCad (PCBNEW (5.1.9-0-10_14)) date 2021-03-22 14:16:12*
%MOMM*%
%LPD*%
G01*
G04 APERTURE LIST*
%ADD10R,1.700000X1.700000*%
%ADD11R,2.500000X1.000000*%
%ADD12R,0.600000X1.450000*%
%ADD13R,0.300000X1.450000*%
%ADD14O,1.000000X2.100000*%
%ADD15C,0.650000*%
%ADD16O,1.000000X1.600000*%
%ADD17O,1.700000X1.700000*%
%ADD18C,2.000000*%
%ADD19C,1.600000*%
%ADD20R,1.600000X1.600000*%
G04 APERTURE END LIST*
D10*
%TO.C,J5*%
X109220000Y-53340000D03*
%TD*%
D11*
%TO.C,U1*%
X105390000Y-39680000D03*
X105390000Y-41680000D03*
X105390000Y-43680000D03*
X105390000Y-45680000D03*
X105390000Y-47680000D03*
X105390000Y-49680000D03*
X105390000Y-51680000D03*
X105390000Y-53680000D03*
X90190000Y-53680000D03*
X90190000Y-51680000D03*
X90190000Y-49680000D03*
X90190000Y-47680000D03*
X90190000Y-45680000D03*
X90190000Y-43680000D03*
X90190000Y-41680000D03*
X90190000Y-39680000D03*
%TD*%
D12*
%TO.C,J1*%
X110415000Y-37700000D03*
X111215000Y-37700000D03*
X116115000Y-37700000D03*
X116915000Y-37700000D03*
X116915000Y-37700000D03*
X116115000Y-37700000D03*
X111215000Y-37700000D03*
X110415000Y-37700000D03*
D13*
X115415000Y-37700000D03*
X114915000Y-37700000D03*
X114415000Y-37700000D03*
X113415000Y-37700000D03*
X112915000Y-37700000D03*
X112415000Y-37700000D03*
X111915000Y-37700000D03*
X113915000Y-37700000D03*
D14*
X109345000Y-36785000D03*
X117985000Y-36785000D03*
D15*
X116555000Y-36255000D03*
D16*
X117985000Y-32605000D03*
D15*
X110775000Y-36255000D03*
D16*
X109345000Y-32605000D03*
%TD*%
D17*
%TO.C,J4*%
X109220000Y-41910000D03*
D10*
X111760000Y-41910000D03*
%TD*%
D18*
%TO.C,SW3*%
X79860000Y-54610000D03*
X79860000Y-50110000D03*
X86360000Y-54610000D03*
X86360000Y-50110000D03*
%TD*%
%TO.C,SW2*%
X82700000Y-36830000D03*
X82700000Y-41330000D03*
X76200000Y-36830000D03*
X76200000Y-41330000D03*
%TD*%
%TO.C,R5*%
G36*
G01*
X79967500Y-45269998D02*
X79967500Y-46170002D01*
G75*
G02*
X79717502Y-46420000I-249998J0D01*
G01*
X79192498Y-46420000D01*
G75*
G02*
X78942500Y-46170002I0J249998D01*
G01*
X78942500Y-45269998D01*
G75*
G02*
X79192498Y-45020000I249998J0D01*
G01*
X79717502Y-45020000D01*
G75*
G02*
X79967500Y-45269998I0J-249998D01*
G01*
G37*
G36*
G01*
X81792500Y-45269998D02*
X81792500Y-46170002D01*
G75*
G02*
X81542502Y-46420000I-249998J0D01*
G01*
X81017498Y-46420000D01*
G75*
G02*
X80767500Y-46170002I0J249998D01*
G01*
X80767500Y-45269998D01*
G75*
G02*
X81017498Y-45020000I249998J0D01*
G01*
X81542502Y-45020000D01*
G75*
G02*
X81792500Y-45269998I0J-249998D01*
G01*
G37*
%TD*%
D17*
%TO.C,J3*%
X118110000Y-53340000D03*
X118110000Y-50800000D03*
X118110000Y-48260000D03*
D10*
X118110000Y-45720000D03*
%TD*%
D17*
%TO.C,J2*%
X76200000Y-53340000D03*
X76200000Y-50800000D03*
X76200000Y-48260000D03*
D10*
X76200000Y-45720000D03*
%TD*%
D19*
%TO.C,SW1*%
X114935000Y-47070000D03*
X114935000Y-49570000D03*
X114935000Y-52070000D03*
X111735000Y-47070000D03*
X111735000Y-49570000D03*
D20*
X111735000Y-52070000D03*
%TD*%
%TO.C,R4*%
G36*
G01*
X85909998Y-42945000D02*
X86810002Y-42945000D01*
G75*
G02*
X87060000Y-43194998I0J-249998D01*
G01*
X87060000Y-43720002D01*
G75*
G02*
X86810002Y-43970000I-249998J0D01*
G01*
X85909998Y-43970000D01*
G75*
G02*
X85660000Y-43720002I0J249998D01*
G01*
X85660000Y-43194998D01*
G75*
G02*
X85909998Y-42945000I249998J0D01*
G01*
G37*
G36*
G01*
X85909998Y-41120000D02*
X86810002Y-41120000D01*
G75*
G02*
X87060000Y-41369998I0J-249998D01*
G01*
X87060000Y-41895002D01*
G75*
G02*
X86810002Y-42145000I-249998J0D01*
G01*
X85909998Y-42145000D01*
G75*
G02*
X85660000Y-41895002I0J249998D01*
G01*
X85660000Y-41369998D01*
G75*
G02*
X85909998Y-41120000I249998J0D01*
G01*
G37*
%TD*%
%TO.C,R3*%
G36*
G01*
X85490000Y-46170002D02*
X85490000Y-45269998D01*
G75*
G02*
X85739998Y-45020000I249998J0D01*
G01*
X86265002Y-45020000D01*
G75*
G02*
X86515000Y-45269998I0J-249998D01*
G01*
X86515000Y-46170002D01*
G75*
G02*
X86265002Y-46420000I-249998J0D01*
G01*
X85739998Y-46420000D01*
G75*
G02*
X85490000Y-46170002I0J249998D01*
G01*
G37*
G36*
G01*
X83665000Y-46170002D02*
X83665000Y-45269998D01*
G75*
G02*
X83914998Y-45020000I249998J0D01*
G01*
X84440002Y-45020000D01*
G75*
G02*
X84690000Y-45269998I0J-249998D01*
G01*
X84690000Y-46170002D01*
G75*
G02*
X84440002Y-46420000I-249998J0D01*
G01*
X83914998Y-46420000D01*
G75*
G02*
X83665000Y-46170002I0J249998D01*
G01*
G37*
%TD*%
%TO.C,R2*%
G36*
G01*
X108312000Y-49841998D02*
X108312000Y-50742002D01*
G75*
G02*
X108062002Y-50992000I-249998J0D01*
G01*
X107536998Y-50992000D01*
G75*
G02*
X107287000Y-50742002I0J249998D01*
G01*
X107287000Y-49841998D01*
G75*
G02*
X107536998Y-49592000I249998J0D01*
G01*
X108062002Y-49592000D01*
G75*
G02*
X108312000Y-49841998I0J-249998D01*
G01*
G37*
G36*
G01*
X110137000Y-49841998D02*
X110137000Y-50742002D01*
G75*
G02*
X109887002Y-50992000I-249998J0D01*
G01*
X109361998Y-50992000D01*
G75*
G02*
X109112000Y-50742002I0J249998D01*
G01*
X109112000Y-49841998D01*
G75*
G02*
X109361998Y-49592000I249998J0D01*
G01*
X109887002Y-49592000D01*
G75*
G02*
X110137000Y-49841998I0J-249998D01*
G01*
G37*
%TD*%
%TO.C,R1*%
G36*
G01*
X108769998Y-46477500D02*
X109670002Y-46477500D01*
G75*
G02*
X109920000Y-46727498I0J-249998D01*
G01*
X109920000Y-47252502D01*
G75*
G02*
X109670002Y-47502500I-249998J0D01*
G01*
X108769998Y-47502500D01*
G75*
G02*
X108520000Y-47252502I0J249998D01*
G01*
X108520000Y-46727498D01*
G75*
G02*
X108769998Y-46477500I249998J0D01*
G01*
G37*
G36*
G01*
X108769998Y-44652500D02*
X109670002Y-44652500D01*
G75*
G02*
X109920000Y-44902498I0J-249998D01*
G01*
X109920000Y-45427502D01*
G75*
G02*
X109670002Y-45677500I-249998J0D01*
G01*
X108769998Y-45677500D01*
G75*
G02*
X108520000Y-45427502I0J249998D01*
G01*
X108520000Y-44902498D01*
G75*
G02*
X108769998Y-44652500I249998J0D01*
G01*
G37*
%TD*%
%TO.C,C1*%
G36*
G01*
X87010001Y-37200000D02*
X85709999Y-37200000D01*
G75*
G02*
X85460000Y-36950001I0J249999D01*
G01*
X85460000Y-36299999D01*
G75*
G02*
X85709999Y-36050000I249999J0D01*
G01*
X87010001Y-36050000D01*
G75*
G02*
X87260000Y-36299999I0J-249999D01*
G01*
X87260000Y-36950001D01*
G75*
G02*
X87010001Y-37200000I-249999J0D01*
G01*
G37*
G36*
G01*
X87010001Y-40150000D02*
X85709999Y-40150000D01*
G75*
G02*
X85460000Y-39900001I0J249999D01*
G01*
X85460000Y-39249999D01*
G75*
G02*
X85709999Y-39000000I249999J0D01*
G01*
X87010001Y-39000000D01*
G75*
G02*
X87260000Y-39249999I0J-249999D01*
G01*
X87260000Y-39900001D01*
G75*
G02*
X87010001Y-40150000I-249999J0D01*
G01*
G37*
%TD*%
M02*
